<?xml version="1.0" encoding="UTF-8"?>
<svg xmlns="http://www.w3.org/2000/svg" id="illustration" viewBox="0 0 350 350">
    <defs>
        <style>.cls-1{fill:none;}.cls-16,.cls-2{fill:#ececeb;}.cls-3{clip-path:url(#clip-path);}.cls-4{fill:#1c7678;}.cls-10,.cls-12,.cls-13,.cls-14,.cls-15,.cls-16,.cls-17,.cls-18,.cls-19,.cls-20,.cls-4,.cls-5,.cls-6,.cls-7,.cls-8,.cls-9{fill-rule:evenodd;}.cls-5{fill:#efd3c2;}.cls-6{fill:#d0af96;}.cls-11,.cls-7{fill:#a9846c;}.cls-8{fill:#f7e6dc;}.cls-9{fill:#27788c;}.cls-10{fill:#318fa6;}.cls-12{fill:#dddddc;}.cls-13{fill:#c4c4c4;}.cls-14{fill:#a3a3a3;}.cls-15{fill:#737373;}.cls-17{fill:#474747;}.cls-18{fill:#6f7173;}.cls-19{fill:#72cbcc;}.cls-20{fill:#50a9aa;}.cls-21{fill:#2b2b2b;}</style>
        <clipPath id="clip-path">
            <circle class="cls-1" cx="175" cy="175" r="175" />
        </clipPath>
    </defs>
    <circle class="cls-2" cx="175" cy="175" r="175" />
    <g class="cls-3">
        <path class="cls-4" d="M118,362.82c44.91-3.13,89.81-7,134.86-7.74,3.65-.06,7.29-.07,10.94-.06L245.1,296.85,108.92,309.21,90.76,364.59Q104.37,363.78,118,362.82Z" />
        <polygon class="cls-5" points="243.62 62.49 193.7 72.78 164.79 85.39 140 76.94 104.45 77.02 113.37 95.33 128.67 103.01 119.65 125.57 122.07 148.37 130.67 176.15 146.29 198.35 139.5 199.25 133.74 204.74 129.62 192.22 121.85 183.82 107.99 188.41 98.29 197.47 106.74 215.4 119.87 231.38 120.34 242.94 129.11 257.82 134.75 264.52 133.96 271.68 156.69 285.88 192.53 300.09 202.34 290.04 207.06 277.85 207.06 255.39 274.01 241.07 262.76 163.03 265.86 147.93 260.13 121.5 253.87 113.97 243.62 62.49" />
        <polygon class="cls-6" points="134.62 81.21 150.32 134.17 160.73 183.29 179.33 260.69 207.06 255.39 204.5 266.18 207.06 277.85 192.53 300.09 133.96 271.68 119.87 231.38 139.91 222.8 133.74 204.74 138.46 199.32 146.29 198.35 136.11 183.9 122.07 148.37 122.33 126.87 128.67 103.01 115.46 92.8 104.45 77.02 123.73 77.93 134.62 81.21" />
        <polygon class="cls-7" points="119.87 231.38 139.91 222.8 129.11 257.82 120.46 242.49 119.87 231.38" />
        <polygon class="cls-7" points="207.06 255.39 167.87 262.87 192.53 300.09 203.39 289.74 207.06 277.85 207.06 255.39" />
        <polygon class="cls-7" points="169.69 169.63 171.66 147.67 192.9 142.57 203.1 165.1 160.73 183.29 204.86 178.76 213.41 186.41 201.46 124.38 164.69 143.74 160.6 157.4 169.69 169.63" />
        <polygon class="cls-7" points="238.45 154.62 239 135.38 258.23 129.25 263.65 132.07 262.77 156.96 228.18 169.82 229.55 176.9 262.76 163.03 268.72 141.98 261.68 117.32 226.44 127.23 229.31 155.41 238.45 154.62" />
        <polygon class="cls-7" points="213.41 186.41 223.58 193.73 230.78 183.29 213.41 186.41" />
        <polygon class="cls-8" points="204.06 136.43 221.04 132.8 230.78 183.29 213.41 186.41 204.06 136.43" />
        <polygon class="cls-9" points="204.06 136.43 200.23 130.55 201.46 124.38 218.65 120.89 223.59 126.31 221.04 132.8 204.06 136.43" />
        <path class="cls-10" d="M201.46,124.38l-51.13,9.79,1.87,18.64,4.9,13.34,3.63,17.14,50.11-10.61-6.78-36.25-2.6-12.05Zm-36.77,19.36,27.41-5.22,5,25.46-27.42,5.66Z" />
        <path class="cls-10" d="M218.65,120.89l49.83-9.79,9.35,49-49.65,9.76-7.14-37-2.39-11.91Zm15.23,9.8,4.57,23.93,23.72-4.35L257.6,125.9Z" />
        <rect class="cls-11" x="196.8" y="212.84" width="50.87" height="3.96" transform="translate(-37.74 47.64) rotate(-11.28)" />
        <polygon class="cls-7" points="128.01 210.91 119.42 196.37 108.86 201 128.01 210.91" />
        <polygon class="cls-12" points="243.62 62.49 148.91 51.15 155.36 71.87 164.79 85.39 243.62 62.49" />
        <polygon class="cls-13" points="104.45 77.02 83.93 86.76 78.93 127.37 102.32 120.62 128.67 103.01 104.45 77.02" />
        <polygon class="cls-12" points="78.93 127.37 69.56 196.72 99.05 173.42 122.07 148.37 128.67 103.01 78.93 127.37" />
        <polygon class="cls-14" points="122.07 148.37 146.29 198.35 133.74 204.74 121.68 183.92 98.29 197.47 119.87 231.38 129.11 257.82 69.56 196.72 122.07 148.37" />
        <polygon class="cls-13" points="164.79 85.39 148.91 51.15 104.45 77.02 164.79 85.39" />
        <polygon class="cls-9" points="150.32 134.17 86.43 197.97 105.13 208.22 98.29 197.47 121.96 184.02 157.1 166.15 150.32 134.17" />
        <polygon class="cls-7" points="135.92 176.96 157.1 166.15 158.94 174.85 138.53 182.34 135.92 176.96" />
        <polygon class="cls-15" points="121.79 184.12 135.92 176.96 138.53 182.34 123.85 187.68 121.79 184.12" />
        <polygon class="cls-16" points="133.96 271.68 128.58 294.32 178.48 321.98 199.05 328.58 214.27 311.63 222.64 289.83 207.06 277.85 192.53 300.09 133.96 271.68" />
        <polygon class="cls-13" points="222.64 289.83 245.1 296.85 227.47 332.15 206.37 360.46 153.63 336.46 108.92 309.21 128.58 294.32 199.05 328.58 222.64 289.83" />
        <polygon class="cls-4" points="108.92 309.21 185.67 349.57 195.09 352.32 206.37 360.46 156.76 354.82 109.31 343.57 108.92 309.21" />
        <path class="cls-4" d="M251.43,355.11l-.5-9.8-5.83-48.46-25.27,41.5L210.53,349l-2.8,7.74C222.28,355.94,236.85,355.36,251.43,355.11Z" />
        <polygon class="cls-17" points="192.53 300.09 180.19 319.41 199.05 328.58 210.85 309.49 192.53 300.09" />
        <polygon class="cls-18" points="199.05 328.58 185.67 349.57 206.37 360.46 219.83 338.35 199.05 328.58" />
        <path class="cls-19" d="M109.53,363.4l-.61-54.19-40,23.09-2.47,33.56C80.83,365.22,95.19,364.37,109.53,363.4Z" />
        <path class="cls-20" d="M252.82,355.08q15.63-.24,31.16.31L245.1,296.85l5,58.28Z" />
    </g>
    <circle class="cls-21" cx="183.78" cy="153.76" r="4.97" />
    <circle class="cls-21" cx="248.21" cy="140.71" r="4.97" />
</svg>
