<?xml version="1.0" standalone="no"?>
<!DOCTYPE svg PUBLIC "-//W3C//DTD SVG 20010904//EN"
 "http://www.w3.org/TR/2001/REC-SVG-20010904/DTD/svg10.dtd">
<svg version="1.0" xmlns="http://www.w3.org/2000/svg"
 width="512.000000pt" height="512.000000pt" viewBox="0 0 512.000000 512.000000"
 preserveAspectRatio="xMidYMid meet">
<metadata>
Created by potrace 1.11, written by Peter Selinger 2001-2013
</metadata>
<g transform="translate(0.000000,512.000000) scale(0.100000,-0.100000)"
fill="#000000" stroke="none">
<path d="M2346 5029 c-511 -42 -981 -234 -1386 -565 -78 -64 -290 -286 -362
-380 -199 -261 -340 -543 -433 -869 -25 -88 -30 -115 -59 -320 -39 -269 -27
-560 35 -865 13 -64 74 -261 95 -307 8 -17 14 -37 14 -43 0 -22 130 -283 188
-378 147 -239 346 -467 557 -638 60 -49 251 -184 260 -184 3 0 43 -22 88 -49
45 -27 106 -59 134 -70 29 -11 60 -25 70 -31 44 -25 163 -73 228 -91 379 -105
429 -112 770 -112 220 0 300 4 375 17 120 22 279 61 348 87 29 10 60 19 70 19
28 0 284 114 394 176 105 58 250 153 256 167 2 4 8 7 13 7 5 0 51 35 102 77
467 390 759 893 867 1495 41 226 36 651 -10 870 -56 267 -151 528 -266 728
-20 36 -43 76 -50 90 -22 41 -125 187 -179 253 -79 99 -161 186 -259 276 -96
88 -307 251 -325 251 -6 0 -11 5 -11 10 0 6 -5 10 -11 10 -7 0 -36 16 -66 36
-170 112 -608 279 -788 299 -28 3 -72 10 -100 15 -141 26 -374 34 -559 19z
m499 -224 c132 -20 357 -75 460 -113 295 -109 572 -283 796 -499 340 -328 567
-752 648 -1210 54 -303 51 -537 -10 -862 -25 -136 -41 -189 -101 -346 -165
-431 -451 -789 -853 -1067 -93 -64 -303 -177 -390 -209 -239 -87 -329 -111
-580 -150 -47 -8 -166 -13 -285 -12 -183 0 -224 4 -382 32 -185 32 -319 72
-490 145 -503 215 -904 600 -1140 1095 -101 211 -133 307 -177 526 -63 312
-63 572 0 892 44 223 104 391 218 607 256 486 687 860 1224 1060 147 55 431
115 612 130 91 7 345 -4 450 -19z"/>
<path d="M1248 4010 c-190 -32 -349 -139 -471 -318 -49 -72 -97 -225 -97 -309
l0 -63 683 -2 682 -3 5 -1105 c5 -843 9 -1116 19 -1150 49 -176 204 -358 374
-439 77 -37 190 -63 254 -59 l48 3 0 1320 0 1320 -23 84 c-30 113 -100 257
-174 356 -139 189 -396 335 -638 365 -97 12 -592 12 -662 0z m-43 -265 c31
-31 35 -42 35 -85 0 -43 -4 -54 -35 -85 -31 -31 -42 -35 -85 -35 -43 0 -54 4
-85 35 -31 31 -35 42 -35 85 0 43 4 54 35 85 31 31 42 35 85 35 43 0 54 -4 85
-35z"/>
<path d="M2310 4006 c0 -8 9 -18 21 -21 56 -18 152 -88 232 -168 48 -48 87
-92 87 -97 0 -5 6 -13 13 -17 39 -25 148 -222 181 -326 l18 -59 352 5 c283 4
361 7 404 20 201 60 346 187 454 397 42 82 43 87 43 180 l0 95 -902 3 c-780 2
-903 0 -903 -12z"/>
<path d="M2890 2320 l0 -350 193 0 c284 1 374 25 532 141 158 117 265 318 265
501 l0 58 -495 0 -495 0 0 -350z m725 135 c31 -31 35 -42 35 -85 0 -43 -4 -54
-35 -85 -31 -31 -42 -35 -85 -35 -43 0 -54 4 -85 35 -31 31 -35 42 -35 85 0
43 4 54 35 85 31 31 42 35 85 35 43 0 54 -4 85 -35z"/>
</g>
</svg>
