<?xml version="1.0" standalone="no"?>
<!DOCTYPE svg PUBLIC "-//W3C//DTD SVG 20010904//EN"
 "http://www.w3.org/TR/2001/REC-SVG-20010904/DTD/svg10.dtd">
<svg version="1.0" xmlns="http://www.w3.org/2000/svg"
 width="555.000000pt" height="555.000000pt" viewBox="0 0 555.000000 555.000000"
 preserveAspectRatio="xMidYMid meet">
<metadata>
Created by potrace 1.11, written by Peter Selinger 2001-2013
</metadata>
<g transform="translate(0.000000,555.000000) scale(0.100000,-0.100000)"
fill="#000000" stroke="none">
<path d="M2605 5464 c-576 -45 -1066 -229 -1495 -563 -111 -86 -312 -282 -412
-401 -323 -385 -533 -878 -599 -1405 -16 -128 -16 -470 0 -600 62 -500 248
-955 549 -1345 90 -116 306 -335 427 -433 324 -262 728 -454 1126 -536 200
-41 328 -54 544 -55 221 0 331 10 532 49 1013 196 1839 990 2078 2000 50 209
68 373 68 615 1 232 -11 355 -54 559 -79 382 -260 772 -507 1091 -90 116 -306
335 -427 433 -385 311 -844 507 -1343 572 -116 15 -395 26 -487 19z m502 -264
c259 -38 469 -103 708 -219 271 -133 475 -281 686 -497 185 -191 313 -373 433
-615 268 -540 325 -1162 160 -1740 -87 -306 -249 -617 -449 -864 -97 -120
-307 -323 -425 -411 -835 -624 -1954 -656 -2815 -81 -132 88 -216 157 -348
286 -387 378 -625 845 -709 1386 -30 198 -30 502 0 700 65 423 223 793 485
1140 78 102 278 308 382 392 329 266 720 444 1127 514 249 43 516 46 765 9z"/>
<path d="M2635 4973 c-264 -16 -501 -71 -643 -149 -107 -58 -160 -105 -398
-352 -188 -196 -236 -251 -267 -310 -109 -208 -135 -597 -67 -1002 38 -224 89
-346 206 -490 32 -40 54 -76 51 -84 -3 -8 -27 -20 -53 -28 -29 -8 -55 -23 -67
-40 l-20 -27 22 -66 22 -65 -20 -29 c-27 -37 -27 -90 0 -142 37 -73 89 -148
110 -160 29 -15 78 -4 119 26 51 38 88 32 153 -21 40 -34 81 -31 119 7 38 37
27 48 -45 47 -31 -1 -53 4 -63 14 -14 14 -11 20 33 61 117 108 158 138 221
157 77 24 123 25 162 5 l30 -15 -20 -38 c-25 -46 -25 -55 0 -127 11 -32 20
-59 20 -60 0 -2 -9 -5 -20 -8 -11 -3 -23 -13 -26 -22 -4 -9 10 -80 30 -157 34
-129 38 -157 47 -352 5 -116 16 -339 25 -496 17 -322 20 -332 98 -369 56 -28
74 -27 82 5 12 48 -3 1135 -17 1182 -14 50 -6 62 48 80 l32 11 5 -52 c3 -29
10 -329 16 -667 7 -338 12 -616 13 -616 1 -1 28 -4 60 -6 52 -4 58 -3 62 16
13 53 26 412 32 838 6 505 5 493 60 486 l28 -3 -2 -440 c-2 -242 1 -541 5
-665 l7 -225 37 -6 c20 -3 41 -3 46 0 18 12 45 264 53 496 4 132 8 378 8 547
1 265 3 309 17 322 28 28 115 16 156 -21 22 -20 9 -39 -33 -48 -18 -4 -34 -16
-39 -28 -10 -27 -30 -707 -30 -1017 0 -143 4 -230 10 -236 14 -14 146 8 166
27 19 20 52 391 68 773 l13 311 42 97 c55 128 74 227 66 341 l-7 87 65 31
c119 55 224 49 298 -18 46 -41 52 -82 19 -135 -53 -87 13 -146 116 -103 34 14
118 80 179 142 49 48 78 118 79 189 1 56 -2 66 -32 103 l-33 40 86 431 c99
497 115 596 115 703 0 262 -166 591 -436 863 -218 219 -462 364 -715 424 -133
31 -329 44 -504 33z m-1032 -1513 c29 -11 224 -117 432 -236 209 -119 433
-243 498 -275 64 -33 117 -64 117 -69 0 -15 -85 -67 -146 -89 -68 -26 -240
-51 -345 -51 -334 1 -659 152 -659 305 0 15 -14 55 -31 90 -35 72 -41 154 -19
262 20 99 17 96 61 89 21 -3 63 -15 92 -26z m2468 13 c23 -27 17 -212 -9 -306
-28 -97 -91 -225 -138 -277 -65 -72 -105 -84 -419 -129 -166 -23 -214 -27
-283 -20 -127 13 -369 102 -359 132 2 7 80 45 173 85 125 54 198 93 282 150
419 287 387 268 547 327 163 59 186 63 206 38z m-1333 -830 l-3 -138 -43 -88
c-23 -48 -45 -108 -49 -133 -10 -77 -41 -68 -84 23 -10 22 -22 62 -26 88 -5
40 -1 56 30 118 20 40 47 97 61 127 24 55 89 140 108 140 6 0 8 -51 6 -137z
m98 84 c18 -23 48 -74 68 -114 19 -39 49 -93 66 -119 16 -26 30 -61 30 -77 0
-31 -55 -143 -94 -190 l-23 -29 -6 62 c-5 40 -21 94 -47 151 l-40 89 0 135 c0
74 3 135 8 135 4 0 21 -20 38 -43z"/>
</g>
</svg>
