<?xml version="1.0" standalone="no"?>
<!DOCTYPE svg PUBLIC "-//W3C//DTD SVG 20010904//EN"
 "http://www.w3.org/TR/2001/REC-SVG-20010904/DTD/svg10.dtd">
<svg version="1.0" xmlns="http://www.w3.org/2000/svg"
 width="400.000000pt" height="400.000000pt" viewBox="0 0 400.000000 400.000000"
 preserveAspectRatio="xMidYMid meet">
<metadata>
Created by potrace 1.11, written by Peter Selinger 2001-2013
</metadata>
<g transform="translate(0.000000,400.000000) scale(0.100000,-0.100000)"
fill="#000000" stroke="none">
<path d="M2741 3991 c-1 -7 -7 -11 -16 -7 -8 3 -15 2 -15 -3 0 -14 52 -23 63
-12 8 8 6 11 -5 11 -9 0 -19 6 -21 13 -4 9 -6 9 -6 -2z"/>
<path d="M2805 3872 c1 -70 5 -138 9 -151 6 -16 4 -27 -5 -33 -11 -7 -11 -11
-1 -15 7 -3 12 -24 12 -53 0 -30 -5 -50 -12 -53 -10 -3 -10 -7 0 -20 8 -9 12
-26 10 -38 -3 -19 -11 -13 -53 44 -27 36 -55 66 -61 67 -20 0 -66 28 -57 33 5
3 23 -1 39 -9 18 -10 24 -10 17 -3 -7 7 -13 21 -13 32 0 10 -4 16 -10 12 -20
-12 -60 7 -60 29 0 16 -2 18 -9 6 -6 -8 -8 -17 -5 -21 5 -9 -25 -21 -37 -13
-5 3 -6 10 -3 16 4 6 2 8 -3 5 -6 -4 -22 4 -37 18 -15 13 -29 25 -31 25 -3 0
-10 0 -16 0 -5 0 -7 5 -3 12 4 7 3 8 -5 4 -7 -4 -31 1 -54 11 -23 11 -53 24
-67 30 -24 11 -23 12 15 12 30 1 36 4 25 11 -8 5 -26 10 -39 10 -24 0 -24 0 7
26 44 37 40 49 -8 24 -21 -11 -51 -20 -65 -20 -24 0 -29 10 -28 58 1 18 -7 15
-29 -13 -11 -14 -24 -25 -30 -25 -6 0 -3 9 7 20 10 11 13 20 7 20 -6 0 -13 -4
-17 -9 -3 -5 -23 -8 -45 -6 -22 2 -40 1 -40 -3 0 -4 -26 -7 -58 -7 -57 0 -58
0 -40 19 23 25 23 40 1 32 -9 -4 -20 -1 -24 5 -5 9 -16 5 -39 -14 -17 -15 -40
-27 -50 -27 -10 0 -31 -7 -46 -15 -16 -8 -36 -15 -46 -15 -9 0 -44 -9 -77 -19
-34 -10 -61 -15 -61 -11 0 5 8 11 18 14 10 4 32 20 48 37 l29 31 -30 -16 c-16
-9 -45 -26 -63 -37 -31 -20 -34 -20 -58 -4 -28 18 -54 7 -54 -24 0 -34 -17
-46 -44 -33 -20 9 -25 9 -23 0 1 -7 -14 -16 -34 -22 -27 -7 -44 -5 -67 7 -29
14 -33 14 -55 -3 -13 -10 -36 -22 -50 -25 -17 -5 -29 -16 -33 -30 -4 -16 -11
-22 -21 -18 -9 3 -13 14 -10 25 4 15 2 17 -7 8 -8 -5 -16 -29 -19 -52 -3 -23
-13 -45 -21 -50 -9 -5 -16 -19 -17 -31 0 -12 -3 -16 -6 -9 -7 19 -22 14 -16
-6 2 -10 -3 -24 -11 -31 -9 -8 -16 -19 -16 -26 0 -7 -16 -27 -36 -45 -25 -21
-48 -59 -75 -123 -22 -51 -44 -101 -49 -112 -6 -11 -14 -56 -20 -100 -5 -44
-16 -105 -25 -135 -18 -66 -19 -107 -2 -113 8 -2 12 -31 12 -95 -1 -100 7
-107 24 -22 14 68 97 282 128 333 18 29 29 37 43 32 10 -3 21 -1 24 4 7 11 36
4 51 -13 6 -6 28 -20 50 -31 22 -11 42 -23 45 -26 7 -8 47 -29 55 -29 4 0 5 6
2 13 -5 14 9 15 56 2 29 -8 35 -20 15 -28 -7 -3 -3 -6 10 -7 36 -4 38 -4 56
-22 10 -10 26 -18 37 -18 11 0 41 -12 68 -26 45 -23 56 -25 121 -18 39 3 73
11 76 16 3 5 14 6 24 3 10 -3 21 -1 25 5 3 5 17 10 30 10 29 0 77 20 88 37 4
7 14 10 22 7 9 -4 15 0 15 9 0 9 13 18 30 22 16 4 35 14 41 23 8 13 11 14 16
4 4 -10 10 -10 29 3 13 8 24 11 24 6 0 -5 15 -5 37 0 24 5 40 4 44 -3 4 -5 15
-7 26 -4 12 4 25 1 33 -9 7 -8 21 -15 31 -15 10 0 23 -8 28 -19 6 -10 25 -24
43 -31 35 -14 78 -48 78 -61 0 -5 12 -34 26 -66 50 -113 54 -124 54 -161 0
-20 5 -56 10 -78 5 -23 10 -66 11 -95 1 -30 5 -58 9 -64 5 -5 13 -29 19 -52 7
-24 16 -43 21 -43 5 0 16 -15 24 -34 8 -19 21 -38 29 -42 23 -14 34 -45 46
-129 16 -110 33 -188 42 -199 10 -12 20 15 49 131 20 81 27 96 57 118 32 25
33 25 33 6 0 -21 24 -29 34 -12 3 5 15 7 26 4 16 -4 23 3 36 32 8 21 19 34 23
29 4 -5 16 -45 25 -88 15 -63 20 -76 28 -61 31 54 52 245 27 245 -6 0 -24 -11
-40 -24 -32 -27 -75 -25 -64 3 11 28 10 36 -2 34 -16 -4 -15 -6 -2 37 14 45
28 208 33 380 4 144 -15 313 -40 363 -14 27 -14 28 17 41 26 11 28 14 13 20
-11 4 -20 2 -22 -3 -5 -16 -42 -13 -42 2 0 8 -11 36 -25 63 -14 27 -20 51 -15
52 15 5 12 22 -4 22 -15 0 -29 27 -21 40 3 5 12 7 20 3 11 -4 15 3 15 28 -1
30 -2 32 -14 17 -21 -28 -27 -21 -22 24 3 24 13 48 23 57 16 12 16 13 1 8 -17
-6 -24 10 -18 38 1 6 2 70 2 143 -1 95 3 132 11 132 8 0 7 3 -2 9 -16 11 -6
31 16 31 10 0 13 -6 9 -16 -4 -9 -1 -14 6 -12 14 5 18 47 5 55 -5 3 -14 0 -20
-6 -16 -16 -27 -13 -27 7 0 14 -8 19 -28 20 l-28 1 1 -127z m35 73 c0 -19 -4
-35 -10 -35 -11 0 -14 53 -3 63 11 12 13 8 13 -28z m0 -131 c0 -8 -4 -12 -10
-9 -5 3 -10 10 -10 16 0 5 5 9 10 9 6 0 10 -7 10 -16z m-1483 -50 c-3 -3 -12
-4 -19 -1 -8 3 -5 6 6 6 11 1 17 -2 13 -5z m1493 -23 c0 -11 -4 -23 -10 -26
-6 -4 -10 5 -10 19 0 14 5 26 10 26 6 0 10 -9 10 -19z m-1513 -383 c-3 -8 -6
-5 -6 6 -1 11 2 17 5 13 3 -3 4 -12 1 -19z"/>
<path d="M2975 3990 c3 -5 8 -10 11 -10 2 0 4 5 4 10 0 6 -5 10 -11 10 -5 0
-7 -4 -4 -10z"/>
<path d="M3093 3983 c-18 -6 -16 -23 2 -23 8 0 15 -7 15 -16 0 -8 4 -13 9 -10
9 6 4 44 -8 50 -3 2 -12 1 -18 -1z"/>
<path d="M2520 3961 c0 -12 12 -25 30 -35 l30 -15 -20 29 c-28 39 -40 45 -40
21z"/>
<path d="M2983 3915 c1 -38 8 -43 27 -20 9 10 9 15 1 15 -6 0 -10 3 -10 8 3
17 -2 32 -10 32 -5 0 -9 -16 -8 -35z"/>
<path d="M2525 3844 c9 -9 18 -14 21 -11 9 9 -6 27 -22 27 -13 0 -13 -2 1 -16z"/>
<path d="M1275 3839 c-4 -6 -5 -12 -2 -15 2 -3 7 2 10 11 7 17 1 20 -8 4z"/>
<path d="M2739 3843 c-8 -42 -4 -83 8 -87 11 -5 13 -1 7 17 -4 12 -7 34 -6 50
2 24 -6 39 -9 20z"/>
<path d="M2888 3843 c7 -3 16 -2 19 1 4 3 -2 6 -13 5 -11 0 -14 -3 -6 -6z"/>
<path d="M2597 3807 c-3 -18 -1 -36 4 -41 5 -6 9 -1 9 12 0 12 9 26 19 32 26
13 31 13 31 -5 0 -8 5 -15 11 -15 6 0 8 7 5 16 -3 9 -6 19 -6 24 0 4 -15 8
-34 8 -30 0 -35 -3 -39 -31z"/>
<path d="M2961 3826 c-16 -19 -11 -29 8 -17 7 5 12 14 9 21 -3 9 -8 7 -17 -4z"/>
<path d="M3023 3755 c1 -29 3 -31 14 -17 16 22 16 39 -1 45 -10 4 -14 -3 -13
-28z"/>
<path d="M2720 3743 c0 -6 -3 -18 -6 -27 -3 -9 -2 -16 4 -16 15 0 24 32 12 44
-7 7 -10 7 -10 -1z"/>
<path d="M2635 3710 c-3 -5 -1 -10 4 -10 6 0 11 5 11 10 0 6 -2 10 -4 10 -3 0
-8 -4 -11 -10z"/>
<path d="M2985 3670 c-3 -5 1 -10 9 -10 9 0 16 5 16 10 0 6 -4 10 -9 10 -6 0
-13 -4 -16 -10z"/>
<path d="M2902 3647 c14 -6 29 -19 31 -29 3 -10 10 -18 15 -18 6 0 8 9 5 21
-5 20 -41 40 -66 38 -7 -1 0 -6 15 -12z"/>
<path d="M2970 3610 c0 -5 5 -10 10 -10 6 0 10 5 10 10 0 6 -4 10 -10 10 -5 0
-10 -4 -10 -10z"/>
<path d="M2922 3486 c7 -8 15 -12 17 -11 5 6 -10 25 -20 25 -5 0 -4 -6 3 -14z"/>
<path d="M2965 3380 c3 -5 8 -10 11 -10 2 0 4 5 4 10 0 6 -5 10 -11 10 -5 0
-7 -4 -4 -10z"/>
<path d="M3505 3330 c-3 -5 -1 -10 4 -10 6 0 11 5 11 10 0 6 -2 10 -4 10 -3 0
-8 -4 -11 -10z"/>
<path d="M3850 3280 c0 -5 5 -10 10 -10 6 0 10 5 10 10 0 6 -4 10 -10 10 -5 0
-10 -4 -10 -10z"/>
<path d="M3032 3224 c-7 -8 -8 -14 -3 -14 10 0 25 19 20 25 -2 1 -10 -3 -17
-11z"/>
<path d="M3770 3220 c0 -5 5 -10 10 -10 6 0 10 5 10 10 0 6 -4 10 -10 10 -5 0
-10 -4 -10 -10z"/>
<path d="M3495 3200 c-3 -5 -2 -10 4 -10 5 0 13 5 16 10 3 6 2 10 -4 10 -5 0
-13 -4 -16 -10z"/>
<path d="M3040 3189 c0 -5 5 -7 10 -4 6 3 10 8 10 11 0 2 -4 4 -10 4 -5 0 -10
-5 -10 -11z"/>
<path d="M3586 3145 c4 -8 10 -12 15 -9 11 6 2 24 -11 24 -5 0 -7 -7 -4 -15z"/>
<path d="M3620 3130 c0 -5 5 -10 10 -10 6 0 10 5 10 10 0 6 -4 10 -10 10 -5 0
-10 -4 -10 -10z"/>
<path d="M3795 3120 c-3 -6 1 -7 9 -4 18 7 21 14 7 14 -6 0 -13 -4 -16 -10z"/>
<path d="M3220 3040 c0 -5 7 -7 15 -4 8 4 15 8 15 10 0 2 -7 4 -15 4 -8 0 -15
-4 -15 -10z"/>
<path d="M3245 2950 c3 -5 11 -10 16 -10 6 0 7 5 4 10 -3 6 -11 10 -16 10 -6
0 -7 -4 -4 -10z"/>
<path d="M3177 2933 c-4 -3 -7 -11 -7 -17 0 -6 5 -5 12 2 6 6 9 14 7 17 -3 3
-9 2 -12 -2z"/>
<path d="M3310 2905 c0 -8 4 -15 10 -15 5 0 7 7 4 15 -4 8 -8 15 -10 15 -2 0
-4 -7 -4 -15z"/>
<path d="M1778 2805 c-25 -7 -54 -18 -65 -24 -16 -9 -16 -10 6 -11 13 0 51 7
85 16 33 9 95 20 136 24 l75 7 -95 0 c-52 0 -116 -5 -142 -12z"/>
<path d="M1835 2694 c-33 -8 -91 -23 -130 -35 -38 -11 -82 -23 -98 -26 -15 -3
-30 -9 -33 -14 -7 -12 60 -2 151 23 61 16 112 25 244 44 18 3 30 8 27 11 -11
11 -102 10 -161 -3z"/>
<path d="M802 2630 c0 -14 2 -19 5 -12 2 6 2 18 0 25 -3 6 -5 1 -5 -13z"/>
<path d="M700 2596 c0 -9 40 -13 46 -5 3 5 -6 9 -20 9 -14 0 -26 -2 -26 -4z"/>
<path d="M354 2578 c-3 -4 10 -8 28 -9 34 -1 32 -3 -14 -13 -23 -5 -28 -12
-28 -36 0 -27 3 -30 30 -30 38 0 40 -18 3 -22 -22 -2 -28 -9 -30 -30 -2 -24 3
-28 35 -35 l37 -7 -30 -6 c-25 -4 -30 -10 -30 -35 0 -29 2 -30 49 -33 48 -3
48 -3 42 23 -4 14 -7 66 -7 115 -1 50 -5 93 -10 95 -4 3 -6 12 -2 21 4 12 -2
14 -31 12 -21 -1 -40 -6 -42 -10z"/>
<path d="M44 2557 c17 -12 17 -14 2 -20 -25 -10 -21 -56 7 -61 12 -3 31 -7 42
-9 13 -3 9 -5 -10 -6 -57 -2 -78 -55 -27 -67 43 -9 49 -12 25 -13 -26 -1 -42
-21 -16 -21 10 0 28 -3 40 -6 l23 -6 -6 98 c-4 55 -7 105 -7 112 0 8 -16 12
-46 12 -40 0 -43 -1 -27 -13z"/>
<path d="M661 2561 c-12 -8 -13 -14 -3 -35 10 -22 18 -26 57 -26 45 0 45 0 45
35 0 35 -1 35 -42 35 -24 0 -49 -4 -57 -9z"/>
<path d="M804 2520 c3 -30 6 -79 6 -108 0 -30 4 -51 9 -47 12 7 2 187 -12 200
-6 7 -8 -8 -3 -45z"/>
<path d="M1830 2563 c-69 -3 -159 -23 -167 -36 -4 -6 4 -8 18 -4 80 20 187 29
289 24 63 -3 104 -2 90 2 -33 10 -161 18 -230 14z"/>
<path d="M2138 2523 c7 -3 16 -2 19 1 4 3 -2 6 -13 5 -11 0 -14 -3 -6 -6z"/>
<path d="M1608 2513 c7 -3 16 -2 19 1 4 3 -2 6 -13 5 -11 0 -14 -3 -6 -6z"/>
<path d="M677 2483 c-13 -3 -17 -12 -15 -31 3 -24 8 -28 48 -32 l45 -6 -45
-10 c-50 -11 -65 -38 -34 -61 20 -15 80 -18 89 -4 3 5 2 41 -1 80 l-7 71 -31
-1 c-17 -1 -39 -3 -49 -6z"/>
<path d="M3540 2469 c0 -5 5 -7 10 -4 6 3 10 8 10 11 0 2 -4 4 -10 4 -5 0 -10
-5 -10 -11z"/>
<path d="M2055 2397 c-9 -5 -45 -7 -81 -5 -35 2 -64 0 -64 -4 0 -5 -6 -8 -14
-8 -8 0 -18 -9 -21 -20 -3 -11 -18 -22 -33 -26 -15 -3 -35 -9 -44 -15 -10 -5
-24 -9 -33 -9 -8 0 -19 -8 -24 -18 -5 -10 -30 -28 -55 -41 -31 -15 -46 -29
-46 -42 0 -10 -4 -19 -9 -19 -5 0 -7 -8 -5 -17 3 -10 -7 -30 -21 -46 l-26 -27
-46 31 c-36 25 -47 29 -54 18 -4 -8 -4 -18 1 -23 4 -4 6 -15 3 -22 -3 -9 2
-14 16 -14 13 0 21 -6 21 -17 0 -15 2 -14 15 3 13 17 14 17 15 2 0 -10 4 -18
10 -18 5 0 26 -25 47 -55 22 -32 48 -58 63 -62 14 -3 32 -16 42 -28 9 -12 63
-45 120 -73 l104 -52 99 4 c110 4 193 18 224 38 20 12 20 13 -2 24 l-22 12 27
7 c16 4 26 10 23 14 -2 4 -1 21 4 37 5 21 14 29 30 30 24 1 65 34 43 34 -26 0
-1 18 33 24 40 8 52 21 35 40 -6 8 -8 25 -5 39 4 14 2 28 -4 31 -6 4 -11 19
-11 34 0 15 -8 39 -18 54 -25 38 -117 125 -163 154 -43 27 -148 46 -174 31z
m-5 -466 c0 -10 -24 -21 -46 -21 -8 0 -14 7 -14 15 0 10 10 15 30 15 17 0 30
-4 30 -9z"/>
<path d="M979 2342 c-35 -49 -43 -96 -22 -114 11 -8 14 -9 10 -1 -5 8 4 14 30
18 21 3 51 8 66 10 17 3 49 -5 80 -19 29 -13 75 -32 102 -42 28 -9 54 -21 60
-26 13 -11 37 -10 68 5 29 13 34 26 15 45 -17 17 -38 15 -38 -3 0 -18 -15 -20
-24 -2 -36 71 -84 107 -148 107 -20 0 -40 5 -43 10 -4 6 -10 8 -15 5 -5 -3
-17 5 -27 17 -12 15 -30 24 -53 25 -30 1 -39 -4 -61 -35z"/>
<path d="M3939 2342 c-3 -50 -1 -92 4 -92 4 0 18 0 32 0 22 0 25 4 25 40 0 32
-3 38 -16 33 -11 -4 -22 1 -30 12 -8 10 -14 13 -15 7z"/>
<path d="M676 2304 c-26 -26 -19 -43 22 -49 20 -4 45 -9 55 -12 14 -4 17 2 17
36 0 41 0 41 -39 41 -23 0 -46 -7 -55 -16z"/>
<path d="M3115 2304 c-20 -15 -20 -15 0 -11 11 1 29 8 40 15 l20 11 -20 0
c-11 0 -29 -6 -40 -15z"/>
<path d="M3330 2311 c0 -6 5 -13 10 -16 6 -3 10 1 10 9 0 9 -4 16 -10 16 -5 0
-10 -4 -10 -9z"/>
<path d="M4 2269 c8 -40 13 -46 28 -31 9 9 9 12 0 12 -7 0 -12 7 -12 16 0 11
5 14 16 10 8 -3 57 -11 107 -16 51 -6 110 -13 132 -17 22 -3 38 -3 35 0 -5 6
-105 23 -235 42 -22 4 -49 9 -59 12 -17 5 -18 1 -12 -28z"/>
<path d="M605 2270 c-3 -5 -1 -10 4 -10 6 0 11 5 11 10 0 6 -2 10 -4 10 -3 0
-8 -4 -11 -10z"/>
<path d="M3400 2270 c0 -5 5 -10 10 -10 6 0 10 5 10 10 0 6 -4 10 -10 10 -5 0
-10 -4 -10 -10z"/>
<path d="M101 2203 c-1 -28 4 -55 9 -58 12 -8 12 61 0 90 -6 15 -9 6 -9 -32z"/>
<path d="M320 2243 c0 -13 120 -40 188 -42 25 -1 35 -6 39 -20 7 -28 30 -33
65 -15 17 9 33 12 37 7 8 -12 44 -25 36 -14 -3 6 15 8 42 6 27 -2 52 -4 56 -4
4 -1 11 -10 15 -22 7 -19 9 -19 21 -5 9 11 10 16 2 16 -6 0 -11 6 -11 13 0 13
-62 26 -229 46 -40 5 -94 14 -120 20 -76 16 -141 23 -141 14z m290 -67 c0 -2
-9 -6 -20 -9 -11 -3 -20 -1 -20 4 0 5 9 9 20 9 11 0 20 -2 20 -4z"/>
<path d="M2865 2200 c-21 -24 -39 -80 -29 -90 5 -5 21 -11 34 -13 31 -5 41
-37 11 -37 -18 0 -21 -6 -21 -39 0 -22 -6 -44 -15 -51 -21 -18 -20 -52 2 -48
11 2 21 18 26 41 6 25 18 42 36 51 66 35 116 119 99 168 -8 24 -16 28 -46 29
-21 0 -47 2 -59 3 -13 2 -30 -5 -38 -14z m25 -5 c0 -8 -4 -15 -10 -15 -5 0 -7
7 -4 15 4 8 8 15 10 15 2 0 4 -7 4 -15z"/>
<path d="M1082 2203 c-27 -5 -38 -25 -45 -80 -5 -42 -4 -43 23 -43 16 0 36 8
46 17 43 43 101 51 89 12 -4 -10 2 -32 11 -49 18 -29 18 -30 -1 -46 -15 -12
-16 -14 -3 -10 21 6 48 -24 48 -56 0 -39 29 -58 88 -58 28 0 63 5 77 12 22 10
26 17 23 45 -2 20 1 34 9 37 23 9 15 57 -14 83 -33 28 -161 91 -203 100 -16 3
-51 0 -76 -6 -26 -7 -49 -9 -52 -6 -11 11 23 25 63 25 31 1 35 3 20 9 -31 13
-77 19 -103 14z"/>
<path d="M9 2188 c-6 -63 -4 -218 3 -218 4 0 8 -5 8 -11 0 -5 -4 -7 -10 -4 -7
4 -10 -112 -10 -340 0 -271 3 -346 13 -344 37 5 37 3 37 -185 0 -222 -6 -273
-31 -281 -18 -6 -19 -23 -19 -331 0 -290 2 -325 16 -331 10 -4 20 0 26 10 5
10 14 17 19 17 6 0 8 -4 5 -9 -10 -16 47 -20 59 -4 10 14 13 14 27 0 9 -9 19
-13 23 -9 3 4 13 -1 20 -12 8 -10 18 -15 24 -12 9 6 6 50 -6 69 -6 10 92 1
109 -9 10 -6 11 -25 1 -22 -5 1 -20 -2 -36 -7 -20 -5 -25 -11 -17 -20 5 -6 7
-15 3 -19 -4 -3 -7 -15 -8 -25 -1 -15 5 -18 29 -16 51 4 52 5 36 15 -11 7 2
10 43 10 31 0 57 -4 57 -9 0 -5 3 -16 6 -24 4 -12 -5 -14 -46 -12 -28 1 -52
-1 -55 -5 -2 -4 -15 -5 -29 -3 -13 3 -34 -1 -47 -8 -16 -8 -62 -12 -141 -10
-99 1 -118 -1 -118 -13 0 -13 37 -15 265 -15 l266 -1 8 23 c10 26 -3 35 -24
17 -12 -10 -15 -9 -15 5 0 9 -9 19 -20 22 -22 6 -26 18 -10 28 5 3 10 2 10 -3
0 -15 49 -24 68 -13 10 6 12 11 5 11 -18 0 -16 20 1 20 17 0 26 -22 26 -61 0
-19 -5 -29 -15 -29 -8 0 -15 -4 -15 -10 0 -7 582 -10 1725 -10 l1725 0 0 345
0 345 -24 0 c-14 0 -28 4 -31 10 -4 6 6 8 24 6 l31 -3 0 113 0 114 -59 0 c-33
0 -63 -5 -66 -10 -7 -11 -42 -10 -60 2 -5 3 -73 7 -150 7 -136 2 -164 8 -148
35 4 5 -1 7 -11 3 -10 -4 -20 -7 -22 -7 -2 0 -4 -6 -4 -14 0 -35 -108 -20
-188 26 -38 22 -93 66 -148 119 -17 17 -41 29 -56 29 -33 0 -72 31 -88 70 -10
23 -10 40 -2 73 16 59 21 116 12 122 -4 3 -10 15 -13 27 -2 13 -7 30 -11 39
-5 12 0 14 31 11 21 -2 43 -8 48 -12 16 -12 56 -5 66 11 5 8 9 9 9 4 0 -15
215 -17 285 -2 59 13 60 14 60 46 1 19 -5 45 -12 58 -10 20 -10 25 3 30 10 3
14 17 13 42 -3 43 -16 74 -30 66 -5 -4 -9 5 -9 19 0 26 -14 35 -25 16 -3 -5
-1 -10 4 -10 17 0 13 -27 -5 -34 -23 -9 -27 -8 -20 9 11 29 -5 45 -45 45 -32
0 -43 -6 -70 -39 -41 -51 -77 -65 -103 -39 -23 22 -56 24 -56 3 0 -8 -5 -15
-11 -15 -6 0 -8 7 -5 16 3 9 6 20 6 25 0 4 7 6 16 2 12 -4 15 0 12 18 -2 18
-9 24 -28 24 -16 0 -25 6 -25 15 0 8 6 14 14 12 9 -2 11 3 7 13 -3 9 -6 21 -6
26 0 5 -9 9 -20 9 -11 0 -20 -7 -20 -16 0 -11 -6 -14 -22 -9 -18 6 -20 4 -13
-11 4 -11 7 -30 6 -43 0 -14 4 -28 10 -32 15 -9 4 -39 -14 -39 -9 0 -12 9 -9
30 5 33 -16 43 -25 11 -5 -19 -14 -21 -92 -21 -26 0 -32 -3 -27 -15 3 -9 2
-13 -4 -10 -6 3 -7 17 -4 30 5 19 0 27 -25 39 -39 21 -41 20 -41 -6 0 -29 -7
-20 -13 17 -9 49 -28 109 -39 123 -6 7 -8 30 -4 53 4 26 2 46 -5 55 -20 24
-32 16 -25 -16 3 -19 2 -29 -4 -25 -6 3 -10 -2 -10 -12 0 -11 -5 -24 -11 -30
-7 -7 -13 -42 -15 -80 -2 -37 -6 -84 -8 -103 -3 -19 -5 -38 -5 -42 -1 -5 -8
-8 -16 -8 -8 0 -15 -5 -15 -11 0 -5 4 -7 10 -4 31 19 -6 -60 -37 -81 -18 -11
-24 -23 -23 -47 3 -57 0 -64 -30 -77 -17 -7 -30 -20 -30 -30 0 -13 -6 -17 -20
-13 -12 3 -20 0 -20 -6 0 -7 -5 -9 -10 -6 -6 4 -17 2 -24 -4 -18 -15 -82 6
-128 42 -21 15 -42 26 -47 23 -5 -4 -30 5 -56 19 -25 14 -49 23 -54 21 -5 -3
-11 1 -15 9 -3 8 -12 15 -20 15 -7 0 -16 7 -20 15 -3 8 -18 20 -33 26 -50 18
-83 34 -83 39 0 3 -14 6 -31 7 -17 1 -36 7 -43 12 -10 9 -71 16 -104 12 -9 0
2 -20 27 -50 55 -66 65 -93 42 -120 -10 -12 -25 -21 -32 -21 -8 0 -23 -7 -33
-15 -11 -8 -29 -15 -40 -15 -12 0 -41 -11 -66 -24 -25 -13 -61 -26 -81 -30
-20 -3 -44 -15 -54 -26 -10 -11 -28 -20 -40 -20 -12 0 -25 -3 -28 -7 -8 -7 39
-53 55 -53 5 0 8 -7 4 -15 -3 -8 0 -15 6 -15 6 0 16 -7 23 -16 8 -12 26 -16
65 -15 29 0 61 3 71 6 12 4 20 -1 24 -15 l7 -22 19 21 c23 24 35 26 46 9 21
-34 -3 -66 -58 -77 -18 -4 -35 -13 -37 -20 -4 -11 3 -12 29 -7 19 3 56 9 83
13 l49 6 -19 -26 c-10 -15 -23 -27 -28 -27 -5 0 -26 -18 -48 -39 -21 -22 -48
-43 -59 -46 -12 -4 -18 -13 -15 -20 3 -10 -11 -16 -52 -21 -31 -5 -60 -9 -64
-10 -5 -1 -11 -2 -15 -3 -14 -2 49 -31 68 -31 10 0 22 -7 27 -15 6 -12 30 -17
88 -20 43 -3 84 -6 89 -6 6 -1 33 2 60 6 l50 7 -21 -20 c-12 -12 -24 -25 -25
-30 -7 -16 -170 -97 -236 -117 -17 -5 -23 -2 -23 10 0 13 -6 15 -32 10 -18 -4
-35 -12 -36 -17 -2 -5 -10 -4 -17 2 -9 8 -17 7 -28 -5 -21 -21 -44 -21 -27 0
18 22 5 31 -15 11 -17 -17 -35 -21 -35 -8 0 4 9 13 20 20 11 7 20 19 20 27 0
21 -20 19 -21 -2 0 -10 -5 -3 -10 15 -11 37 -19 40 -37 12 -14 -23 -34 -27
-26 -5 4 8 1 15 -6 15 -6 0 -9 4 -6 9 3 5 -1 12 -10 15 -10 4 -13 13 -9 25 4
14 0 21 -15 26 -11 3 -20 12 -21 18 0 7 -2 20 -4 30 -2 9 1 17 6 17 6 0 7 5 4
10 -4 6 -10 8 -15 5 -4 -3 -11 2 -14 11 -10 25 -7 34 10 34 10 0 14 -6 10 -15
-3 -8 -1 -15 4 -15 6 0 10 6 10 13 0 18 -38 62 -46 54 -8 -7 -34 18 -34 32 0
6 -5 11 -12 11 -9 0 -8 3 1 13 11 10 14 10 18 0 6 -15 33 -17 33 -3 0 6 -5 10
-11 10 -6 0 -9 7 -5 15 3 8 0 15 -7 15 -8 0 -7 4 3 10 11 8 12 12 3 18 -10 6
-9 14 2 36 8 16 15 39 15 51 0 36 23 36 79 -2 29 -19 54 -34 56 -32 2 2 1 16
-2 31 -5 27 -21 36 -95 52 -16 4 -28 13 -28 22 0 8 4 13 9 10 5 -3 15 2 22 11
12 15 12 16 -3 10 -10 -3 -18 -2 -18 3 0 5 13 13 30 17 23 6 27 11 20 23 -7
12 -12 12 -22 2 -18 -18 -30 -14 -23 8 9 29 -10 25 -23 -6 -7 -14 -16 -23 -21
-20 -15 10 -42 -6 -37 -21 3 -8 1 -11 -4 -8 -17 11 -11 33 11 40 11 4 27 21
34 38 11 27 11 36 -1 59 -19 37 -18 48 11 102 44 83 32 91 -61 39 -76 -43
-141 -153 -135 -228 2 -16 12 -47 23 -68 11 -22 17 -45 14 -53 -3 -8 1 -14 9
-14 12 0 13 -4 3 -19 -12 -19 -12 -19 -30 2 -9 12 -24 29 -31 37 -8 8 -22 29
-31 47 l-16 32 -92 -49 c-162 -85 -190 -132 -128 -214 16 -21 27 -42 25 -46
-3 -4 -22 -11 -42 -15 -21 -4 -43 -11 -48 -15 -6 -5 -26 -10 -45 -13 -19 -2
17 -5 80 -6 l115 -1 34 -42 c38 -45 121 -203 121 -229 0 -20 -26 -43 -39 -35
-5 3 -7 16 -4 29 4 18 3 19 -6 7 -7 -10 -11 -11 -11 -2 0 15 -111 17 -126 2
-16 -16 -46 0 -41 21 5 17 -1 19 -58 19 -35 0 -67 4 -70 10 -4 6 5 10 19 10
16 0 26 6 26 15 0 17 -16 20 -25 5 -3 -6 -15 -10 -25 -10 -12 0 -17 -5 -14
-13 3 -8 -5 -13 -22 -15 -14 -1 -31 -5 -37 -9 -7 -4 -38 -7 -69 -6 -38 1 -58
-2 -58 -10 0 -8 -4 -7 -12 1 -10 10 -10 15 1 21 11 7 11 20 -1 77 -9 45 -12
97 -8 149 4 44 3 86 0 94 -4 8 -4 28 0 45 5 17 11 50 14 74 6 41 5 43 -16 40
-22 -3 -23 -7 -25 -113 -2 -125 -32 -273 -59 -288 -11 -7 -13 -11 -5 -16 13
-8 4 -41 -10 -41 -5 0 -9 9 -9 20 0 13 -7 20 -20 20 -11 0 -20 5 -20 10 0 13
-37 13 -45 0 -9 -14 -35 -12 -32 3 1 8 -10 11 -38 9 -43 -4 -74 -22 -37 -22
12 0 22 -4 22 -9 0 -14 -73 -19 -92 -7 -22 13 -24 28 -3 20 10 -4 15 0 15 11
0 13 -6 16 -24 13 -14 -3 -30 -2 -36 2 -18 11 -38 192 -36 330 l1 125 50 7
c109 15 115 17 115 42 0 13 -7 27 -16 30 -11 4 -14 13 -10 29 6 25 -9 56 -21
44 -4 -5 -1 -12 7 -17 10 -6 3 -10 -23 -15 -27 -5 -40 -3 -52 9 -9 9 -21 16
-26 16 -5 0 -9 7 -9 16 0 8 -5 12 -11 8 -7 -4 -7 -10 -1 -16 12 -12 5 -38 -9
-38 -5 0 -9 12 -9 26 0 19 -4 25 -15 20 -8 -3 -15 -1 -15 3 0 5 7 12 15 15 13
4 14 17 10 63 -5 39 -3 55 4 48 5 -5 12 -30 14 -55 l4 -45 49 0 c94 0 179 12
218 30 29 14 41 16 44 7 4 -14 32 -16 32 -2 0 6 7 10 15 10 8 0 15 -7 15 -15
0 -31 37 3 44 40 8 40 26 48 26 11 0 -19 5 -24 25 -22 14 0 28 8 30 17 5 16
44 33 53 24 3 -3 -1 -12 -8 -21 -12 -13 -11 -17 1 -25 20 -13 34 -6 37 20 3
18 6 20 18 10 8 -6 14 -18 14 -25 0 -27 18 -14 25 19 8 30 8 31 13 7 4 -23 5
-24 13 -5 7 18 8 18 8 -4 l1 -24 25 23 c21 19 25 21 25 7 0 -24 23 -21 39 4
10 18 15 19 21 8 7 -10 11 -8 18 11 l9 25 8 -24 7 -23 17 23 c15 23 40 31 51
17 3 -4 12 -3 19 1 11 7 11 26 1 110 -7 55 -16 101 -21 101 -5 0 -9 8 -9 18 0
14 2 15 10 2 9 -13 10 -13 10 0 -1 8 -7 24 -15 34 -8 11 -15 30 -15 44 0 13
-4 20 -10 17 -6 -3 -10 -15 -10 -26 0 -24 -9 -24 -27 -1 -12 15 -13 9 -8 -43
l5 -60 -15 45 c-8 26 -26 57 -40 70 -14 13 -25 32 -25 43 0 11 -3 18 -6 14 -4
-3 -20 8 -37 24 -23 23 -32 27 -38 17 -6 -8 -2 -18 9 -25 9 -7 27 -20 39 -29
19 -14 63 -84 63 -100 0 -3 -6 -4 -12 -3 -7 1 -21 -1 -31 -6 -17 -7 -17 -8 0
-27 16 -18 16 -19 -2 -12 -11 5 -16 4 -12 -3 7 -11 -22 -11 -41 1 -7 4 -12 2
-12 -6 0 -10 -2 -10 -9 1 -6 9 -10 10 -16 2 -3 -7 -15 -9 -25 -6 -12 4 -22 0
-28 -11 -8 -14 -11 -12 -20 15 -12 35 -42 43 -42 11 0 -25 -15 -26 -30 -2 -7
11 -13 13 -16 6 -7 -16 -84 -6 -108 15 -18 15 -19 15 -13 0 4 -12 -1 -18 -19
-22 -13 -2 -24 0 -24 6 0 6 -5 6 -12 -1 -8 -6 -52 -8 -113 -5 -55 3 -122 5
-150 6 l-50 2 0 38 c0 23 -5 37 -12 37 -7 0 -13 5 -13 10 0 6 7 10 15 10 8 0
15 5 15 10 0 6 -6 10 -14 10 -10 0 -15 25 -20 103 -3 56 -5 119 -3 140 1 20
-1 37 -5 37 -5 0 -9 -6 -9 -12z m8 -280 c-3 -7 -5 -2 -5 12 0 14 2 19 5 13 2
-7 2 -19 0 -25z m13 -58 c0 -11 -4 -20 -10 -20 -5 0 -10 9 -10 20 0 11 5 20
10 20 6 0 10 -9 10 -20z m2692 -2 c-6 -6 -15 -8 -19 -4 -4 4 -1 11 7 16 19 12
27 3 12 -12z m-5 -100 c-3 -8 -6 -5 -6 6 -1 11 2 17 5 13 3 -3 4 -12 1 -19z
m-10 -40 c-3 -8 -6 -5 -6 6 -1 11 2 17 5 13 3 -3 4 -12 1 -19z m95 -53 c-2
-14 -6 -25 -8 -25 -2 0 -4 11 -4 25 0 14 4 25 9 25 4 0 6 -11 3 -25z m-71 -25
l6 -35 2 38 c1 25 6 37 16 37 11 0 13 -8 8 -32 -3 -18 -10 -34 -15 -36 -4 -2
-8 -11 -8 -20 0 -9 -9 3 -20 27 -23 50 -25 62 -7 59 6 -2 15 -19 18 -38z m378
16 c9 -11 8 -15 -5 -20 -21 -8 -34 1 -27 19 7 19 17 19 32 1z m-409 -45 c0 -6
-4 -13 -10 -16 -5 -3 -10 1 -10 9 0 9 5 16 10 16 6 0 10 -4 10 -9z m441 -11
c75 0 58 -20 -18 -22 -142 -4 -155 -5 -162 -15 -38 -56 -40 -58 -56 -42 -9 9
-17 29 -18 45 l-2 29 90 0 c68 0 92 4 99 15 7 10 11 11 14 2 2 -7 23 -12 53
-12z m304 0 c-3 -5 -13 -10 -21 -10 -8 0 -12 5 -9 10 3 6 13 10 21 10 8 0 12
-4 9 -10z m-2900 -30 c-3 -5 -10 -10 -16 -10 -5 0 -9 5 -9 10 0 6 7 10 16 10
8 0 12 -4 9 -10z m-370 -10 c6 -2 -6 -6 -25 -9 -39 -8 -53 -4 -44 10 5 8 26 8
69 -1z m179 -32 c-7 -11 -54 -10 -54 1 0 5 13 9 30 9 16 -1 27 -5 24 -10z
m895 -383 c13 -14 27 -25 32 -25 4 0 6 -7 3 -15 -4 -9 0 -15 7 -15 11 0 11 -3
-1 -10 -21 -14 -33 -12 -27 4 7 18 -31 59 -48 52 -8 -3 -11 2 -8 15 7 25 13
24 42 -6z m755 -99 c-3 -8 -13 -12 -27 -8 -20 5 -20 6 -1 13 29 11 34 10 28
-5z m-1654 -252 c0 -8 -4 -12 -10 -9 -5 3 -10 10 -10 16 0 5 5 9 10 9 6 0 10
-7 10 -16z m1134 -49 c-4 -8 -8 -15 -10 -15 -2 0 -4 7 -4 15 0 8 4 15 10 15 5
0 7 -7 4 -15z m-1214 -9 c0 -9 -30 -14 -35 -6 -4 6 3 10 14 10 12 0 21 -2 21
-4z m-85 -16 c3 -5 2 -10 -4 -10 -5 0 -13 5 -16 10 -3 6 -2 10 4 10 5 0 13 -4
16 -10z m225 -65 c0 -8 -4 -15 -10 -15 -5 0 -7 7 -4 15 4 8 8 15 10 15 2 0 4
-7 4 -15z m1107 -7 c-3 -8 -6 -5 -6 6 -1 11 2 17 5 13 3 -3 4 -12 1 -19z
m-467 2 c0 -5 -5 -10 -11 -10 -5 0 -7 5 -4 10 3 6 8 10 11 10 2 0 4 -4 4 -10z
m1083 -24 c-10 -13 -19 -23 -21 -21 -5 5 22 45 31 45 4 0 0 -11 -10 -24z
m-1376 8 c-3 -3 -12 -4 -19 -1 -8 3 -5 6 6 6 11 1 17 -2 13 -5z m178 -4 c-3
-5 -15 -10 -26 -10 -10 0 -19 5 -19 10 0 6 12 10 26 10 14 0 23 -4 19 -10z
m996 -39 c-7 -5 -11 -13 -7 -19 3 -5 -1 -23 -9 -38 -8 -16 -15 -32 -15 -36 0
-5 86 -61 100 -64 3 0 13 -4 23 -8 29 -13 47 11 42 56 -5 52 2 70 26 63 12 -4
21 -1 25 9 3 9 11 16 16 16 12 0 6 -73 -7 -82 -6 -5 -5 -8 3 -8 6 0 12 -7 12
-16 0 -20 -59 -162 -70 -169 -5 -3 -19 5 -32 17 -13 13 -59 55 -102 93 -66 59
-152 162 -143 172 2 1 28 5 58 9 29 3 56 8 58 10 2 2 11 4 20 4 13 0 13 -2 2
-9z m-1764 -16 c0 -10 -7 -13 -24 -9 -13 4 -29 1 -36 -5 -9 -7 -24 -7 -50 0
-20 5 -37 11 -37 13 0 2 30 4 67 5 36 0 68 3 71 6 8 7 9 6 9 -10z m123 0 c17
-2 30 0 30 5 0 6 16 10 36 10 21 0 33 -4 29 -10 -3 -5 -1 -10 4 -10 6 0 11 -7
11 -15 0 -8 -6 -14 -12 -13 -7 2 -12 -3 -10 -9 3 -19 -19 -16 -34 5 -7 9 -16
17 -21 18 -4 0 -16 4 -25 8 -9 4 -25 3 -36 -3 -23 -12 -62 -3 -62 15 0 9 9 12
30 9 17 -3 44 -7 60 -10z m280 5 c0 -5 -14 -10 -31 -10 -17 0 -28 4 -24 10 3
6 17 10 31 10 13 0 24 -4 24 -10z m-280 -40 c0 -5 -7 -10 -15 -10 -8 0 -15 5
-15 10 0 6 7 10 15 10 8 0 15 -4 15 -10z m267 -36 c-3 -3 -12 -4 -19 -1 -8 3
-5 6 6 6 11 1 17 -2 13 -5z m-300 -16 c-4 -14 -46 -12 -61 3 -6 5 5 9 28 9 26
0 36 -4 33 -12z m158 -8 c-3 -5 -11 -10 -16 -10 -6 0 -7 5 -4 10 3 6 11 10 16
10 6 0 7 -4 4 -10z m-360 -239 c7 -12 -12 -24 -25 -16 -11 7 -4 25 10 25 5 0
11 -4 15 -9z m503 -45 c-9 -6 -40 -9 -74 -7 -45 3 -52 6 -30 10 17 3 50 6 74
7 35 1 41 -2 30 -10z m1373 -117 c-10 -23 -10 -23 -10 7 -1 17 2 34 7 38 11
12 14 -18 3 -45z m-1626 31 c3 -5 1 -10 -4 -10 -6 0 -11 5 -11 10 0 6 2 10 4
10 3 0 8 -4 11 -10z m170 -80 c3 -5 -3 -10 -14 -10 -11 0 -23 5 -26 10 -3 6 3
10 14 10 11 0 23 -4 26 -10z"/>
<path d="M470 2166 c0 -9 5 -16 10 -16 6 0 10 4 10 9 0 6 -4 13 -10 16 -5 3
-10 -1 -10 -9z"/>
<path d="M862 2168 c-7 -9 -6 -17 4 -26 12 -11 14 -9 14 13 0 28 -3 30 -18 13z"/>
<path d="M1382 2163 c-15 -6 -6 -23 12 -23 7 0 13 7 13 15 0 16 -4 17 -25 8z"/>
<path d="M911 2091 c13 -38 18 -39 16 -4 -1 14 -8 28 -14 30 -10 4 -10 -3 -2
-26z"/>
<path d="M923 1990 c0 -36 2 -50 4 -32 2 17 2 47 0 65 -2 17 -4 3 -4 -33z"/>
<path d="M667 2010 c17 -16 53 -22 53 -8 0 8 -13 13 -31 14 -16 1 -27 -2 -22
-6z"/>
<path d="M882 1960 c0 -14 2 -19 5 -12 2 6 2 18 0 25 -3 6 -5 1 -5 -13z"/>
<path d="M381 1934 c0 -11 3 -14 6 -6 3 7 2 16 -1 19 -3 4 -6 -2 -5 -13z"/>
<path d="M3930 1840 c0 -19 -7 -33 -20 -40 -11 -6 -20 -17 -20 -25 0 -8 -4
-15 -10 -15 -5 0 -10 9 -10 20 0 13 -7 20 -19 20 -16 0 -21 -10 -26 -57 -3
-32 -10 -68 -15 -80 -6 -15 -6 -23 0 -23 6 0 10 -9 10 -21 0 -18 5 -20 43 -17
39 3 42 5 45 36 2 23 8 32 22 32 14 0 18 -7 17 -27 -1 -20 5 -30 23 -40 23
-12 21 -13 -32 -13 -87 0 -106 -10 -103 -57 1 -21 3 -41 4 -45 0 -4 27 -9 59
-13 31 -3 67 -8 80 -11 l22 -4 0 179 c0 140 -3 179 -13 176 -7 -3 -18 8 -25
25 -17 38 -32 38 -32 0z"/>
<path d="M727 1835 c-3 -7 1 -16 8 -19 20 -7 26 6 10 21 -10 10 -14 9 -18 -2z"/>
<path d="M3460 1740 c0 -5 5 -10 10 -10 6 0 10 5 10 10 0 6 -4 10 -10 10 -5 0
-10 -4 -10 -10z"/>
<path d="M2940 1730 c0 -5 9 -10 20 -10 11 0 20 5 20 10 0 6 -9 10 -20 10 -11
0 -20 -4 -20 -10z"/>
<path d="M3591 1714 c0 -11 3 -14 6 -6 3 7 2 16 -1 19 -3 4 -6 -2 -5 -13z"/>
<path d="M3700 1661 c0 -12 5 -21 10 -21 6 0 10 6 10 14 0 8 -4 18 -10 21 -5
3 -10 -3 -10 -14z"/>
<path d="M3735 1630 c3 -5 8 -10 11 -10 2 0 4 5 4 10 0 6 -5 10 -11 10 -5 0
-7 -4 -4 -10z"/>
<path d="M3766 1603 c-6 -14 -5 -15 5 -6 7 7 10 15 7 18 -3 3 -9 -2 -12 -12z"/>
<path d="M360 1425 c0 -14 5 -25 10 -25 6 0 10 11 10 25 0 14 -4 25 -10 25 -5
0 -10 -11 -10 -25z"/>
<path d="M250 1351 c0 -11 -3 -27 -6 -36 -6 -14 -1 -16 27 -13 39 4 52 32 19
43 -11 3 -18 11 -15 16 4 5 -1 9 -9 9 -9 0 -16 -8 -16 -19z"/>
<path d="M1420 1313 c1 -11 50 -46 50 -35 0 10 -33 42 -43 42 -4 0 -7 -3 -7
-7z"/>
<path d="M908 883 c7 -3 16 -2 19 1 4 3 -2 6 -13 5 -11 0 -14 -3 -6 -6z"/>
<path d="M1425 820 c-3 -5 -1 -10 4 -10 6 0 11 5 11 10 0 6 -2 10 -4 10 -3 0
-8 -4 -11 -10z"/>
<path d="M880 760 c0 -5 4 -10 9 -10 6 0 13 5 16 10 3 6 -1 10 -9 10 -9 0 -16
-4 -16 -10z"/>
<path d="M838 753 c6 -2 18 -2 25 0 6 3 1 5 -13 5 -14 0 -19 -2 -12 -5z"/>
<path d="M1070 703 c0 -13 5 -23 10 -23 13 0 13 11 0 30 -8 12 -10 11 -10 -7z"/>
<path d="M240 170 c0 -5 5 -10 11 -10 5 0 7 5 4 10 -3 6 -8 10 -11 10 -2 0 -4
-4 -4 -10z"/>
<path d="M123 113 c-42 -4 -72 -30 -55 -48 4 -4 -10 -5 -30 -1 -31 6 -38 4
-38 -10 0 -13 6 -15 38 -9 20 4 44 13 52 21 9 7 30 14 47 16 23 1 29 6 25 18
-4 12 -2 13 9 3 16 -16 65 -17 75 -2 5 9 -1 10 -20 5 -15 -4 -26 -2 -26 4 0 5
-8 9 -17 8 -10 -1 -37 -3 -60 -5z"/>
<path d="M120 50 c0 -5 7 -10 15 -10 8 0 15 5 15 10 0 6 -7 10 -15 10 -8 0
-15 -4 -15 -10z"/>
</g>
</svg>
