<?xml version="1.0" encoding="utf-8"?>
<!-- Generator: Adobe Illustrator 16.0.0, SVG Export Plug-In . SVG Version: 6.00 Build 0)  -->
<!DOCTYPE svg PUBLIC "-//W3C//DTD SVG 1.1//EN" "http://www.w3.org/Graphics/SVG/1.1/DTD/svg11.dtd">
<svg version="1.1" id="Layer_1" xmlns="http://www.w3.org/2000/svg" xmlns:xlink="http://www.w3.org/1999/xlink" x="0px" y="0px"
	 width="800px" height="369.58px" viewBox="-200.871 8.012 800 369.58" enable-background="new -200.871 8.012 800 369.58"
	 xml:space="preserve">
<g id="Layer_7">
	<g>
		<path fill="#008299" d="M531.311,167.793h-40.319c-7.15,0-12.946-5.862-12.946-13.097V70.003c0-7.234,5.796-13.096,12.946-13.096
			h40.197c7.151,0,12.946,5.862,12.946,13.096v84.693C544.135,161.931,538.34,167.793,531.311,167.793z"/>
		<rect x="480.509" y="71.125" fill="#DDF5FF" width="61.408" height="81.077"/>
		<ellipse fill="#DDF5FF" cx="511.09" cy="160.06" rx="5.672" ry="5.737"/>
	</g>
	<path fill="#008C9E" d="M267.44,376.843H100.979c-7.522,0-13.687-6.236-13.687-13.846V21.857c0-7.609,6.165-13.846,13.687-13.846
		H267.44c7.521,0,13.686,6.237,13.686,13.846v341.14C281.126,370.731,274.961,376.843,267.44,376.843z"/>
	<g>
		<line fill="none" x1="457.575" y1="120.52" x2="319.35" y2="120.52"/>
		<g>
			
				<line fill="none" stroke="#FAAE24" stroke-width="7" stroke-linecap="round" stroke-miterlimit="10" x1="426.626" y1="120.52" x2="350.301" y2="120.52"/>
			<g>
				<polygon fill="#FAAE24" points="420.337,98.692 457.575,120.52 420.337,142.348 				"/>
			</g>
			<g>
				<polygon fill="#FAAE24" points="356.589,98.692 319.35,120.52 356.589,142.348 				"/>
			</g>
		</g>
	</g>
	<g>
		<path fill="#FAAE24" d="M288.033,186.877h-21.826c-5.425,0-9.741-4.366-9.741-9.854V56.158c0-5.488,4.316-9.854,9.741-9.854
			h21.826c5.424,0,9.74,4.365,9.74,9.854v120.74C297.772,182.387,293.333,186.877,288.033,186.877z"/>
		<g>
			<path fill="#FFFFFF" d="M282.113,173.53v-0.748c0-0.374-0.124-0.499-0.493-0.499l-13.563-1.123v-2.37l8.508-3.867
				c0.863-0.374,1.974-0.748,1.974-0.748l0,0c0,0-1.111-0.374-1.974-0.749l-8.508-3.866v-2.371l13.563-1.122
				c0.37,0,0.493-0.125,0.493-0.499v-0.749h1.973v1.996c0,0.998-0.37,1.372-1.48,1.497l-8.506,0.624c-0.988,0.124-2.343,0-2.343,0
				l0,0c0,0,1.479,0.499,2.343,0.873l7.027,3.243v1.871l-7.027,3.244c-0.863,0.375-2.343,0.873-2.343,0.873l0,0c0,0,1.479,0,2.343,0
				l8.506,0.624c0.988,0.125,1.48,0.375,1.48,1.497v1.996h-1.973V173.53z"/>
			<path fill="#FFFFFF" d="M272.248,147.212c0-3.493,2.468-6.237,6.042-6.237c3.453,0,6.043,2.744,6.043,6.237
				c0,3.492-2.59,6.236-6.043,6.236C274.839,153.449,272.248,150.705,272.248,147.212z M282.36,147.212
				c0-2.246-1.726-3.991-4.07-3.991c-2.343,0-4.069,1.746-4.069,3.991c0,2.121,1.726,3.992,4.069,3.992
				C280.634,151.204,282.36,149.457,282.36,147.212z"/>
			<path fill="#FFFFFF" d="M270.399,138.481c-0.37,0-0.494,0.125-0.494,0.499v0.998h-1.85v-2.245c0-0.999,0.37-1.498,1.48-1.498
				h3.699c0.493,0,0.986,0,0.986,0l0,0c0,0-1.85-0.998-1.85-3.742c0-3.119,2.467-5.114,6.042-5.114c3.699,0,6.042,2.246,6.042,5.239
				c0,2.619-1.974,3.617-1.974,3.617l0,0c0,0,0.371,0,0.863,0h0.74v2.12h-13.686V138.481z M282.36,132.993
				c0-1.871-1.48-3.368-4.07-3.368c-2.466,0-4.069,1.372-4.069,3.243c0,1.746,1.233,3.368,4.069,3.368
				C280.386,136.361,282.36,135.238,282.36,132.993z"/>
			<path fill="#FFFFFF" d="M268.056,124.511v-1.995h2.343v1.995H268.056z M274.961,124.511c-0.371,0-0.494,0.125-0.494,0.5v0.997
				h-1.85v-2.121c0-0.997,0.37-1.497,1.48-1.497h7.644c0.37,0,0.494-0.125,0.494-0.499v-0.999h1.849v2.121
				c0,0.999-0.37,1.497-1.48,1.497H274.961z"/>
			<path fill="#FFFFFF" d="M270.399,118.399c-0.37,0-0.494,0.125-0.494,0.499v0.998h-1.85v-2.245c0-0.998,0.37-1.497,1.48-1.497
				h12.206c0.37,0,0.494-0.125,0.494-0.499v-0.998h1.849v2.246c0,0.998-0.37,1.497-1.48,1.497H270.399z"/>
			<path fill="#FFFFFF" d="M272.248,107.423c0-3.243,2.468-4.989,5.427-4.989c0.246,0,0.863,0.124,0.863,0.124v8.482
				c2.465-0.124,3.822-1.871,3.822-3.991c0-1.995-1.356-3.368-1.356-3.368l1.602-0.998c0,0,1.728,1.746,1.728,4.491
				c0,3.617-2.59,6.236-6.043,6.236C274.591,113.286,272.248,110.791,272.248,107.423z M276.935,104.804
				c-1.851,0.125-2.959,1.247-2.959,2.744c0,1.747,0.986,3.119,2.959,3.369V104.804z"/>
			<path fill="#FFFFFF" d="M282.113,94.949v-0.373c0-0.375-0.124-0.625-0.493-0.749l-13.563-5.114v-2.37l13.563-5.113
				c0.37-0.125,0.493-0.375,0.493-0.749v-0.375h1.973v1.247c0,1.123-0.246,1.497-1.355,1.871l-3.33,1.247v6.112l3.33,1.248
				c0.985,0.374,1.355,0.749,1.355,1.871v1.247H282.113z M277.55,85.221l-4.932,1.746c-0.862,0.25-2.219,0.624-2.219,0.624l0,0
				c0,0,1.356,0.375,2.219,0.623l4.932,1.747V85.221z"/>
			<path fill="#FFFFFF" d="M269.906,77.612v1.497h-1.973V72c0-2.994,1.973-5.114,5.055-5.114c3.083,0,5.056,2.121,5.056,5.114v3.368
				h5.919v2.245H269.906z M276.195,72.374c0-1.871-1.233-3.119-3.084-3.119c-1.971,0-3.081,1.123-3.081,2.994v2.994h6.166V72.374z"
				/>
			<path fill="#FFFFFF" d="M282.113,65.513v-1.622h-12.083v1.622h-1.973V60.15h1.973v1.622h12.083V60.15h1.973v5.363H282.113z"/>
		</g>
	</g>
	<g>
		<path fill="#DDF5FF" d="M101.595,36.825h0.37c0.494,0,0.616-0.125,0.74-0.499l5.425-14.718h2.59l5.425,14.718
			c0.123,0.499,0.37,0.499,0.74,0.499h0.37v2.121h-1.356c-1.233,0-1.603-0.25-1.973-1.373l-1.233-3.617h-6.412l-1.233,3.617
			c-0.37,1.123-0.739,1.373-1.973,1.373h-1.356v-2.121H101.595z M111.953,31.96l-1.85-5.239c-0.37-0.874-0.74-2.37-0.74-2.37l0,0
			c0,0-0.371,1.497-0.617,2.37l-1.85,5.239H111.953z"/>
		<path fill="#DDF5FF" d="M119.968,23.729h-1.604v-2.121h7.521c3.083,0,5.302,2.121,5.302,5.363s-2.22,5.488-5.302,5.488h-3.576
			v6.361h-2.466V23.729H119.968z M125.517,30.464c1.973,0,3.206-1.248,3.206-3.368c0-2.12-1.233-3.367-3.206-3.367h-3.206v6.735
			H125.517z"/>
		<path fill="#DDF5FF" d="M132.915,36.825h1.727V23.729h-1.727v-2.121h5.672v2.121h-1.726v13.097h1.726v2.121h-5.672V36.825z"/>
		<path fill="#DDF5FF" d="M155.603,21.358c4.068,0,6.165,2.12,6.165,2.12l-1.355,1.747c0,0-1.85-1.622-4.686-1.622
			c-3.452,0-6.166,2.745-6.166,6.611c0,3.992,2.713,6.735,6.166,6.735c3.083,0,4.932-2.12,4.932-2.12v-1.747
			c0-0.374-0.246-0.5-0.493-0.5h-0.987v-2.12h2.22c1.109,0,1.603,0.499,1.603,1.621v6.985h-2.096v-1.122c0-0.375,0-0.749,0-0.749
			l0,0c0,0-1.973,2.121-5.302,2.121c-4.562,0-8.385-3.618-8.385-8.981C146.971,25.225,150.671,21.358,155.603,21.358z"/>
		<path fill="#DDF5FF" d="M172.495,31.212h0.494v-0.125c0-2.245-0.741-2.993-2.713-2.993c-0.617,0-1.973,0.125-1.973,0.998v0.748
			h-2.22v-1.247c0-1.996,3.083-2.37,4.193-2.37c3.945,0,5.055,2.121,5.055,4.864v5.239c0,0.374,0.247,0.499,0.493,0.499h0.987v1.995
			h-2.22c-1.109,0-1.479-0.499-1.479-1.371c0-0.375,0-0.749,0-0.749l0,0c0,0-0.986,2.495-3.946,2.495
			c-2.096,0-4.192-1.247-4.192-3.742C165.097,31.462,170.399,31.212,172.495,31.212z M169.783,37.324
			c1.973,0,3.329-2.12,3.329-3.992v-0.374h-0.617c-1.726,0-4.932,0.125-4.932,2.37C167.44,36.451,168.18,37.324,169.783,37.324z"/>
		<path fill="#DDF5FF" d="M179.524,28.468h-1.604v-1.872h1.604v-3.368h2.342v3.368h2.959v1.872h-2.959v5.737
			c0,2.495,1.727,2.744,2.59,2.744c0.37,0,0.616,0,0.616,0v2.121c0,0-0.37,0-0.863,0c-1.603,0-4.686-0.499-4.686-4.615V28.468z"/>
		<path fill="#DDF5FF" d="M192.718,26.223c3.453,0,5.301,2.619,5.301,5.862c0,0.375-0.123,0.998-0.123,0.998h-9.001
			c0.124,2.619,2.097,4.116,4.191,4.116c2.097,0,3.577-1.497,3.577-1.497l0.987,1.747c0,0-1.85,1.871-4.687,1.871
			c-3.821,0-6.535-2.869-6.535-6.486C186.551,28.842,189.265,26.223,192.718,26.223z M195.554,31.336
			c-0.124-2.12-1.357-3.118-2.836-3.118c-1.85,0-3.207,1.123-3.576,3.118H195.554z"/>
		<path fill="#DDF5FF" d="M200.362,29.092c-0.124-0.375-0.37-0.499-0.741-0.499h-0.369v-1.996h1.48c1.109,0,1.48,0.25,1.849,1.372
			l2.22,7.359c0.248,0.624,0.248,1.372,0.248,1.372l0,0c0,0,0.123-0.748,0.369-1.372l2.59-8.606h2.219l2.711,8.606
			c0.248,0.624,0.371,1.372,0.371,1.372l0,0c0,0,0.124-0.748,0.246-1.372l2.219-7.359c0.371-0.998,0.74-1.372,1.851-1.372h1.479
			v1.996h-0.371c-0.369,0-0.617,0.125-0.739,0.499l-3.206,9.854h-2.59l-2.588-7.983c-0.247-0.625-0.371-1.373-0.371-1.373l0,0
			c0,0-0.123,0.748-0.369,1.373l-2.465,7.983h-2.713L200.362,29.092z"/>
		<path fill="#DDF5FF" d="M227.489,31.212h0.493v-0.125c0-2.245-0.739-2.993-2.713-2.993c-0.616,0-1.973,0.125-1.973,0.998v0.748
			h-2.219v-1.247c0-1.996,3.083-2.37,4.192-2.37c3.947,0,5.056,2.121,5.056,4.864v5.239c0,0.374,0.247,0.499,0.494,0.499h0.986
			v1.995h-2.22c-1.109,0-1.479-0.499-1.479-1.371c0-0.375,0-0.749,0-0.749l0,0c0,0-0.986,2.495-3.945,2.495
			c-2.097,0-4.193-1.247-4.193-3.742C220.091,31.462,225.393,31.212,227.489,31.212z M224.777,37.324
			c1.971,0,3.328-2.12,3.328-3.992v-0.374h-0.616c-1.727,0-4.932,0.125-4.932,2.37C222.433,36.451,223.297,37.324,224.777,37.324z"
			/>
		<path fill="#DDF5FF" d="M235.01,42.064c0.987,0,1.728-0.749,2.221-1.747l0.615-1.371l-4.191-9.854
			c-0.125-0.375-0.371-0.499-0.74-0.499h-0.248v-1.996h1.356c0.986,0,1.357,0.25,1.726,1.248l2.836,6.985
			c0.248,0.623,0.494,1.497,0.494,1.497l0,0c0,0,0.123-0.874,0.369-1.497l2.59-6.985c0.369-0.999,0.862-1.248,1.85-1.248h1.355
			v1.996h-0.369c-0.371,0-0.617,0.125-0.74,0.499l-4.81,12.099c-0.74,1.871-2.219,2.869-3.945,2.869
			c-1.85,0-2.836-1.248-2.836-1.248l0.986-1.747C233.284,41.19,234.024,42.064,235.01,42.064z"/>
	</g>
	<g>
		<path fill="#FAAE24" d="M288.033,360.004h-21.826c-5.425,0-9.741-4.366-9.741-9.854V216.063c0-5.488,4.316-9.854,9.741-9.854
			h21.826c5.424,0,9.74,4.366,9.74,9.854v134.087C297.772,355.514,293.333,360.004,288.033,360.004z"/>
		<g>
			<path fill="#FFFFFF" d="M269.906,345.66v1.497h-1.973v-6.611c0-4.99,2.959-8.232,8.014-8.232c5.057,0,8.016,3.242,8.016,8.232
				v3.617c0,0.998-0.369,1.497-1.48,1.497H269.906z M282.113,342.791v-2.121c0-3.617-2.096-5.987-6.042-5.987
				c-3.946,0-6.042,2.37-6.042,5.987v2.62h11.59C281.866,343.291,282.113,343.166,282.113,342.791z"/>
			<path fill="#FFFFFF" d="M272.248,324.83c0-3.244,2.468-4.989,5.427-4.989c0.246,0,0.863,0.125,0.863,0.125v8.482
				c2.465-0.124,3.822-1.871,3.822-3.992c0-1.995-1.356-3.367-1.356-3.367l1.602-0.999c0,0,1.728,1.747,1.728,4.49
				c0,3.618-2.59,6.237-6.043,6.237C274.591,330.693,272.248,328.073,272.248,324.83z M276.935,322.086
				c-1.851,0.124-2.959,1.248-2.959,2.744c0,1.746,0.986,3.118,2.959,3.367V322.086z"/>
			<path fill="#FFFFFF" d="M280.757,316.972c0,0,1.726-1.372,1.726-3.492c0-1.124-0.493-1.996-1.479-1.996
				c-2.096,0-1.85,6.36-5.549,6.36c-2.219,0-3.207-1.995-3.207-4.364c0-1.372,0.494-3.868,2.22-3.868h1.111v1.996h-0.617
				c-0.74,0-0.986,0.997-0.986,1.746c0,1.248,0.492,2.12,1.355,2.12c2.219,0,1.727-6.36,5.548-6.36c2.097,0,3.33,1.871,3.33,4.24
				c0,3.119-1.972,4.616-1.972,4.616L280.757,316.972z"/>
			<path fill="#FFFFFF" d="M270.399,306.494c-0.37,0-0.494,0.125-0.494,0.5v0.997h-1.85v-2.245c0-0.998,0.247-1.497,1.356-1.497
				h7.397v-0.997c0-0.375-0.123-0.873-0.493-1.248l-3.699-2.745v-2.494l4.317,3.118c0.74,0.499,0.862,0.873,0.862,0.873l0,0
				c0,0,0.124-0.374,0.863-0.749l3.082-1.746c0.37-0.125,0.494-0.374,0.494-0.998v-0.748h1.849v1.621
				c0,1.122-0.123,1.373-1.109,1.871l-3.822,2.121c-0.371,0.25-0.493,0.749-0.493,1.124v0.873h5.425v2.246h-13.686V306.494z"/>
			<path fill="#FFFFFF" d="M274.345,294.271v1.497h-1.727v-1.622h-3.206v-2.121h3.206v-2.744h1.727v2.744h5.301
				c2.343,0,2.59-1.623,2.59-2.496c0-0.374,0-0.498,0-0.498h1.972c0,0,0,0.249,0,0.749c0,1.497-0.493,4.49-4.315,4.49H274.345
				L274.345,294.271z"/>
			<path fill="#FFFFFF" d="M272.248,281.423c0-3.491,2.468-6.236,6.042-6.236c3.453,0,6.043,2.745,6.043,6.236
				c0,3.493-2.59,6.237-6.043,6.237C274.839,287.66,272.248,284.916,272.248,281.423z M282.36,281.423
				c0-2.245-1.726-3.991-4.07-3.991c-2.343,0-4.069,1.746-4.069,3.991c0,2.121,1.726,3.993,4.069,3.993
				C280.634,285.416,282.36,283.544,282.36,281.423z"/>
			<path fill="#FFFFFF" d="M274.961,272.318c-0.371,0-0.494,0.124-0.494,0.499v0.998h-1.85v-2.121c0-0.998,0.37-1.372,1.11-1.372
				c0.371,0,0.617,0,0.617,0l0,0c0,0-2.097-0.997-2.097-3.866c0-3.118,2.468-5.114,6.042-5.114c3.699,0,6.043,2.245,6.043,5.238
				c0,2.62-1.851,3.618-1.851,3.618l0,0c0,0,0.371,0,0.987,0h5.055v2.245h-13.563V272.318z M282.36,266.955
				c0-1.872-1.48-3.368-4.07-3.368c-2.466,0-4.069,1.372-4.069,3.244c0,1.746,1.233,3.367,4.069,3.367
				C280.386,270.197,282.36,269.076,282.36,266.955z"/>
			<path fill="#FFFFFF" d="M282.113,253.982v-0.374c0-0.375-0.124-0.624-0.493-0.749l-13.563-5.114v-2.37l13.563-5.114
				c0.37-0.125,0.493-0.375,0.493-0.748v-0.375h1.973v1.248c0,1.123-0.246,1.497-1.355,1.872l-3.33,1.246v5.987l3.33,1.248
				c0.985,0.375,1.355,0.749,1.355,1.872v1.247h-1.973V253.982z M277.55,244.253L272.618,246c-0.862,0.25-2.219,0.624-2.219,0.624
				l0,0c0,0,1.356,0.374,2.219,0.623l4.932,1.747V244.253z"/>
			<path fill="#FFFFFF" d="M269.906,236.645v1.497h-1.973v-7.109c0-2.993,1.973-5.114,5.055-5.114c3.083,0,5.056,2.119,5.056,5.114
				v3.367h5.919v2.246H269.906z M276.195,231.406c0-1.871-1.233-3.118-3.084-3.118c-1.971,0-3.081,1.122-3.081,2.993v2.994h6.166
				V231.406z"/>
			<path fill="#FFFFFF" d="M282.113,224.422V222.8h-12.083v1.622h-1.973v-5.364h1.973v1.621h12.083v-1.621h1.973v5.364H282.113z"/>
		</g>
	</g>
	<g>
		<path fill="#008C9E" d="M-35.766,85.096h-151.417c-7.522,0-13.688-6.237-13.688-13.845v-46.65c0-7.609,6.166-13.845,13.688-13.845
			h151.417c7.522,0,13.687,6.236,13.687,13.845v46.524C-22.08,78.859-28.121,85.096-35.766,85.096z"/>
		<g>
			<path fill="#DDF5FF" d="M-184.471,37.698c0,0,1.726,2.12,4.316,2.12c1.603,0,2.959-0.998,2.959-2.62
				c0-3.617-8.262-3.117-8.262-8.481c0-2.62,2.219-4.615,5.425-4.615c1.849,0,4.932,0.873,4.932,3.242v1.373h-2.219v-0.749
				c0-0.873-1.232-1.621-2.589-1.621c-1.85,0-2.959,0.997-2.959,2.37c0,3.493,8.262,2.745,8.262,8.481
				c0,2.62-2.097,4.989-5.426,4.989c-3.699,0-5.671-2.619-5.671-2.619L-184.471,37.698z"/>
			<path fill="#DDF5FF" d="M-166.592,28.967c3.453,0,5.302,2.62,5.302,5.863c0,0.374-0.124,0.998-0.124,0.998h-9.001
				c0.124,2.619,2.096,4.116,4.193,4.116c2.096,0,3.575-1.497,3.575-1.497l0.987,1.747c0,0-1.85,1.871-4.686,1.871
				c-3.822,0-6.534-2.869-6.534-6.486C-172.757,31.586-170.044,28.967-166.592,28.967z M-163.756,34.082
				c-0.123-2.121-1.355-3.119-2.835-3.119c-1.85,0-3.206,1.122-3.576,3.119H-163.756z"/>
			<path fill="#DDF5FF" d="M-158.207,31.835c0-0.374-0.247-0.499-0.495-0.499h-0.986v-1.995h2.22c1.109,0,1.602,0.499,1.602,1.497
				v0.749c0,0.499,0,0.873,0,0.873l0,0c0.617-1.871,1.973-3.243,3.823-3.243c0.37,0,0.617,0,0.617,0v2.37c0,0-0.37-0.125-0.74-0.125
				c-1.479,0-2.836,1.122-3.453,2.868c-0.247,0.749-0.247,1.497-0.247,2.245v5.114h-2.342V31.835z"/>
			<path fill="#DDF5FF" d="M-149.207,31.835c-0.123-0.374-0.369-0.499-0.739-0.499h-0.247v-1.995h1.234
				c1.109,0,1.48,0.249,1.849,1.247l2.589,7.11c0.247,0.748,0.493,1.622,0.493,1.622l0,0c0,0,0.247-0.874,0.494-1.622l2.589-7.11
				c0.37-0.998,0.74-1.247,1.85-1.247h1.11v1.995h-0.248c-0.369,0-0.616,0.125-0.862,0.499l-3.7,9.854h-2.712L-149.207,31.835z"/>
			<path fill="#DDF5FF" d="M-135.396,31.835c0-0.374-0.247-0.499-0.493-0.499h-0.986v-1.995h2.343c1.11,0,1.603,0.499,1.603,1.622
				v8.232c0,0.374,0.247,0.499,0.493,0.499h0.986v1.996h-2.343c-1.11,0-1.603-0.499-1.603-1.622V31.835z M-135.396,24.352h2.096
				v2.495h-2.096V24.352z"/>
			<path fill="#DDF5FF" d="M-123.435,28.967c1.479,0,4.438,0.624,4.438,2.744v1.248h-2.095V32.21c0-0.874-1.356-1.248-2.343-1.248
				c-2.343,0-4.192,1.871-4.192,4.49c0,2.869,2.096,4.366,4.315,4.366c2.343,0,3.822-1.747,3.822-1.747l0.987,1.747
				c0,0-1.727,2.121-5.056,2.121c-3.822,0-6.535-2.744-6.535-6.486C-130.094,31.835-127.381,28.967-123.435,28.967z"/>
			<path fill="#DDF5FF" d="M-110.982,28.967c3.454,0,5.303,2.62,5.303,5.863c0,0.374-0.124,0.998-0.124,0.998h-9.001
				c0.123,2.619,2.096,4.116,4.192,4.116c2.096,0,3.576-1.497,3.576-1.497l0.987,1.747c0,0-1.85,1.871-4.686,1.871
				c-3.823,0-6.535-2.869-6.535-6.486C-117.147,31.586-114.434,28.967-110.982,28.967z M-108.146,34.082
				c-0.123-2.121-1.357-3.119-2.836-3.119c-1.85,0-3.207,1.122-3.576,3.119H-108.146z"/>
			<path fill="#DDF5FF" d="M-97.788,39.569h0.369c0.493,0,0.617-0.125,0.74-0.499l5.426-14.718h2.589l5.426,14.718
				c0.123,0.499,0.37,0.499,0.74,0.499h0.37v2.121h-1.479c-1.233,0-1.604-0.25-1.973-1.373l-1.232-3.617h-6.289l-1.233,3.617
				c-0.369,1.123-0.74,1.373-1.973,1.373h-1.357v-2.121H-97.788z M-87.431,34.705l-1.85-5.239c-0.37-0.873-0.74-2.37-0.74-2.37l0,0
				c0,0-0.37,1.497-0.616,2.37l-1.85,5.239H-87.431z"/>
		</g>
	</g>
	<g>
		<path fill="#008C9E" d="M-35.766,231.281h-151.417c-7.522,0-13.688-6.237-13.688-13.845v-46.525
			c0-7.608,6.166-13.845,13.688-13.845h151.417c7.522,0,13.687,6.237,13.687,13.845v46.525
			C-22.08,225.044-28.121,231.281-35.766,231.281z"/>
		<g>
			<path fill="#DDF5FF" d="M-184.471,183.759c0,0,1.726,2.12,4.316,2.12c1.603,0,2.959-0.997,2.959-2.619
				c0-3.617-8.262-3.118-8.262-8.481c0-2.62,2.219-4.616,5.425-4.616c1.849,0,4.932,0.873,4.932,3.244v1.372h-2.219v-0.748
				c0-0.874-1.232-1.622-2.589-1.622c-1.85,0-2.959,0.998-2.959,2.37c0,3.492,8.262,2.744,8.262,8.481
				c0,2.619-2.097,4.99-5.426,4.99c-3.699,0-5.671-2.62-5.671-2.62L-184.471,183.759z"/>
			<path fill="#DDF5FF" d="M-166.592,175.152c3.453,0,5.302,2.62,5.302,5.862c0,0.375-0.124,0.999-0.124,0.999h-9.001
				c0.124,2.619,2.096,4.116,4.193,4.116c2.096,0,3.575-1.497,3.575-1.497l0.987,1.747c0,0-1.85,1.871-4.686,1.871
				c-3.822,0-6.534-2.869-6.534-6.487C-172.757,177.646-170.044,175.152-166.592,175.152z M-163.756,180.142
				c-0.123-2.121-1.355-3.118-2.835-3.118c-1.85,0-3.206,1.123-3.576,3.118H-163.756z"/>
			<path fill="#DDF5FF" d="M-158.207,178.021c0-0.375-0.247-0.499-0.495-0.499h-0.986v-2.121h2.22c1.109,0,1.602,0.5,1.602,1.497
				v0.749c0,0.5,0,0.874,0,0.874l0,0c0.617-1.871,1.973-3.243,3.823-3.243c0.37,0,0.617,0,0.617,0v2.369c0,0-0.37-0.125-0.74-0.125
				c-1.479,0-2.836,1.123-3.453,2.869c-0.247,0.749-0.247,1.497-0.247,2.245v5.113h-2.342V178.021z"/>
			<path fill="#DDF5FF" d="M-149.207,177.896c-0.123-0.375-0.369-0.499-0.739-0.499h-0.247v-1.996h1.234
				c1.109,0,1.48,0.25,1.849,1.248l2.589,7.11c0.247,0.749,0.493,1.622,0.493,1.622l0,0c0,0,0.247-0.873,0.494-1.622l2.589-7.11
				c0.37-0.998,0.74-1.248,1.85-1.248h1.11v1.996h-0.248c-0.369,0-0.616,0.125-0.862,0.499l-3.7,9.853h-2.712L-149.207,177.896z"/>
			<path fill="#DDF5FF" d="M-135.396,178.021c0-0.375-0.247-0.499-0.493-0.499h-0.986v-2.121h2.343c1.11,0,1.603,0.5,1.603,1.622
				v8.232c0,0.375,0.247,0.499,0.493,0.499h0.986v1.995h-2.343c-1.11,0-1.603-0.499-1.603-1.621V178.021z M-135.396,170.537h2.096
				v2.495h-2.096V170.537z"/>
			<path fill="#DDF5FF" d="M-123.435,175.152c1.479,0,4.438,0.624,4.438,2.744v1.247h-2.095v-0.749c0-0.873-1.356-1.247-2.343-1.247
				c-2.343,0-4.192,1.871-4.192,4.49c0,2.869,2.096,4.366,4.315,4.366c2.343,0,3.822-1.746,3.822-1.746l0.987,1.746
				c0,0-1.727,2.121-5.056,2.121c-3.822,0-6.535-2.744-6.535-6.486C-130.094,178.021-127.381,175.152-123.435,175.152z"/>
			<path fill="#DDF5FF" d="M-110.982,175.152c3.454,0,5.303,2.62,5.303,5.862c0,0.375-0.124,0.999-0.124,0.999h-9.001
				c0.123,2.619,2.096,4.116,4.192,4.116c2.096,0,3.576-1.497,3.576-1.497l0.987,1.747c0,0-1.85,1.871-4.686,1.871
				c-3.823,0-6.535-2.869-6.535-6.487C-117.147,177.646-114.434,175.152-110.982,175.152z M-108.146,180.142
				c-0.123-2.121-1.357-3.118-2.836-3.118c-1.85,0-3.207,1.123-3.576,3.118H-108.146z"/>
			<path fill="#DDF5FF" d="M-95.569,172.658h-1.603v-2.121h7.275c2.835,0,4.932,1.622,4.932,4.366c0,1.871-0.987,3.118-2.097,3.742
				l0,0c1.85,0.499,2.836,2.245,2.836,4.24c0,3.243-2.466,4.99-5.549,4.99h-4.316c-1.11,0-1.603-0.499-1.603-1.622v-13.595H-95.569z
				 M-89.773,177.772c1.48,0,2.466-1.123,2.466-2.62c0-1.497-0.863-2.494-2.466-2.494h-3.329v5.239h3.329V177.772z M-92.609,185.754
				h3.083c1.85,0,2.835-1.123,2.835-2.994s-1.109-2.994-2.835-2.994h-3.576v5.364C-93.225,185.505-92.979,185.754-92.609,185.754z"
				/>
		</g>
	</g>
	<g>
		<path fill="#008C9E" d="M-35.766,377.343h-151.417c-7.522,0-13.688-6.237-13.688-13.846v-46.525
			c0-7.608,6.166-13.845,13.688-13.845h151.417c7.522,0,13.687,6.236,13.687,13.845v46.525
			C-22.08,371.105-28.121,377.343-35.766,377.343z"/>
		<g>
			<path fill="#DDF5FF" d="M-184.471,329.944c0,0,1.726,2.121,4.316,2.121c1.603,0,2.959-1,2.959-2.62
				c0-3.617-8.262-3.118-8.262-8.482c0-2.62,2.219-4.616,5.425-4.616c1.849,0,4.932,0.875,4.932,3.244v1.372h-2.219v-0.874
				c0-0.873-1.232-1.622-2.589-1.622c-1.85,0-2.959,0.999-2.959,2.371c0,3.491,8.262,2.743,8.262,8.481
				c0,2.619-2.097,4.99-5.426,4.99c-3.699,0-5.671-2.62-5.671-2.62L-184.471,329.944z"/>
			<path fill="#DDF5FF" d="M-166.592,321.213c3.453,0,5.302,2.62,5.302,5.863c0,0.373-0.124,0.997-0.124,0.997h-9.001
				c0.124,2.62,2.096,4.117,4.193,4.117c2.096,0,3.575-1.497,3.575-1.497l0.987,1.746c0,0-1.85,1.872-4.686,1.872
				c-3.822,0-6.534-2.869-6.534-6.486C-172.757,323.833-170.044,321.213-166.592,321.213z M-163.756,326.327
				c-0.123-2.121-1.355-3.118-2.835-3.118c-1.85,0-3.206,1.122-3.576,3.118H-163.756z"/>
			<path fill="#DDF5FF" d="M-158.207,324.082c0-0.375-0.247-0.499-0.495-0.499h-0.986v-1.996h2.22c1.109,0,1.602,0.5,1.602,1.498
				v0.748c0,0.498,0,0.873,0,0.873l0,0c0.617-1.872,1.973-3.244,3.823-3.244c0.37,0,0.617,0,0.617,0v2.371
				c0,0-0.37-0.125-0.74-0.125c-1.479,0-2.836,1.123-3.453,2.869c-0.247,0.749-0.247,1.497-0.247,2.245v5.114h-2.342V324.082z"/>
			<path fill="#DDF5FF" d="M-149.207,324.082c-0.123-0.375-0.369-0.499-0.739-0.499h-0.247v-1.996h1.234
				c1.109,0,1.48,0.25,1.849,1.248l2.589,7.11c0.247,0.749,0.493,1.621,0.493,1.621l0,0c0,0,0.247-0.873,0.494-1.621l2.589-7.11
				c0.37-0.997,0.74-1.248,1.85-1.248h1.11v1.996h-0.248c-0.369,0-0.616,0.125-0.862,0.499l-3.7,9.854h-2.712L-149.207,324.082z"/>
			<path fill="#DDF5FF" d="M-135.396,324.082c0-0.375-0.247-0.499-0.493-0.499h-0.986v-1.996h2.343c1.11,0,1.603,0.5,1.603,1.623
				v8.232c0,0.374,0.247,0.499,0.493,0.499h0.986v1.996h-2.343c-1.11,0-1.603-0.499-1.603-1.621V324.082z M-135.396,316.598h2.096
				v2.494h-2.096V316.598z"/>
			<path fill="#DDF5FF" d="M-123.435,321.213c1.479,0,4.438,0.624,4.438,2.745v1.246h-2.095v-0.748c0-0.873-1.356-1.247-2.343-1.247
				c-2.343,0-4.192,1.87-4.192,4.49c0,2.869,2.096,4.366,4.315,4.366c2.343,0,3.822-1.748,3.822-1.748l0.987,1.748
				c0,0-1.727,2.12-5.056,2.12c-3.822,0-6.535-2.745-6.535-6.486C-130.094,324.082-127.381,321.213-123.435,321.213z"/>
			<path fill="#DDF5FF" d="M-110.982,321.213c3.454,0,5.303,2.62,5.303,5.863c0,0.373-0.124,0.997-0.124,0.997h-9.001
				c0.123,2.62,2.096,4.117,4.192,4.117c2.096,0,3.576-1.497,3.576-1.497l0.987,1.746c0,0-1.85,1.872-4.686,1.872
				c-3.823,0-6.535-2.869-6.535-6.486C-117.147,323.833-114.434,321.213-110.982,321.213z M-108.146,326.327
				c-0.123-2.121-1.357-3.118-2.836-3.118c-1.85,0-3.207,1.122-3.576,3.118H-108.146z"/>
			<path fill="#DDF5FF" d="M-88.664,316.348c2.343,0,6.412,0.999,6.412,3.742v1.747h-2.219v-0.998c0-1.497-2.466-2.247-4.192-2.247
				c-3.452,0-6.165,2.62-6.165,6.486c0,3.742,2.713,6.86,6.165,6.86s5.426-2.37,5.426-2.37l1.355,1.747c0,0-2.465,2.868-6.781,2.868
				c-5.179,0-8.631-3.991-8.631-9.105C-97.294,320.09-93.596,316.348-88.664,316.348z"/>
		</g>
	</g>
	<g>
		<line fill="none" x1="402.828" y1="283.046" x2="313.432" y2="283.046"/>
		<g>
			
				<line fill="none" stroke="#FAAE24" stroke-width="7" stroke-linecap="round" stroke-miterlimit="10" x1="371.879" y1="283.046" x2="344.383" y2="283.046"/>
			<g>
				<polygon fill="#FAAE24" points="365.59,261.341 402.828,283.046 365.59,304.873 				"/>
			</g>
			<g>
				<polygon fill="#FAAE24" points="350.67,261.341 313.432,283.046 350.67,304.873 				"/>
			</g>
		</g>
	</g>
	<g>
		<line fill="none" x1="74.839" y1="44.683" x2="-14.557" y2="44.683"/>
		<g>
			
				<line fill="none" stroke="#FAAE24" stroke-width="7" stroke-linecap="round" stroke-miterlimit="10" x1="43.889" y1="44.683" x2="16.392" y2="44.683"/>
			<g>
				<polygon fill="#FAAE24" points="37.601,22.855 74.839,44.683 37.601,66.511 				"/>
			</g>
			<g>
				<polygon fill="#FAAE24" points="22.68,22.855 -14.557,44.683 22.68,66.511 				"/>
			</g>
		</g>
	</g>
	<g>
		<line fill="none" x1="74.839" y1="191.867" x2="-14.557" y2="191.867"/>
		<g>
			
				<line fill="none" stroke="#FAAE24" stroke-width="7" stroke-linecap="round" stroke-miterlimit="10" x1="43.889" y1="191.867" x2="16.392" y2="191.867"/>
			<g>
				<polygon fill="#FAAE24" points="37.601,170.039 74.839,191.867 37.601,213.694 				"/>
			</g>
			<g>
				<polygon fill="#FAAE24" points="22.68,170.039 -14.557,191.867 22.68,213.694 				"/>
			</g>
		</g>
	</g>
	<g>
		<line fill="none" x1="74.839" y1="341.543" x2="-14.557" y2="341.543"/>
		<g>
			
				<line fill="none" stroke="#FAAE24" stroke-width="7" stroke-linecap="round" stroke-miterlimit="10" x1="43.889" y1="341.543" x2="16.392" y2="341.543"/>
			<g>
				<polygon fill="#FAAE24" points="37.601,319.716 74.839,341.543 37.601,363.373 				"/>
			</g>
			<g>
				<polygon fill="#FAAE24" points="22.68,319.716 -14.557,341.543 22.68,363.373 				"/>
			</g>
		</g>
	</g>
	<g>
		<path fill="#008C9E" d="M599.129,306.121v-77.584c0-4.615-2.713-8.606-6.658-10.977c-2.096-1.248-4.562-2.119-7.274-2.119h-0.493
			H437.6h-0.616c-2.713,0-5.179,0.747-7.274,2.119c-0.122,0.125-0.248,0.125-0.37,0.25c0,0,0,0-0.123,0
			c-3.699,2.37-6.042,6.236-6.042,10.602v0.998v76.586l0,0v3.742l0,0v7.484c0,3.866,1.849,7.359,4.932,9.729
			c2.466,2.121,5.549,3.367,9.002,3.367h55.117v35.3h-17.756v11.974h17.756h38.225h19.729v-11.974h-19.729v-35.3h54.254h0.616
			c2.711,0,5.179-0.749,7.274-2.121c0.123-0.125,0.247-0.125,0.37-0.249c0,0,0,0,0.122,0c3.699-2.37,6.043-6.236,6.043-10.602
			v-0.999v-6.36l0,0l0,0V306.121L599.129,306.121L599.129,306.121L599.129,306.121z"/>
		<rect x="495.8" y="330.318" fill="#DDF5FF" width="31.072" height="35.424"/>
		<rect x="478.045" y="369.484" fill="#DDF5FF" width="68.311" height="4.491"/>
		<path fill="#DDF5FF" d="M437.6,326.576h147.104c5.917,0,10.727-4.115,10.727-9.23v-7.483H426.873v7.483
			C426.873,322.336,431.681,326.576,437.6,326.576z"/>
	</g>
</g>
</svg>
