<?xml version="1.0" encoding="utf-8"?>
<!-- Generator: Adobe Illustrator 16.0.0, SVG Export Plug-In . SVG Version: 6.00 Build 0)  -->
<!DOCTYPE svg PUBLIC "-//W3C//DTD SVG 1.1//EN" "http://www.w3.org/Graphics/SVG/1.1/DTD/svg11.dtd">
<svg version="1.1" id="Layer_1" xmlns="http://www.w3.org/2000/svg" xmlns:xlink="http://www.w3.org/1999/xlink" x="0px" y="0px"
	 width="482.708px" height="369.548px" viewBox="10.967 29.156 482.708 369.548"
	 enable-background="new 10.967 29.156 482.708 369.548" xml:space="preserve">
<g id="Layer_7">
</g>
<g id="Layer_8">
</g>
<g id="Layer_9">
</g>
<g id="Layer_5">
	<path fill="#008C9E" d="M258.633,369.001H156.112c-5.791,0-10.537-4.746-10.537-10.537V98.838c0-5.791,4.747-10.537,10.537-10.537
		h102.521c5.791,0,10.537,4.747,10.537,10.537v259.626C269.17,364.352,264.424,369.001,258.633,369.001z"/>
	<g>
		<path fill="#008C9E" d="M483.614,147.631h-5.889h-1.709h-58c-5.506,0-10.061,4.461-10.061,10.062v10.917v21.358v12.057
			c0,5.506,4.463,10.062,10.061,10.062h58h1.709h5.889c5.506,0,10.061-4.461,10.061-10.062v-12.057V168.61v-10.917
			C493.674,152.093,489.12,147.631,483.614,147.631z"/>
		<g>
			<path fill="#DDF5FF" d="M431.403,172.692c1.896,0,5.127,0.759,5.127,2.943v1.329h-1.807v-0.759c0-1.139-1.99-1.708-3.32-1.708
				c-2.752,0-4.938,2.088-4.938,5.221c0,3.038,2.186,5.411,4.938,5.411c2.754,0,4.367-1.898,4.367-1.898l1.045,1.424
				c0,0-1.994,2.278-5.412,2.278c-4.082,0-7.023-3.133-7.023-7.215C424.471,175.635,427.417,172.692,431.403,172.692z"/>
			<path fill="#DDF5FF" d="M439.09,174.971c0-0.285-0.188-0.475-0.475-0.475h-0.76v-1.614h1.898c0.854,0,1.234,0.379,1.234,1.234
				v10.442c0,0.285,0.188,0.475,0.475,0.475h0.76v1.614h-1.898c-0.854,0-1.234-0.379-1.234-1.233V174.971z"/>
			<path fill="#DDF5FF" d="M444.502,178.863c0-0.285-0.189-0.475-0.475-0.475h-0.762v-1.614h1.898c0.854,0,1.234,0.379,1.234,1.234
				v6.55c0,0.285,0.188,0.475,0.475,0.475h0.76v1.614h-1.898c-0.854,0-1.232-0.379-1.232-1.233V178.863L444.502,178.863z
				 M444.502,172.882h1.707v1.993h-1.707V172.882z"/>
			<path fill="#DDF5FF" d="M453.709,176.584c2.754,0,4.271,2.088,4.271,4.651c0,0.285-0.096,0.759-0.096,0.759h-7.215
				c0.096,2.088,1.615,3.323,3.418,3.323c1.709,0,2.848-1.139,2.848-1.139l0.855,1.33c0,0-1.426,1.424-3.799,1.424
				c-3.131,0-5.221-2.278-5.221-5.126C448.776,178.578,450.958,176.584,453.709,176.584z M455.991,180.571
				c-0.1-1.614-1.143-2.468-2.279-2.468c-1.424,0-2.658,0.854-2.943,2.468H455.991z"/>
			<path fill="#DDF5FF" d="M460.452,178.863c0-0.285-0.189-0.475-0.479-0.475h-0.758v-1.614h1.805c0.854,0,1.232,0.379,1.232,1.139
				v0.379c0,0.285,0,0.57,0,0.57l0,0c0.379-0.854,1.521-2.278,3.701-2.278c2.373,0,3.418,1.234,3.418,3.797v4.272
				c0,0.285,0.189,0.475,0.475,0.475h0.762v1.614h-1.898c-0.854,0-1.232-0.38-1.232-1.234v-4.65c0-1.424-0.285-2.468-1.898-2.468
				c-1.52,0-2.754,0.949-3.133,2.373c-0.096,0.38-0.189,0.854-0.189,1.329v4.651h-1.896v-7.878H460.452z"/>
			<path fill="#DDF5FF" d="M472.792,178.293h-1.328v-1.519h1.328v-2.752h1.898v2.752h2.373v1.519h-2.373v4.557
				c0,1.994,1.326,2.183,2.09,2.183c0.283,0,0.475,0,0.475,0v1.708c0,0-0.285,0-0.666,0c-1.232,0-3.797-0.38-3.797-3.702V178.293z"
				/>
		</g>
	</g>
	<g>
		<g>
			<path fill="none" stroke="#E5A021" stroke-width="7" stroke-linecap="round" stroke-miterlimit="10" d="M455.221,220.264v34.721
				c0,4.117-6.297,7.474-14.02,7.474H317.491"/>
			<g>
				<polygon fill="#E5A021" points="322.331,245.846 293.663,262.458 322.331,278.976 				"/>
			</g>
		</g>
	</g>
	<g>
		<path fill="#008C9E" stroke="#DDF5FF" stroke-miterlimit="10" d="M24.257,263.632v68.349c0,5.315,16.328,9.685,36.453,9.685
			s36.452-4.367,36.452-9.685v-68.349H24.257z"/>
		<ellipse fill="#008C9E" stroke="#DDF5FF" stroke-miterlimit="10" cx="60.709" cy="263.633" rx="36.452" ry="9.683"/>
		<g>
			<path fill="#008C9E" d="M12.96,240.283l-1.329,0.475l-0.664-1.803l5.885-2.088c4.367-1.615,8.259,0,9.967,4.555
				c1.709,4.557-0.285,8.354-4.651,9.873l-3.228,1.14c-0.949,0.381-1.424,0.097-1.804-0.854L12.96,240.283z M19.416,250.25
				l1.898-0.664c3.228-1.141,4.652-3.894,3.323-7.404c-1.329-3.514-4.082-4.652-7.31-3.514l-2.373,0.854l3.797,10.537
				C18.941,250.25,19.131,250.438,19.416,250.25z"/>
			<path fill="#008C9E" d="M35.933,240.851l0.475-0.096v-0.096c-0.285-1.896-1.139-2.468-2.848-2.184
				c-0.475,0.096-1.804,0.475-1.614,1.139l0.095,0.666l-1.994,0.284l-0.189-1.044c-0.285-1.805,2.373-2.469,3.417-2.658
				c3.513-0.57,4.747,1.139,5.221,3.512l0.759,4.65c0.095,0.285,0.285,0.477,0.57,0.381l0.854-0.189l0.285,1.805l-1.994,0.285
				c-0.949,0.189-1.424-0.285-1.519-1.045c-0.095-0.381-0.095-0.664-0.095-0.664l0,0c0,0-0.475,2.277-3.132,2.752
				c-1.899,0.285-3.892-0.475-4.272-2.657C29.383,242.18,34.129,241.23,35.933,240.851z M34.414,246.641
				c1.804-0.284,2.563-2.373,2.374-3.987l-0.095-0.38l-0.569,0.097c-1.614,0.283-4.367,0.854-4.082,2.848
				C32.231,246.167,33.085,246.923,34.414,246.641z"/>
			<path fill="#008C9E" d="M42.198,237.625l-1.424,0.094l-0.19-1.709l1.519-0.094l-0.285-3.039l2.088-0.189l0.285,3.038l2.658-0.285
				l0.19,1.709l-2.658,0.285l0.475,5.03c0.19,2.185,1.708,2.373,2.563,2.277c0.285,0,0.475-0.095,0.475-0.095l0.19,1.897
				c0,0-0.285,0.096-0.76,0.096c-1.424,0.095-4.271,0-4.556-3.702L42.198,237.625z"/>
			<path fill="#008C9E" d="M55.678,239.142h0.475v-0.096c-0.095-1.897-0.854-2.657-2.563-2.562c-0.57,0-1.804,0.189-1.804,0.949
				v0.665l-1.994,0.095v-1.044c-0.095-1.804,2.658-2.185,3.702-2.185c3.607-0.094,4.557,1.709,4.651,4.178l0.19,4.65
				c0,0.285,0.19,0.477,0.475,0.477h0.854l0.095,1.805l-1.993,0.096c-0.949,0-1.424-0.477-1.424-1.233c0-0.382,0-0.665,0-0.665l0,0
				c0,0-0.76,2.184-3.417,2.277c-1.898,0.096-3.797-1.045-3.892-3.229C49.033,239.619,53.875,239.237,55.678,239.142z M53.4,244.744
				c1.804-0.096,2.848-1.994,2.848-3.607v-0.379h-0.569c-1.614,0.095-4.462,0.285-4.367,2.277
				C51.312,243.888,52.071,244.744,53.4,244.744z"/>
			<path fill="#008C9E" d="M62.323,232.876c0-0.285-0.19-0.476-0.475-0.476h-0.854l0.095-1.804l2.088,0.095
				c0.949,0,1.424,0.476,1.329,1.425l-0.095,3.606c0,0.569-0.095,0.948-0.095,0.948l0,0c0,0,1.044-1.803,3.607-1.709
				c2.943,0.096,4.747,2.563,4.651,5.98c-0.095,3.514-2.278,5.696-5.221,5.602c-2.468-0.096-3.417-1.994-3.417-1.994l0,0
				c0,0,0,0.381,0,0.854v0.761l-1.994-0.097L62.323,232.876z M67.069,244.55c1.709,0.098,3.228-1.327,3.323-3.797
				c0.095-2.373-1.139-3.985-3.038-4.082c-1.614-0.094-3.228,1.045-3.322,3.893C64.032,242.462,64.981,244.458,67.069,244.55z"/>
			<path fill="#008C9E" d="M80.929,240.283l0.475,0.094v-0.094c0.19-1.898-0.379-2.658-2.183-2.85
				c-0.475-0.096-1.804-0.096-1.898,0.665l-0.095,0.665l-1.993-0.189l0.095-1.045c0.19-1.803,2.943-1.803,3.987-1.613
				c3.513,0.379,4.272,2.375,4.082,4.748l-0.475,4.649c0,0.285,0.095,0.476,0.38,0.569l0.854,0.095l-0.189,1.806l-1.994-0.189
				c-0.949-0.096-1.329-0.666-1.234-1.424c0-0.381,0.095-0.666,0.095-0.666l0,0c0,0-1.139,2.09-3.702,1.806
				c-1.898-0.19-3.607-1.521-3.323-3.798C74.284,239.806,79.125,240.089,80.929,240.283z M77.986,245.41
				c1.803,0.188,3.132-1.521,3.322-3.135v-0.38l-0.569-0.097c-1.614-0.188-4.462-0.379-4.652,1.615
				C75.993,244.365,76.562,245.216,77.986,245.41z"/>
			<path fill="#008C9E" d="M86.53,244.835c0,0,0.949,1.898,2.942,2.279c1.044,0.189,1.994-0.096,2.184-1.045
				c0.38-1.994-5.601-2.943-4.841-6.455c0.38-2.089,2.468-2.658,4.651-2.184c1.329,0.285,3.417,1.139,3.133,2.848l-0.19,1.045
				l-1.898-0.381l0.095-0.568c0.095-0.666-0.759-1.14-1.424-1.233c-1.234-0.285-2.088,0-2.278,0.854
				c-0.38,2.088,5.601,2.754,4.841,6.455c-0.38,1.897-2.373,2.85-4.651,2.375c-2.848-0.57-3.987-2.754-3.987-2.754L86.53,244.835z"
				/>
			<path fill="#008C9E" d="M103.427,240.851c2.943,1.141,3.607,3.893,2.658,6.549c-0.095,0.285-0.38,0.762-0.38,0.762l-7.5-2.85
				c-0.759,2.277,0.38,4.082,2.278,4.842c1.804,0.664,3.513-0.096,3.513-0.096l0.285,1.709c0,0-2.088,0.947-4.557,0
				c-3.228-1.232-4.651-4.461-3.417-7.499C97.446,240.945,100.484,239.71,103.427,240.851z M104.186,245.976
				c0.57-1.708-0.189-3.037-1.424-3.514c-1.519-0.568-3.038-0.094-4.082,1.521L104.186,245.976z"/>
		</g>
		<path fill="#008C9E" stroke="#DDF5FF" stroke-miterlimit="10" d="M60.709,296.574c-20.125,0-36.453-4.365-36.453-9.684"/>
		<path fill="#008C9E" stroke="#DDF5FF" stroke-miterlimit="10" d="M97.066,286.89c0,5.314-16.327,9.684-36.452,9.684"/>
		<path fill="#008C9E" stroke="#DDF5FF" stroke-miterlimit="10" d="M60.709,319.832c-20.125,0-36.453-4.367-36.453-9.684"/>
		<path fill="#008C9E" stroke="#DDF5FF" stroke-miterlimit="10" d="M97.066,310.148c0,5.314-16.327,9.684-36.452,9.684"/>
	</g>
	<g>
		<g>
			<path fill="none" stroke="#E5A021" stroke-width="7" stroke-linecap="round" stroke-miterlimit="10" d="M59.95,222.435v-28.764
				c0-7.688,6.265-13.955,13.955-13.955h128.058"/>
			<g>
				<polygon fill="#E5A021" points="197.121,196.33 225.789,179.812 197.121,163.2 				"/>
			</g>
		</g>
	</g>
	<g>
		<path fill="#DDF5FF" d="M184.32,115.831h0.285c0.38,0,0.665-0.095,0.76-0.475l5.126-13.859h2.468l5.126,13.859
			c0.095,0.38,0.38,0.475,0.759,0.475h0.38v1.993h-1.329c-1.139,0-1.519-0.285-1.898-1.329l-1.234-3.417h-6.075l-1.234,3.417
			c-0.38,1.044-0.76,1.329-1.899,1.329h-1.234v-1.993H184.32z M194.192,111.179l-1.804-5.031c-0.285-0.854-0.665-2.278-0.665-2.278
			l0,0c0,0-0.285,1.424-0.665,2.278l-1.803,5.031H194.192z"/>
		<path fill="#DDF5FF" d="M201.502,108.521c0-0.38-0.19-0.475-0.475-0.475h-0.949v-1.898h2.088c1.044,0,1.424,0.475,1.424,1.139
			c0,0.379,0,0.665,0,0.665l0,0c0,0,0.949-2.088,3.892-2.088c3.132,0,5.221,2.468,5.221,6.17c0,3.703-2.278,6.17-5.316,6.17
			c-2.562,0-3.607-1.898-3.607-1.898l0,0c0,0,0,0.38,0,1.044v5.221h-2.278V108.521L201.502,108.521z M207.008,116.21
			c1.898,0,3.417-1.519,3.417-4.177c0-2.563-1.329-4.177-3.323-4.177c-1.708,0-3.417,1.234-3.417,4.272
			C203.685,114.122,204.824,116.21,207.008,116.21z"/>
		<path fill="#DDF5FF" d="M215.551,108.521c0-0.38-0.19-0.475-0.475-0.475h-0.949v-1.898h2.088c1.044,0,1.424,0.475,1.424,1.139
			c0,0.379,0,0.665,0,0.665l0,0c0,0,0.949-2.088,3.892-2.088c3.132,0,5.221,2.468,5.221,6.17c0,3.703-2.278,6.17-5.316,6.17
			c-2.563,0-3.607-1.898-3.607-1.898l0,0c0,0,0,0.38,0,1.044v5.221h-2.278V108.521L215.551,108.521z M221.057,116.21
			c1.898,0,3.417-1.519,3.417-4.177c0-2.563-1.329-4.177-3.323-4.177c-1.708,0-3.417,1.234-3.417,4.272
			C217.734,114.122,218.874,116.21,221.057,116.21z"/>
	</g>
	<g>
		<line fill="none" x1="225.789" y1="300.083" x2="104.471" y2="300.083"/>
		<g>
			
				<line fill="none" stroke="#E5A021" stroke-width="7" stroke-linecap="round" stroke-miterlimit="10" x1="225.789" y1="300.083" x2="128.298" y2="300.083"/>
			<g>
				<polygon fill="#E5A021" points="133.139,283.568 104.471,300.083 133.139,316.699 				"/>
			</g>
		</g>
	</g>
	<g>
		<line fill="none" x1="293.663" y1="179.812" x2="399.981" y2="179.812"/>
		<g>
			
				<line fill="none" stroke="#E5A021" stroke-width="7" stroke-linecap="round" stroke-miterlimit="10" x1="293.663" y1="179.812" x2="376.155" y2="179.812"/>
			<g>
				<polygon fill="#E5A021" points="371.313,196.33 399.981,179.812 371.313,163.2 				"/>
			</g>
		</g>
	</g>
	<g>
		<path fill="#DDF5FF" d="M487.444,140.127H331.401c-3.342,0-6.43,2.133-8.385,5.804l-11.285,21.084V36.156c0-3.841,2.332-7,5.17-7
			h170.604c2.836,0,5.17,3.159,5.17,7v96.972C492.612,136.969,490.28,140.127,487.444,140.127z"/>
		<g>
			<path d="M337.735,46.839c0-0.19,0-0.38,0-0.569c0-0.19,0-0.38,0-0.57c0-0.19,0-0.38,0-0.569c0-0.19,0-0.38,0-0.57
				c0-0.095,0-0.19-0.098-0.285c0-0.095-0.096-0.19-0.283-0.285c-0.189-0.095-0.283-0.19-0.477-0.19
				c-0.188-0.095-0.475-0.095-0.854-0.095v-0.569c0.379,0,0.568,0,0.854-0.095c0.189-0.095,0.379-0.095,0.477-0.189
				c0.096-0.095,0.188-0.19,0.283-0.285c0-0.095,0.098-0.189,0.098-0.285c0-0.379,0-0.759-0.098-1.044
				c-0.096-0.285-0.096-0.76-0.096-1.139c0-0.285,0-0.57,0.096-0.76c0.098-0.189,0.189-0.379,0.379-0.475
				c0.189-0.095,0.381-0.189,0.664-0.285c0.285-0.095,0.57-0.095,0.949-0.095h0.666v0.569h-0.57c-0.281,0-0.566,0-0.76,0.095
				c-0.188,0-0.285,0.095-0.475,0.189c-0.096,0.095-0.189,0.19-0.189,0.285c0,0.095-0.096,0.285-0.096,0.475
				c0,0.285,0,0.665,0,1.044c0,0.38,0,0.665,0,1.044s-0.094,0.665-0.189,0.854c-0.188,0.19-0.379,0.285-0.854,0.38l0,0
				c0.381,0.095,0.664,0.19,0.854,0.38c0.189,0.19,0.189,0.475,0.189,0.854c0,0.379,0,0.759,0,1.044c0,0.285,0,0.665,0,1.044
				c0,0.19,0,0.379,0.096,0.475c0.098,0.095,0.098,0.285,0.189,0.285c0.096,0.095,0.285,0.095,0.475,0.19
				c0.189,0,0.381,0.095,0.76,0.095h0.57v0.57h-0.666c-0.379,0-0.664,0-0.949-0.095c-0.281-0.095-0.475-0.095-0.664-0.285
				c-0.188-0.095-0.281-0.285-0.379-0.475C337.735,47.409,337.735,47.124,337.735,46.839z"/>
			<path fill="#008299" d="M351.499,52.914c-0.379,0.19-0.664,0.475-0.855,0.76c-0.188,0.285-0.283,0.665-0.381,1.044
				c0.098,0,0.191-0.095,0.285-0.095c0.189,0,0.479,0.095,0.57,0.19c0.094,0.095,0.189,0.379,0.189,0.569
				c0,0.285-0.096,0.475-0.285,0.665s-0.381,0.285-0.568,0.285c-0.285,0-0.57-0.095-0.76-0.379c-0.189-0.285-0.285-0.57-0.285-1.044
				c0-0.569,0.189-1.044,0.475-1.519c0.287-0.475,0.664-0.854,1.234-1.044L351.499,52.914z M354.157,52.914
				c-0.379,0.19-0.664,0.475-0.855,0.76c-0.188,0.285-0.285,0.665-0.381,1.044c0.096,0,0.189-0.095,0.285-0.095
				c0.189,0,0.475,0.095,0.57,0.19c0.094,0.095,0.188,0.379,0.188,0.569c0,0.285-0.094,0.475-0.283,0.665
				c-0.188,0.19-0.381,0.285-0.568,0.285c-0.283,0-0.568-0.095-0.762-0.379c-0.188-0.285-0.281-0.57-0.281-1.044
				c0-0.569,0.188-1.044,0.475-1.519c0.285-0.475,0.664-0.854,1.234-1.044L354.157,52.914z"/>
			<path fill="#008299" d="M355.959,57.566c0-0.475,0.094-0.854,0.189-1.234c0.094-0.379,0.283-0.665,0.568-0.949
				c0.189-0.285,0.475-0.475,0.76-0.569c0.285-0.095,0.664-0.19,0.949-0.19c0.379,0,0.664,0.095,0.854,0.19
				c0.285,0.095,0.475,0.285,0.76,0.569v-1.044V52.25h0.949v8.069h-0.76l-0.096-0.76l0,0c-0.189,0.19-0.475,0.475-0.854,0.57
				c-0.379,0.095-0.664,0.285-0.949,0.285c-0.379,0-0.664-0.095-0.949-0.19c-0.285-0.095-0.568-0.285-0.76-0.569
				c-0.189-0.285-0.379-0.57-0.475-0.949C356.053,58.42,355.959,58.041,355.959,57.566z M357.002,57.566
				c0,0.664,0.096,1.234,0.477,1.519c0.283,0.38,0.662,0.57,1.232,0.57s1.045-0.285,1.521-0.854v-2.753
				c-0.285-0.19-0.477-0.38-0.762-0.475c-0.283-0.095-0.475-0.19-0.76-0.19s-0.475,0.095-0.664,0.19
				c-0.188,0.095-0.381,0.285-0.57,0.475c-0.188,0.19-0.281,0.38-0.379,0.665C357.002,56.901,357.002,57.186,357.002,57.566z"/>
			<path fill="#008299" d="M363.081,58.895c0-0.285,0.094-0.569,0.188-0.854c0.096-0.285,0.381-0.475,0.664-0.57
				c0.285-0.095,0.762-0.285,1.234-0.379c0.475-0.095,1.139-0.19,1.803-0.285c0-0.189,0-0.379-0.096-0.569
				c-0.094-0.19-0.094-0.285-0.283-0.475c-0.188-0.19-0.285-0.19-0.475-0.285c-0.191-0.095-0.381-0.095-0.666-0.095
				c-0.379,0-0.758,0.095-1.043,0.19c-0.381,0.095-0.664,0.285-0.855,0.475l-0.379-0.665c0.098-0.095,0.285-0.19,0.477-0.285
				c0.188-0.095,0.381-0.19,0.568-0.285c0.189-0.095,0.477-0.095,0.664-0.19c0.189-0.095,0.477-0.095,0.76-0.095
				c0.762,0,1.328,0.19,1.707,0.665c0.383,0.38,0.57,0.95,0.57,1.614v3.417h-0.76l-0.094-0.759l0,0
				c-0.285,0.285-0.666,0.475-1.047,0.665c-0.379,0.19-0.758,0.285-1.139,0.285c-0.285,0-0.475,0-0.76-0.095
				c-0.189-0.095-0.379-0.19-0.568-0.285c-0.189-0.095-0.285-0.285-0.381-0.475C363.081,59.37,363.081,59.084,363.081,58.895z
				 M363.932,58.8c0,0.19,0,0.285,0.098,0.38c0.096,0.095,0.188,0.19,0.285,0.285c0.096,0.095,0.281,0.095,0.381,0.19
				c0.188,0,0.283,0.095,0.475,0.095c0.283,0,0.664-0.095,0.949-0.19c0.283-0.095,0.664-0.379,0.949-0.569v-1.424
				c-0.57,0-1.047,0.095-1.521,0.189c-0.475,0.095-0.758,0.19-0.949,0.285c-0.188,0.095-0.379,0.285-0.475,0.379
				C364.03,58.42,363.932,58.61,363.932,58.8z"/>
			<path fill="#008299" d="M371.336,55.572h-1.518v-0.665l1.611-0.095l0.096-1.614h0.76v1.519h2.754v0.759h-2.754v2.658
				c0,0.285,0,0.475,0.096,0.665c0,0.19,0.094,0.38,0.189,0.475c0.096,0.095,0.285,0.19,0.475,0.285
				c0.189,0.095,0.381,0.095,0.664,0.095c0.285,0,0.477,0,0.76-0.095c0.189,0,0.383-0.095,0.57-0.189l0.189,0.664
				c-0.285,0.095-0.477,0.19-0.854,0.19c-0.285,0.095-0.57,0.095-0.949,0.095c-0.381,0-0.76-0.095-1.045-0.19
				c-0.285-0.095-0.475-0.285-0.664-0.475s-0.285-0.475-0.381-0.76c-0.094-0.285-0.094-0.569-0.094-0.949v-2.373H371.336z"/>
			<path fill="#008299" d="M376.75,58.895c0-0.285,0.094-0.569,0.188-0.854c0.096-0.285,0.381-0.475,0.666-0.57
				c0.283-0.095,0.76-0.285,1.232-0.379c0.475-0.095,1.141-0.19,1.805-0.285c0-0.189,0-0.379-0.096-0.569
				c-0.094-0.19-0.094-0.285-0.285-0.475c-0.188-0.19-0.283-0.19-0.475-0.285c-0.189-0.095-0.379-0.095-0.664-0.095
				c-0.379,0-0.76,0.095-1.043,0.19c-0.381,0.095-0.666,0.285-0.855,0.475l-0.379-0.665c0.094-0.095,0.285-0.19,0.475-0.285
				c0.189-0.095,0.381-0.19,0.568-0.285c0.191-0.095,0.477-0.095,0.666-0.19c0.189-0.095,0.475-0.095,0.758-0.095
				c0.762,0,1.33,0.19,1.709,0.665c0.381,0.38,0.57,0.95,0.57,1.614v3.417h-0.76l-0.096-0.759l0,0
				c-0.283,0.285-0.664,0.475-1.047,0.665c-0.379,0.19-0.758,0.285-1.139,0.285c-0.285,0-0.475,0-0.76-0.095
				c-0.189-0.095-0.379-0.19-0.568-0.285c-0.188-0.095-0.285-0.285-0.381-0.475C376.75,59.37,376.75,59.084,376.75,58.895z
				 M377.604,58.8c0,0.19,0,0.285,0.096,0.38c0.096,0.095,0.188,0.19,0.285,0.285c0.096,0.095,0.281,0.095,0.379,0.19
				c0.188,0,0.285,0.095,0.475,0.095c0.285,0,0.666-0.095,0.949-0.19c0.285-0.095,0.666-0.379,0.949-0.569v-1.424
				c-0.568,0-1.043,0.095-1.521,0.189c-0.475,0.095-0.76,0.19-0.949,0.285c-0.188,0.095-0.379,0.285-0.475,0.379
				C377.7,58.42,377.604,58.61,377.604,58.8z"/>
			<path fill="#008299" d="M383.774,55.762c0.381-0.19,0.664-0.475,0.854-0.76s0.285-0.664,0.381-1.044
				c-0.096,0-0.189,0.095-0.285,0.095c-0.285,0-0.475-0.095-0.568-0.188c-0.191-0.19-0.191-0.38-0.191-0.57
				c0-0.285,0.098-0.475,0.285-0.665c0.189-0.19,0.381-0.285,0.57-0.285c0.283,0,0.568,0.095,0.76,0.38
				c0.188,0.285,0.283,0.569,0.283,1.044c0,0.57-0.189,1.044-0.475,1.519c-0.287,0.475-0.664,0.759-1.232,1.044L383.774,55.762z
				 M386.43,55.762c0.383-0.19,0.664-0.475,0.855-0.76c0.188-0.285,0.283-0.664,0.379-1.044c-0.096,0-0.189,0.095-0.285,0.095
				c-0.285,0-0.475-0.095-0.566-0.188c-0.189-0.19-0.189-0.38-0.189-0.57c0-0.285,0.094-0.475,0.285-0.665
				c0.188-0.19,0.379-0.285,0.566-0.285c0.285,0,0.568,0.095,0.762,0.38c0.188,0.285,0.283,0.569,0.283,1.044
				c0,0.57-0.189,1.044-0.477,1.519c-0.283,0.475-0.664,0.759-1.23,1.044L386.43,55.762z"/>
			<path d="M391.938,55.382c0-0.285,0.096-0.475,0.283-0.665c0.189-0.19,0.379-0.285,0.664-0.285s0.479,0.095,0.664,0.285
				c0.191,0.19,0.285,0.38,0.285,0.665c0,0.285-0.094,0.475-0.285,0.665c-0.188,0.19-0.379,0.285-0.664,0.285
				s-0.475-0.095-0.664-0.285C392.034,55.952,391.938,55.667,391.938,55.382z M391.938,59.464c0-0.285,0.096-0.475,0.283-0.665
				c0.189-0.19,0.379-0.285,0.664-0.285s0.479,0.095,0.664,0.285c0.191,0.19,0.285,0.38,0.285,0.665
				c0,0.285-0.094,0.475-0.285,0.665c-0.188,0.19-0.379,0.285-0.664,0.285s-0.475-0.095-0.664-0.285
				C392.034,60.034,391.938,59.749,391.938,59.464z"/>
			<path d="M406.083,60.508c0-0.189,0-0.379,0-0.569s0-0.38,0-0.569c0-0.19,0-0.38,0-0.57c0-0.19,0-0.38,0-0.57
				c0-0.095,0-0.189-0.096-0.285c0-0.095-0.098-0.19-0.283-0.285c-0.191-0.095-0.285-0.19-0.479-0.19
				c-0.188-0.095-0.475-0.095-0.854-0.095v-0.57c0.381,0,0.57,0,0.854-0.095c0.189-0.095,0.381-0.095,0.479-0.19
				c0.094-0.095,0.188-0.19,0.283-0.285c0-0.095,0.096-0.19,0.096-0.285c0-0.38,0-0.76-0.096-1.044
				c-0.098-0.284-0.098-0.759-0.098-1.139c0-0.285,0-0.569,0.098-0.759c0.096-0.19,0.188-0.38,0.381-0.475
				c0.188-0.095,0.379-0.19,0.664-0.285c0.285-0.095,0.566-0.095,0.949-0.095h0.664v0.57h-0.568c-0.285,0-0.57,0-0.76,0.095
				c-0.189,0-0.285,0.095-0.479,0.19c-0.094,0.095-0.188,0.19-0.188,0.285c0,0.095-0.096,0.285-0.096,0.475c0,0.285,0,0.665,0,1.044
				s0,0.665,0,1.044c0,0.38-0.096,0.665-0.189,0.854c-0.189,0.19-0.381,0.285-0.855,0.38l0,0c0.381,0.095,0.666,0.189,0.855,0.379
				c0.189,0.19,0.189,0.475,0.189,0.854c0,0.379,0,0.759,0,1.044c0,0.285,0,0.664,0,1.044c0,0.19,0,0.38,0.096,0.475
				c0.094,0.095,0.094,0.285,0.188,0.285c0.098,0.095,0.285,0.095,0.479,0.19c0.188,0,0.379,0.095,0.76,0.095h0.568v0.57h-0.664
				c-0.383,0-0.664,0-0.949-0.095c-0.285-0.095-0.477-0.095-0.664-0.285c-0.189-0.095-0.285-0.285-0.381-0.475
				C405.889,60.981,406.083,60.793,406.083,60.508z"/>
			<path fill="#008299" d="M365.167,66.584c-0.379,0.19-0.664,0.475-0.854,0.759c-0.189,0.285-0.285,0.665-0.381,1.044
				c0.096,0,0.189-0.095,0.285-0.095c0.189,0,0.477,0.095,0.57,0.19c0.094,0.095,0.188,0.38,0.188,0.57
				c0,0.285-0.094,0.475-0.283,0.664c-0.189,0.19-0.381,0.285-0.57,0.285c-0.283,0-0.568-0.095-0.758-0.38
				c-0.191-0.285-0.285-0.569-0.285-1.044c0-0.57,0.189-1.044,0.475-1.519c0.287-0.475,0.664-0.854,1.234-1.044L365.167,66.584z
				 M367.827,66.584c-0.379,0.19-0.664,0.475-0.855,0.759c-0.189,0.285-0.285,0.665-0.379,1.044c0.094,0,0.189-0.095,0.283-0.095
				c0.191,0,0.475,0.095,0.57,0.19c0.096,0.095,0.188,0.38,0.188,0.57c0,0.285-0.096,0.475-0.285,0.664
				c-0.188,0.19-0.379,0.285-0.566,0.285c-0.285,0-0.57-0.095-0.76-0.38c-0.191-0.285-0.285-0.569-0.285-1.044
				c0-0.57,0.188-1.044,0.475-1.519s0.664-0.854,1.234-1.044L367.827,66.584z"/>
			<path fill="#008299" d="M370.958,74.463v1.898h-0.949v-7.879h0.762l0.096,0.665l0,0c0.285-0.285,0.566-0.475,0.854-0.569
				c0.379-0.19,0.664-0.285,1.043-0.285c0.381,0,0.666,0.095,0.949,0.19c0.285,0.095,0.57,0.285,0.76,0.57
				c0.189,0.285,0.381,0.569,0.477,0.854c0.094,0.38,0.188,0.759,0.188,1.139c0,0.475-0.094,0.854-0.188,1.234
				c-0.096,0.379-0.285,0.664-0.57,0.949c-0.188,0.285-0.475,0.475-0.76,0.569c-0.285,0.094-0.664,0.19-0.949,0.19
				s-0.568-0.095-0.854-0.19c-0.285-0.095-0.568-0.285-0.854-0.569v1.234H370.958z M370.958,72.659
				c0.285,0.19,0.568,0.38,0.76,0.475c0.283,0.095,0.477,0.19,0.664,0.19c0.477,0,0.949-0.19,1.234-0.569
				c0.285-0.38,0.475-0.949,0.475-1.614c0-0.285,0-0.57-0.096-0.854c-0.094-0.284-0.189-0.475-0.285-0.665
				c-0.094-0.19-0.283-0.285-0.475-0.38c-0.189-0.095-0.475-0.189-0.664-0.189c-0.285,0-0.475,0.095-0.76,0.189
				c-0.285,0.095-0.568,0.38-0.854,0.665V72.659L370.958,72.659z"/>
			<path fill="#008299" d="M377.506,68.482h0.76l0.098,1.329l0,0c0.285-0.475,0.666-0.759,1.045-1.044
				c0.379-0.285,0.854-0.379,1.424-0.379c0.189,0,0.379,0,0.57,0.095c0.188,0,0.379,0.095,0.475,0.19l-0.191,0.854
				c-0.188-0.095-0.379-0.095-0.475-0.19c-0.094,0-0.283,0-0.568,0c-0.381,0-0.854,0.095-1.232,0.379
				c-0.381,0.285-0.76,0.665-1.045,1.234v3.228h-0.949v-5.696H377.506z"/>
			<path fill="#008299" d="M383.297,71.235c0-0.475,0.098-0.854,0.189-1.234c0.096-0.38,0.381-0.665,0.57-0.949
				c0.189-0.285,0.568-0.475,0.854-0.57c0.285-0.095,0.666-0.19,1.045-0.19c0.381,0,0.76,0.095,1.045,0.19
				c0.285,0.095,0.664,0.285,0.855,0.57c0.283,0.285,0.475,0.569,0.566,0.949c0.098,0.379,0.191,0.759,0.191,1.234
				s-0.098,0.854-0.191,1.234c-0.094,0.38-0.379,0.665-0.566,0.949c-0.285,0.285-0.568,0.475-0.855,0.57
				c-0.285,0.095-0.664,0.19-1.045,0.19c-0.379,0-0.76-0.095-1.045-0.19c-0.283-0.095-0.664-0.285-0.854-0.57
				c-0.285-0.285-0.475-0.569-0.57-0.949C383.395,72.09,383.297,71.71,383.297,71.235z M384.342,71.235c0,0.285,0,0.57,0.096,0.854
				c0.098,0.285,0.189,0.475,0.381,0.665c0.188,0.189,0.381,0.285,0.568,0.475c0.189,0.095,0.477,0.189,0.76,0.189
				s0.477-0.095,0.762-0.189c0.188-0.095,0.379-0.285,0.566-0.475c0.189-0.19,0.285-0.38,0.383-0.665
				c0.094-0.285,0.094-0.57,0.094-0.854c0-0.284,0-0.57-0.094-0.854c-0.098-0.284-0.191-0.475-0.383-0.665
				c-0.188-0.189-0.381-0.379-0.566-0.475c-0.191-0.095-0.479-0.189-0.762-0.189s-0.477,0.095-0.76,0.189
				c-0.188,0.095-0.381,0.285-0.568,0.475c-0.189,0.19-0.283,0.38-0.381,0.665C384.342,70.571,384.342,70.855,384.342,71.235z"/>
			<path fill="#008299" d="M390.133,71.235c0-0.475,0.096-0.854,0.189-1.234s0.285-0.665,0.568-0.949
				c0.189-0.285,0.477-0.475,0.76-0.57c0.285-0.095,0.666-0.19,0.949-0.19c0.381,0,0.664,0.095,0.854,0.19
				c0.285,0.095,0.475,0.285,0.76,0.57v-1.044V65.92h0.949v8.069h-0.76l-0.096-0.759l0,0c-0.188,0.189-0.475,0.475-0.854,0.569
				c-0.379,0.094-0.664,0.285-0.949,0.285c-0.379,0-0.664-0.095-0.949-0.19s-0.568-0.285-0.76-0.569
				c-0.188-0.285-0.379-0.569-0.475-0.949C390.229,72.09,390.133,71.71,390.133,71.235z M391.176,71.235
				c0,0.665,0.098,1.234,0.479,1.519c0.283,0.379,0.664,0.569,1.23,0.569c0.57,0,1.045-0.285,1.521-0.854v-2.753
				c-0.283-0.189-0.477-0.379-0.758-0.475c-0.285-0.095-0.479-0.189-0.764-0.189s-0.475,0.095-0.664,0.189
				c-0.188,0.095-0.379,0.285-0.566,0.475c-0.189,0.19-0.285,0.38-0.381,0.665C391.176,70.571,391.176,70.855,391.176,71.235z"/>
			<path fill="#008299" d="M402.094,73.988h-0.76l-0.096-0.949l0,0c-0.285,0.285-0.568,0.569-0.949,0.759
				c-0.285,0.19-0.76,0.285-1.139,0.285c-0.664,0-1.141-0.19-1.426-0.569c-0.283-0.38-0.475-0.949-0.475-1.708v-3.417h0.949v3.322
				c0,0.57,0.096,0.949,0.285,1.139c0.188,0.285,0.566,0.38,0.947,0.38c0.285,0,0.568-0.095,0.855-0.285
				c0.285-0.189,0.57-0.379,0.854-0.759v-3.797h0.949v5.599H402.094z"/>
			<path fill="#008299" d="M404.086,71.235c0-0.475,0.096-0.854,0.285-1.234s0.381-0.665,0.664-0.949
				c0.285-0.285,0.57-0.475,0.949-0.57c0.381-0.095,0.76-0.19,1.234-0.19s0.854,0.095,1.139,0.285
				c0.285,0.189,0.57,0.379,0.854,0.569l-0.475,0.569c-0.189-0.189-0.475-0.379-0.76-0.475c-0.283-0.095-0.475-0.189-0.76-0.189
				s-0.568,0.095-0.854,0.189c-0.283,0.095-0.477,0.285-0.664,0.475c-0.189,0.19-0.379,0.38-0.477,0.665
				c-0.096,0.285-0.188,0.57-0.188,0.854c0,0.284,0.094,0.57,0.188,0.854c0.098,0.285,0.283,0.475,0.477,0.665
				c0.188,0.189,0.379,0.285,0.664,0.475c0.285,0.095,0.566,0.189,0.854,0.189c0.381,0,0.664-0.095,0.949-0.189
				c0.285-0.095,0.57-0.285,0.76-0.475l0.379,0.569c-0.283,0.285-0.664,0.475-1.043,0.665c-0.381,0.19-0.76,0.19-1.139,0.19
				c-0.475,0-0.855-0.095-1.234-0.19c-0.381-0.095-0.664-0.285-0.949-0.57s-0.475-0.569-0.664-0.949
				C404.086,72.09,404.086,71.71,404.086,71.235z"/>
			<path fill="#008299" d="M412.346,69.242h-1.52v-0.664l1.613-0.095l0.096-1.519h0.76v1.519h2.752v0.759h-2.752V71.9
				c0,0.285,0,0.475,0.094,0.665c0,0.19,0.1,0.379,0.191,0.475c0.094,0.095,0.283,0.19,0.475,0.285
				c0.189,0.095,0.381,0.095,0.664,0.095c0.285,0,0.477,0,0.762-0.095c0.188,0,0.381-0.095,0.566-0.19l0.191,0.665
				c-0.285,0.095-0.477,0.19-0.855,0.19c-0.285,0.095-0.566,0.095-0.947,0.095s-0.762-0.095-1.047-0.19
				c-0.281-0.095-0.475-0.285-0.664-0.475c-0.188-0.189-0.281-0.475-0.379-0.759c-0.096-0.284-0.096-0.569-0.096-0.949v-2.468h0.096
				V69.242L412.346,69.242z"/>
			<path fill="#008299" d="M417.948,69.432c0.381-0.19,0.666-0.475,0.854-0.759c0.191-0.285,0.285-0.665,0.381-1.044
				c-0.096,0-0.189,0.095-0.285,0.095c-0.283,0-0.475-0.095-0.568-0.19c-0.189-0.19-0.189-0.38-0.189-0.57
				c0-0.285,0.098-0.475,0.283-0.664c0.191-0.19,0.381-0.285,0.57-0.285c0.285,0,0.568,0.095,0.76,0.38
				c0.189,0.285,0.285,0.569,0.285,1.044c0,0.57-0.191,1.044-0.477,1.519c-0.283,0.475-0.664,0.759-1.232,1.044L417.948,69.432z
				 M420.606,69.432c0.381-0.19,0.664-0.475,0.854-0.759c0.189-0.285,0.285-0.665,0.381-1.044c-0.096,0-0.189,0.095-0.285,0.095
				c-0.285,0-0.475-0.095-0.568-0.19c-0.191-0.19-0.191-0.38-0.191-0.57c0-0.285,0.096-0.475,0.285-0.664
				c0.189-0.19,0.381-0.285,0.57-0.285c0.283,0,0.568,0.095,0.76,0.38c0.188,0.285,0.283,0.569,0.283,1.044
				c0,0.57-0.189,1.044-0.475,1.519c-0.287,0.475-0.664,0.759-1.232,1.044L420.606,69.432z"/>
			<path d="M426.112,69.052c0-0.285,0.096-0.475,0.285-0.665c0.188-0.19,0.379-0.285,0.662-0.285c0.285,0,0.477,0.095,0.664,0.285
				c0.189,0.19,0.285,0.379,0.285,0.665c0,0.285-0.096,0.475-0.285,0.664c-0.188,0.19-0.379,0.285-0.664,0.285
				c-0.283,0-0.475-0.095-0.662-0.285C426.208,69.622,426.112,69.337,426.112,69.052z M426.112,73.134
				c0-0.285,0.096-0.475,0.285-0.665c0.188-0.188,0.379-0.285,0.662-0.285c0.285,0,0.477,0.095,0.664,0.285
				c0.189,0.19,0.285,0.38,0.285,0.665c0,0.285-0.096,0.475-0.285,0.665c-0.188,0.19-0.379,0.285-0.664,0.285
				c-0.283,0-0.475-0.095-0.662-0.285C426.208,73.704,426.112,73.418,426.112,73.134z"/>
			<path d="M440.254,74.178c0-0.19,0-0.38,0-0.57s0-0.379,0-0.569s0-0.38,0-0.57c0-0.188,0-0.379,0-0.569
				c0-0.095,0-0.19-0.096-0.285c0-0.095-0.094-0.19-0.283-0.285c-0.191-0.095-0.285-0.189-0.475-0.189
				c-0.191-0.095-0.477-0.095-0.855-0.095v-0.569c0.381,0,0.57,0,0.855-0.095c0.188-0.095,0.379-0.095,0.475-0.19
				c0.094-0.095,0.189-0.189,0.283-0.285c0-0.095,0.096-0.19,0.096-0.285c0-0.38,0-0.759-0.096-1.044
				c-0.094-0.285-0.094-0.76-0.094-1.14c0-0.285,0-0.569,0.094-0.759c0.096-0.19,0.189-0.379,0.381-0.475
				c0.189-0.095,0.379-0.19,0.664-0.285c0.285-0.095,0.57-0.095,0.949-0.095h0.664v0.664h-0.568c-0.285,0-0.57,0-0.76,0.095
				c-0.189,0-0.285,0.095-0.477,0.19c-0.094,0.095-0.188,0.189-0.188,0.285c0,0.095-0.096,0.285-0.096,0.475
				c0,0.285,0,0.665,0,1.044s0,0.664,0,1.044s-0.098,0.665-0.189,0.854c-0.189,0.189-0.381,0.285-0.855,0.379l0,0
				c0.381,0.095,0.666,0.19,0.855,0.38s0.189,0.475,0.189,0.854s0,0.759,0,1.044c0,0.285,0,0.665,0,1.044
				c0,0.19,0,0.379,0.096,0.475c0.094,0.095,0.094,0.285,0.188,0.285c0.098,0.095,0.285,0.095,0.477,0.19
				c0.189,0,0.379,0.095,0.76,0.095h0.568v0.57h-0.664c-0.379,0-0.664,0-0.949-0.095c-0.285-0.095-0.475-0.095-0.664-0.285
				c-0.189-0.095-0.285-0.285-0.381-0.475C440.067,74.748,440.254,74.463,440.254,74.178z"/>
			<path fill="#008299" d="M378.836,80.253c-0.381,0.19-0.664,0.475-0.854,0.76c-0.189,0.285-0.285,0.664-0.381,1.044
				c0.096,0,0.189-0.095,0.285-0.095c0.189,0,0.475,0.095,0.568,0.189c0.096,0.095,0.188,0.38,0.188,0.57
				c0,0.285-0.094,0.475-0.281,0.665c-0.189,0.19-0.381,0.285-0.57,0.285c-0.285,0-0.568-0.095-0.76-0.38
				c-0.189-0.285-0.283-0.569-0.283-1.044c0-0.57,0.188-1.044,0.475-1.519c0.283-0.475,0.664-0.854,1.234-1.044L378.836,80.253z
				 M381.497,80.253c-0.381,0.19-0.664,0.475-0.855,0.76c-0.188,0.285-0.283,0.664-0.379,1.044c0.096,0,0.189-0.095,0.285-0.095
				c0.189,0,0.475,0.095,0.568,0.189c0.096,0.095,0.188,0.38,0.188,0.57c0,0.285-0.096,0.475-0.285,0.665
				c-0.188,0.19-0.379,0.285-0.566,0.285c-0.285,0-0.568-0.095-0.76-0.38c-0.189-0.285-0.283-0.569-0.283-1.044
				c0-0.57,0.188-1.044,0.475-1.519c0.283-0.475,0.664-0.854,1.232-1.044L381.497,80.253z"/>
			<path fill="#008299" d="M383.678,82.152h0.76l0.098,0.949l0,0c0.283-0.285,0.566-0.569,0.949-0.759
				c0.379-0.19,0.758-0.285,1.139-0.285c0.664,0,1.139,0.19,1.424,0.569c0.285,0.38,0.475,0.95,0.475,1.709v3.417h-0.949V84.43
				c0-0.569-0.096-0.949-0.283-1.139c-0.191-0.285-0.57-0.379-0.949-0.379c-0.188,0-0.285,0-0.475,0.095
				c-0.191,0.095-0.285,0.095-0.381,0.19c-0.096,0.095-0.285,0.19-0.381,0.285c-0.189,0.095-0.283,0.285-0.475,0.475v3.892h-0.949
				v-5.697H383.678z"/>
			<path fill="#008299" d="M390.417,86.234c0-0.285,0.096-0.569,0.191-0.854c0.094-0.285,0.379-0.475,0.662-0.569
				c0.285-0.095,0.762-0.285,1.234-0.38c0.477-0.095,1.141-0.189,1.805-0.285c0-0.19,0-0.38-0.096-0.569
				c-0.094-0.19-0.094-0.285-0.285-0.475c-0.188-0.189-0.283-0.189-0.475-0.285c-0.189-0.095-0.379-0.095-0.664-0.095
				c-0.379,0-0.76,0.095-1.045,0.19c-0.379,0.095-0.664,0.285-0.855,0.475l-0.379-0.665c0.098-0.095,0.283-0.19,0.477-0.285
				c0.188-0.095,0.379-0.19,0.566-0.285c0.189-0.095,0.479-0.095,0.664-0.189c0.191-0.095,0.479-0.095,0.76-0.095
				c0.764,0,1.33,0.19,1.713,0.665c0.379,0.38,0.566,0.949,0.566,1.614v3.417h-0.76l-0.096-0.759l0,0
				c-0.283,0.285-0.664,0.475-1.043,0.665c-0.381,0.189-0.762,0.285-1.141,0.285c-0.285,0-0.475,0-0.76-0.095
				c-0.189-0.095-0.379-0.189-0.57-0.285c-0.188-0.095-0.283-0.285-0.379-0.475C390.417,86.708,390.417,86.424,390.417,86.234z
				 M391.272,86.139c0,0.189,0,0.285,0.096,0.379c0.096,0.095,0.188,0.19,0.285,0.285c0.096,0.095,0.285,0.095,0.381,0.19
				c0.188,0,0.285,0.095,0.475,0.095c0.285,0,0.664-0.095,0.949-0.19s0.664-0.38,0.949-0.57v-1.424c-0.57,0-1.045,0.095-1.521,0.19
				c-0.475,0.095-0.76,0.19-0.947,0.285c-0.189,0.095-0.383,0.285-0.477,0.38C391.368,85.759,391.272,85.949,391.272,86.139z"/>
			<path fill="#008299" d="M396.967,82.152h0.762l0.096,0.76l0,0c0.096-0.285,0.285-0.475,0.475-0.665s0.477-0.285,0.76-0.285
				c0.568,0,0.949,0.285,1.043,0.949c0.191-0.285,0.381-0.475,0.57-0.665s0.477-0.285,0.76-0.285c0.379,0,0.664,0.189,0.854,0.475
				c0.189,0.285,0.285,0.759,0.285,1.234v3.987h-0.854v-3.892c0-0.665-0.189-0.949-0.568-0.949c-0.191,0-0.381,0.095-0.477,0.19
				c-0.189,0.095-0.285,0.38-0.475,0.665v3.987h-0.76v-3.892c0-0.665-0.189-0.949-0.664-0.949c-0.189,0-0.383,0.095-0.477,0.19
				c-0.096,0.095-0.285,0.38-0.381,0.665v3.987h-0.854v-5.506L396.967,82.152L396.967,82.152z"/>
			<path fill="#008299" d="M403.899,84.905c0-0.475,0.096-0.854,0.281-1.234c0.191-0.38,0.383-0.665,0.666-0.949
				c0.283-0.285,0.568-0.475,0.855-0.57c0.379-0.095,0.664-0.189,1.045-0.189c0.379,0,0.76,0.095,1.043,0.189
				c0.285,0.095,0.57,0.285,0.76,0.57c0.189,0.19,0.381,0.475,0.477,0.854c0.094,0.285,0.188,0.665,0.188,1.044
				c0,0.19,0,0.38,0,0.475h-4.365c0,0.57,0.283,1.044,0.664,1.424c0.379,0.38,0.855,0.57,1.521,0.57c0.285,0,0.664,0,0.854-0.095
				c0.285-0.095,0.57-0.19,0.76-0.38l0.285,0.569c-0.285,0.19-0.568,0.285-0.947,0.475c-0.381,0.095-0.762,0.19-1.234,0.19
				c-0.381,0-0.76-0.095-1.141-0.19c-0.379-0.095-0.664-0.285-0.949-0.569c-0.283-0.285-0.475-0.57-0.664-0.949
				C403.801,85.759,403.899,85.379,403.899,84.905z M408.36,84.43c0-0.569-0.189-1.044-0.477-1.329
				c-0.285-0.285-0.664-0.475-1.23-0.475c-0.191,0-0.479,0-0.666,0.095c-0.189,0.095-0.381,0.19-0.568,0.379
				c-0.189,0.19-0.285,0.285-0.381,0.57c-0.094,0.19-0.189,0.475-0.189,0.759L408.36,84.43L408.36,84.43z"/>
			<path fill="#008299" d="M411.114,83.101c0.379-0.189,0.664-0.475,0.854-0.759c0.189-0.285,0.285-0.665,0.379-1.044
				c-0.094,0-0.188,0.095-0.285,0.095c-0.283,0-0.475-0.095-0.568-0.19c-0.189-0.189-0.189-0.379-0.189-0.569
				c0-0.285,0.098-0.475,0.285-0.665c0.189-0.19,0.379-0.285,0.57-0.285c0.283,0,0.568,0.095,0.758,0.379
				c0.191,0.285,0.285,0.57,0.285,1.044c0,0.569-0.189,1.044-0.475,1.519s-0.666,0.76-1.234,1.044L411.114,83.101z M413.772,83.101
				c0.381-0.189,0.662-0.475,0.854-0.759c0.189-0.284,0.285-0.665,0.381-1.044c-0.096,0-0.189,0.095-0.285,0.095
				c-0.285,0-0.475-0.095-0.568-0.19c-0.189-0.189-0.189-0.379-0.189-0.569c0-0.285,0.094-0.475,0.283-0.665
				c0.189-0.19,0.381-0.285,0.57-0.285c0.283,0,0.568,0.095,0.76,0.379c0.188,0.285,0.285,0.57,0.285,1.044
				c0,0.569-0.191,1.044-0.477,1.519c-0.287,0.475-0.664,0.76-1.232,1.044L413.772,83.101z"/>
			<path d="M419.278,82.722c0-0.285,0.094-0.475,0.281-0.665c0.189-0.19,0.383-0.285,0.664-0.285c0.285,0,0.479,0.095,0.666,0.285
				c0.189,0.19,0.283,0.38,0.283,0.665c0,0.285-0.094,0.475-0.283,0.665c-0.188,0.19-0.381,0.285-0.666,0.285
				c-0.281,0-0.475-0.095-0.664-0.285C419.372,83.291,419.278,83.006,419.278,82.722z M419.278,86.804
				c0-0.285,0.094-0.475,0.281-0.665c0.189-0.19,0.383-0.285,0.664-0.285c0.285,0,0.479,0.095,0.666,0.285
				c0.189,0.189,0.283,0.379,0.283,0.665c0,0.285-0.094,0.475-0.283,0.665c-0.188,0.189-0.381,0.285-0.666,0.285
				c-0.281,0-0.475-0.095-0.664-0.285C419.372,87.373,419.278,87.088,419.278,86.804z"/>
			<path fill="#008299" d="M433.514,80.253c-0.379,0.19-0.664,0.475-0.854,0.76c-0.189,0.285-0.283,0.664-0.379,1.044
				c0.096,0,0.189-0.095,0.285-0.095c0.188,0,0.475,0.095,0.568,0.189c0.094,0.095,0.189,0.38,0.189,0.57
				c0,0.285-0.096,0.475-0.285,0.665c-0.189,0.19-0.379,0.285-0.568,0.285c-0.285,0-0.568-0.095-0.76-0.38
				c-0.189-0.285-0.285-0.569-0.285-1.044c0-0.57,0.189-1.044,0.477-1.519c0.283-0.475,0.664-0.854,1.232-1.044L433.514,80.253z
				 M436.172,80.253c-0.379,0.19-0.664,0.475-0.854,0.76c-0.189,0.285-0.285,0.664-0.379,1.044c0.094,0,0.189-0.095,0.283-0.095
				c0.189,0,0.477,0.095,0.57,0.189c0.094,0.095,0.189,0.38,0.189,0.57c0,0.285-0.098,0.475-0.285,0.665
				c-0.189,0.19-0.379,0.285-0.568,0.285c-0.285,0-0.57-0.095-0.76-0.38c-0.191-0.285-0.285-0.569-0.285-1.044
				c0-0.57,0.189-1.044,0.475-1.519s0.664-0.854,1.234-1.044L436.172,80.253z"/>
			<path fill="#008299" d="M438.418,83.861c0-0.57,0.096-1.139,0.285-1.614s0.381-0.854,0.664-1.234
				c0.285-0.38,0.666-0.57,1.045-0.76s0.854-0.285,1.33-0.285c0.475,0,0.854,0.095,1.232,0.285s0.664,0.38,0.854,0.665l-0.568,0.57
				c-0.188-0.19-0.381-0.38-0.666-0.475c-0.281-0.095-0.566-0.19-0.854-0.19c-0.379,0-0.664,0.095-0.949,0.19
				c-0.285,0.095-0.57,0.379-0.76,0.569c-0.189,0.285-0.379,0.569-0.475,0.949c-0.096,0.38-0.189,0.759-0.189,1.234
				s0.096,0.854,0.189,1.234c0.096,0.379,0.283,0.665,0.475,0.949c0.189,0.285,0.475,0.475,0.76,0.569
				c0.285,0.19,0.57,0.19,0.949,0.19s0.664-0.095,0.949-0.19c0.283-0.19,0.475-0.379,0.76-0.569l0.568,0.569
				c-0.285,0.38-0.664,0.57-1.045,0.76c-0.379,0.19-0.758,0.285-1.232,0.285c-0.477,0-0.949-0.095-1.328-0.285
				c-0.381-0.19-0.76-0.475-1.045-0.76c-0.285-0.285-0.57-0.759-0.664-1.234C438.61,84.808,438.418,84.525,438.418,83.861z"/>
			<path fill="#008299" d="M445.446,86.234c0-0.285,0.096-0.569,0.188-0.854c0.094-0.285,0.379-0.475,0.664-0.569
				c0.285-0.095,0.76-0.285,1.234-0.38c0.475-0.095,1.139-0.189,1.803-0.285c0-0.19,0-0.38-0.094-0.569
				c-0.096-0.19-0.096-0.285-0.285-0.475c-0.189-0.189-0.285-0.189-0.475-0.285c-0.189-0.095-0.381-0.095-0.664-0.095
				c-0.381,0-0.762,0.095-1.045,0.19c-0.379,0.095-0.664,0.285-0.854,0.475l-0.381-0.665c0.096-0.095,0.285-0.19,0.475-0.285
				s0.381-0.19,0.57-0.285c0.189-0.095,0.475-0.095,0.664-0.189c0.188-0.095,0.475-0.095,0.76-0.095c0.76,0,1.328,0.19,1.709,0.665
				c0.379,0.38,0.568,0.949,0.568,1.614v3.417h-0.758l-0.1-0.759l0,0c-0.281,0.285-0.664,0.475-1.043,0.665
				c-0.381,0.189-0.76,0.285-1.139,0.285c-0.285,0-0.477,0-0.76-0.095c-0.191-0.095-0.381-0.189-0.57-0.285
				c-0.189-0.095-0.285-0.285-0.379-0.475C445.444,86.71,445.446,86.424,445.446,86.234z M446.297,86.139
				c0,0.189,0,0.285,0.098,0.379c0.096,0.095,0.188,0.19,0.283,0.285c0.098,0.095,0.285,0.095,0.379,0.19
				c0.191,0,0.285,0.095,0.479,0.095c0.285,0,0.664-0.095,0.949-0.19c0.281-0.095,0.664-0.38,0.945-0.57v-1.424
				c-0.566,0-1.043,0.095-1.518,0.19c-0.477,0.095-0.76,0.19-0.949,0.285c-0.188,0.095-0.381,0.285-0.475,0.38
				C446.395,85.759,446.297,85.949,446.297,86.139z"/>
			<path fill="#008299" d="M452.565,79.494h0.947V85l0,0l3.037-2.943h1.045l-2.184,2.184l2.469,3.322h-1.045l-1.994-2.753
				l-1.328,1.234v1.519h-0.947V79.494L452.565,79.494z"/>
			<path fill="#008299" d="M458.924,84.905c0-0.475,0.094-0.854,0.283-1.234c0.191-0.38,0.381-0.665,0.666-0.949
				c0.285-0.284,0.568-0.475,0.854-0.57c0.383-0.095,0.664-0.189,1.045-0.189s0.762,0.095,1.045,0.189
				c0.283,0.095,0.568,0.285,0.76,0.57c0.188,0.19,0.381,0.475,0.475,0.854c0.096,0.285,0.189,0.665,0.189,1.044
				c0,0.19,0,0.38,0,0.475h-4.365c0,0.57,0.285,1.044,0.664,1.424s0.854,0.57,1.52,0.57c0.283,0,0.664,0,0.854-0.095
				c0.285-0.095,0.568-0.19,0.76-0.38l0.285,0.569c-0.285,0.19-0.57,0.285-0.949,0.475c-0.381,0.095-0.76,0.19-1.232,0.19
				c-0.383,0-0.762-0.095-1.141-0.19c-0.381-0.095-0.666-0.285-0.947-0.569c-0.285-0.285-0.479-0.57-0.666-0.949
				C458.831,85.759,458.924,85.379,458.924,84.905z M463.385,84.43c0-0.569-0.188-1.044-0.475-1.329
				c-0.285-0.285-0.664-0.475-1.234-0.475c-0.188,0-0.475,0-0.664,0.095c-0.188,0.095-0.379,0.19-0.566,0.379
				c-0.189,0.19-0.285,0.285-0.381,0.57c-0.098,0.19-0.189,0.475-0.189,0.759L463.385,84.43L463.385,84.43z"/>
			<path fill="#008299" d="M466.139,83.101c0.381-0.189,0.664-0.475,0.855-0.759c0.188-0.285,0.285-0.665,0.381-1.044
				c-0.096,0-0.189,0.095-0.285,0.095c-0.285,0-0.475-0.095-0.57-0.19c-0.188-0.189-0.188-0.379-0.188-0.569
				c0-0.285,0.094-0.475,0.285-0.665c0.188-0.19,0.379-0.285,0.568-0.285c0.281,0,0.566,0.095,0.76,0.379
				c0.188,0.285,0.283,0.57,0.283,1.044c0,0.569-0.189,1.044-0.477,1.519c-0.285,0.475-0.664,0.76-1.232,1.044L466.139,83.101z
				 M468.795,83.101c0.381-0.189,0.666-0.475,0.855-0.759c0.189-0.285,0.283-0.665,0.379-1.044c-0.096,0-0.189,0.095-0.285,0.095
				c-0.283,0-0.475-0.095-0.568-0.19c-0.188-0.189-0.188-0.379-0.188-0.569c0-0.285,0.096-0.475,0.285-0.665
				c0.188-0.19,0.379-0.285,0.566-0.285c0.285,0,0.57,0.095,0.76,0.379c0.189,0.285,0.285,0.57,0.285,1.044
				c0,0.569-0.188,1.044-0.475,1.519c-0.285,0.475-0.666,0.76-1.234,1.044L468.795,83.101z"/>
			<path d="M474.114,89.461c0.475-0.19,0.854-0.475,1.045-0.759c0.188-0.285,0.379-0.665,0.379-1.139h-0.094h-0.098
				c-0.283,0-0.475-0.095-0.666-0.19c-0.188-0.095-0.281-0.379-0.281-0.665c0-0.285,0.096-0.475,0.281-0.665
				c0.191-0.19,0.383-0.19,0.666-0.19c0.379,0,0.568,0.095,0.762,0.38c0.188,0.285,0.281,0.665,0.281,1.044
				c0,0.665-0.188,1.234-0.566,1.708c-0.379,0.475-0.855,0.759-1.521,1.044L474.114,89.461z"/>
			<path d="M363.838,102.136c0.283,0,0.568,0,0.758-0.095c0.191,0,0.285-0.095,0.479-0.19c0.188-0.095,0.188-0.19,0.188-0.285
				c0-0.095,0.098-0.285,0.098-0.475c0-0.38,0-0.665,0-1.044c0-0.285,0-0.665,0-1.044s0.094-0.664,0.188-0.854
				c0.191-0.19,0.381-0.285,0.855-0.38l0,0c-0.381-0.095-0.664-0.19-0.855-0.38c-0.188-0.189-0.188-0.475-0.188-0.854
				c0-0.38,0-0.665,0-1.044c0-0.379,0-0.665,0-1.044c0-0.19,0-0.38-0.098-0.475c-0.096-0.095-0.096-0.285-0.188-0.285
				c-0.098,0-0.285-0.095-0.479-0.19c-0.188-0.095-0.379-0.095-0.758-0.095h-0.57v-0.569h0.664c0.383,0,0.664,0,0.949,0.095
				c0.285,0.095,0.479,0.095,0.664,0.285c0.191,0.19,0.285,0.285,0.381,0.475s0.096,0.475,0.096,0.76c0,0.379,0,0.759-0.096,1.139
				c-0.096,0.379-0.096,0.759-0.096,1.044c0,0.095,0,0.19,0.096,0.285c0,0.095,0.096,0.19,0.285,0.285
				c0.094,0.095,0.283,0.189,0.477,0.189c0.188,0.095,0.475,0.095,0.854,0.095v0.569c-0.379,0-0.568,0-0.854,0.095
				c-0.189,0.095-0.383,0.095-0.477,0.19c-0.096,0.095-0.189,0.189-0.285,0.285c0,0.095-0.096,0.19-0.096,0.285
				c0,0.19,0,0.38,0,0.569c0,0.19,0,0.38,0,0.57c0,0.19,0,0.38,0,0.569c0,0.19,0,0.38,0,0.57c0,0.285,0,0.569-0.094,0.759
				c-0.096,0.19-0.191,0.38-0.381,0.475c-0.189,0.095-0.381,0.19-0.664,0.285c-0.285,0.095-0.57,0.095-0.949,0.095h-0.664v-0.57
				h0.76V102.136z"/>
			<path d="M350.168,115.806c0.285,0,0.568,0,0.76-0.095c0.189,0,0.283-0.095,0.477-0.19c0.188-0.095,0.188-0.19,0.188-0.285
				c0-0.095,0.096-0.285,0.096-0.475c0-0.38,0-0.665,0-1.044c0-0.285,0-0.665,0-1.044c0-0.38,0.098-0.665,0.189-0.854
				c0.189-0.19,0.379-0.285,0.855-0.38l0,0c-0.383-0.095-0.664-0.189-0.855-0.379c-0.189-0.19-0.189-0.475-0.189-0.854
				s0-0.665,0-1.044s0-0.664,0-1.044c0-0.19,0-0.38-0.096-0.475s-0.096-0.285-0.188-0.285c-0.094,0-0.285-0.095-0.477-0.19
				c-0.188-0.095-0.381-0.095-0.76-0.095h-0.57v-0.475h0.664c0.383,0,0.666,0,0.949,0.095c0.285,0.095,0.477,0.095,0.666,0.285
				s0.283,0.285,0.379,0.475c0.098,0.19,0.098,0.475,0.098,0.759c0,0.38,0,0.76-0.098,1.139c-0.096,0.38-0.096,0.76-0.096,1.044
				c0,0.095,0,0.19,0.096,0.285c0,0.095,0.098,0.19,0.285,0.285c0.094,0.095,0.285,0.19,0.475,0.19
				c0.189,0.095,0.477,0.095,0.855,0.095v0.569c-0.379,0-0.568,0-0.855,0.095c-0.188,0.095-0.381,0.095-0.475,0.19
				c-0.096,0.095-0.188,0.19-0.285,0.285c0,0.095-0.096,0.19-0.096,0.285c0,0.19,0,0.379,0,0.569s0,0.38,0,0.57s0,0.379,0,0.569
				c0,0.19,0,0.38,0,0.57c0,0.285,0,0.569-0.094,0.759c-0.096,0.19-0.189,0.38-0.381,0.475c-0.189,0.095-0.379,0.19-0.664,0.285
				c-0.285,0.095-0.568,0.095-0.949,0.095h-0.664v-0.57h0.76V115.806L350.168,115.806z"/>
			<path d="M336.5,129.476c0.285,0,0.57,0,0.76-0.095c0.189,0,0.285-0.095,0.475-0.189c0.189-0.095,0.189-0.19,0.189-0.285
				c0-0.095,0.096-0.285,0.096-0.475c0-0.379,0-0.665,0-1.044c0-0.285,0-0.665,0-1.044c0-0.379,0.096-0.665,0.189-0.854
				c0.189-0.189,0.379-0.285,0.854-0.379l0,0c-0.381-0.095-0.664-0.19-0.854-0.38s-0.189-0.475-0.189-0.854s0-0.664,0-1.044
				s0-0.665,0-1.044c0-0.19,0-0.379-0.096-0.475c-0.096-0.095-0.096-0.285-0.189-0.285s-0.285-0.095-0.475-0.19
				c-0.189-0.095-0.381-0.095-0.76-0.095h-0.57v-0.57h0.666c0.379,0,0.664,0,0.949,0.095c0.283,0.095,0.475,0.095,0.664,0.285
				s0.285,0.285,0.379,0.475c0.096,0.19,0.096,0.475,0.096,0.759c0,0.38,0,0.76-0.096,1.139c-0.094,0.38-0.094,0.76-0.094,1.044
				c0,0.095,0,0.19,0.094,0.285c0,0.095,0.096,0.19,0.285,0.285c0.096,0.095,0.285,0.19,0.475,0.19
				c0.189,0.095,0.477,0.095,0.855,0.095v0.569c-0.379,0-0.57,0-0.855,0.095c-0.189,0.095-0.379,0.095-0.475,0.189
				c-0.096,0.095-0.189,0.19-0.285,0.285c0,0.095-0.094,0.189-0.094,0.285c0,0.19,0,0.379,0,0.569s0,0.38,0,0.57s0,0.379,0,0.569
				s0,0.38,0,0.57c0,0.285,0,0.569-0.096,0.759c-0.098,0.19-0.189,0.38-0.383,0.475c-0.188,0.095-0.379,0.19-0.664,0.285
				c-0.281,0.095-0.566,0.095-0.947,0.095h-0.664v-0.57h0.76V129.476z"/>
		</g>
	</g>
	<g>
		<path fill="#E5A021" d="M275.532,334.451h-23.923c-4.177,0-7.5-3.322-7.5-7.5v-172.39c0-4.177,3.323-7.499,7.5-7.499h23.923
			c4.176,0,7.498,3.322,7.498,7.499v172.39C283.125,331.033,279.708,334.451,275.532,334.451z"/>
		<g>
			<path fill="#FFFFFF" d="M252.463,287.27c0-4.649,2.373-6.835,2.373-6.835l1.994,1.521c0,0-1.898,2.088-1.898,5.221
				c0,3.797,3.038,6.93,7.404,6.93c4.461,0,7.5-3.038,7.5-6.93c0-3.418-2.375-5.506-2.375-5.506h-1.897
				c-0.379,0-0.569,0.188-0.569,0.568v1.141h-2.373v-2.469c0-1.234,0.476-1.709,1.709-1.709h7.783v2.373h-1.234
				c-0.379,0-0.854,0-0.854,0v0.096c0,0,2.373,2.184,2.373,5.979c0,5.126-3.986,9.396-10.062,9.396
				C256.735,296.955,252.463,292.776,252.463,287.27z"/>
			<path fill="#FFFFFF" d="M261.102,275.309c-0.38,0-0.57,0.188-0.57,0.567v1.142h-2.277v-2.47c0-1.232,0.475-1.803,1.613-1.803
				h0.854c0.569,0,0.948,0.094,0.948,0.094v-0.094c-1.992-0.666-3.606-2.279-3.606-4.367c0-0.381,0.095-0.664,0.095-0.664h2.658
				c0,0-0.095,0.381-0.095,0.76c0,1.709,1.233,3.229,3.228,3.895c0.76,0.282,1.614,0.282,2.469,0.282h5.601v2.658H261.102
				L261.102,275.309z"/>
			<path fill="#FFFFFF" d="M263.379,258.602v-0.567h-0.094c-2.469,0-3.322,0.854-3.322,3.035c0,0.665,0.189,2.279,1.043,2.279h0.761
				v2.467h-1.329c-2.277,0-2.562-3.417-2.562-4.746c0-4.461,2.373-5.693,5.41-5.693h5.887c0.38,0,0.568-0.189,0.568-0.57v-1.139
				h2.278v2.469c0,1.234-0.569,1.709-1.614,1.709c-0.475,0-0.854-0.096-0.854-0.096v0.096c0,0,2.753,1.043,2.753,4.365
				c0,2.373-1.425,4.65-4.177,4.65C263.665,266.861,263.379,260.878,263.379,258.602z M270.215,261.64
				c0-2.279-2.373-3.703-4.366-3.703h-0.476v0.665c0,1.993,0.096,5.603,2.658,5.603C269.077,264.205,270.215,263.349,270.215,261.64
				z"/>
			<path fill="#FFFFFF" d="M261.102,250.723c-0.38,0-0.57,0.188-0.57,0.567v1.141h-2.277v-2.469c0-1.232,0.475-1.709,1.424-1.709
				c0.379,0,0.759,0,0.759,0v-0.096c0,0-2.468-1.139-2.468-4.557c0-3.702,2.943-6.075,7.215-6.075c4.367,0,7.214,2.658,7.214,6.267
				c0,3.037-2.185,4.178-2.185,4.178v0.095c0,0,0.476-0.095,1.234-0.095h6.17v2.656H261.1v0.097H261.102z M270.025,244.268
				c0-2.185-1.804-3.985-4.937-3.985c-3.039,0-4.937,1.612-4.937,3.893c0,2.088,1.425,3.986,4.937,3.986
				C267.557,248.253,270.025,246.833,270.025,244.268z"/>
			<path fill="#FFFFFF" d="M255.596,234.68c-0.381,0-0.57,0.19-0.57,0.569v1.14h-2.277v-2.658c0-1.233,0.475-1.709,1.707-1.709
				h5.412c0.663,0,1.139,0.095,1.139,0.095v-0.095c-1.33-0.569-3.039-2.373-3.039-5.126c0-3.229,1.805-4.746,5.316-4.746h5.98
				c0.38,0,0.57-0.189,0.57-0.57v-1.139h2.277v2.562c0,1.234-0.475,1.709-1.709,1.709h-6.455c-1.898,0-3.416,0.379-3.416,2.658
				c0,2.088,1.424,3.797,3.416,4.367c0.57,0.189,1.139,0.285,1.805,0.285h6.455v2.658L255.596,234.68L255.596,234.68z"/>
			<path fill="#FFFFFF" d="M252.463,209.145c0-5.601,4.271-9.873,9.873-9.873c2.373,0,4.65,0.854,6.359,2.278l2.184-2.184
				l1.709,1.614l-2.185,2.183c1.329,1.709,2.089,3.797,2.089,5.98c0,5.602-4.461,9.873-10.062,9.873
				C256.735,219.017,252.463,214.746,252.463,209.145z M269.741,209.145c0-2.563-1.33-4.082-1.33-4.082l-2.088,2.088l-1.804-1.612
				l2.183-2.09c-1.234-0.854-2.848-1.424-4.461-1.424c-4.177,0-7.31,3.133-7.31,7.12c0,3.892,3.133,7.024,7.31,7.024
				C266.513,216.169,269.741,213.13,269.741,209.145z"/>
			<path fill="#FFFFFF" d="M255.691,195.475c-0.379,0-0.569,0.19-0.569,0.569v1.139h-2.373v-2.658c0-1.234,0.476-1.709,1.709-1.709
				h14.523c0.38,0,0.57-0.189,0.57-0.568v-5.316c0-0.381-0.19-0.57-0.57-0.57h-1.234v-2.468h2.469c1.234,0,1.709,0.475,1.709,1.709
				v8.259c0,1.234-0.475,1.708-1.709,1.708h-14.524V195.475z"/>
		</g>
	</g>
	<g>
		<g>
			<path fill="#DDF5FF" d="M480.405,295.978H361.262c-4.34,0-8.352-1.876-10.889-5.1l-14.658-18.521v120.201
				c0,3.372,3.029,6.146,6.715,6.146h138.055c3.686,0,6.715-2.773,6.715-6.146v-90.435
				C487.118,298.751,484.086,295.978,480.405,295.978z"/>
		</g>
		<g>
			<path fill="#6952A1" d="M351.094,330.693c0-0.477,0.098-0.854,0.189-1.232c0.094-0.381,0.285-0.664,0.568-0.949
				c0.189-0.285,0.477-0.475,0.76-0.569c0.285-0.095,0.666-0.19,0.949-0.19c0.381,0,0.664,0.097,0.949,0.19
				c0.285,0.095,0.57,0.284,0.76,0.569l0,0l0.096-0.569h0.76v7.878h-0.949v-1.992v-1.045c-0.285,0.189-0.475,0.475-0.854,0.569
				c-0.285,0.19-0.666,0.284-0.949,0.284c-0.381,0-0.666-0.094-0.949-0.188c-0.285-0.097-0.568-0.285-0.76-0.57
				c-0.189-0.285-0.381-0.568-0.475-0.949C351.19,331.546,351.094,331.167,351.094,330.693z M352.043,330.693
				c0,0.664,0.094,1.232,0.477,1.52c0.283,0.381,0.662,0.57,1.232,0.57c0.568,0,1.043-0.285,1.521-0.855v-2.656
				c-0.285-0.189-0.479-0.38-0.764-0.475c-0.281-0.096-0.475-0.19-0.758-0.19c-0.285,0-0.475,0.095-0.666,0.19
				c-0.188,0.095-0.379,0.283-0.566,0.475c-0.189,0.189-0.285,0.379-0.383,0.664C352.137,330.125,352.043,330.41,352.043,330.693z"
				/>
			<path fill="#6952A1" d="M362.959,333.447h-0.76l-0.096-0.949l0,0c-0.283,0.285-0.568,0.568-0.947,0.76
				c-0.285,0.189-0.762,0.285-1.141,0.285c-0.664,0-1.139-0.19-1.424-0.569c-0.285-0.38-0.475-0.949-0.475-1.71v-3.418h0.949v3.324
				c0,0.568,0.094,0.949,0.281,1.139c0.189,0.285,0.57,0.38,0.949,0.38c0.285,0,0.57-0.095,0.855-0.284
				c0.283-0.189,0.568-0.38,0.854-0.76v-3.797h0.949v5.6H362.959L362.959,333.447z"/>
			<path fill="#6952A1" d="M364.86,330.693c0-0.477,0.096-0.854,0.281-1.232c0.191-0.381,0.383-0.664,0.666-0.949
				s0.568-0.475,0.855-0.569c0.379-0.095,0.664-0.19,1.045-0.19c0.379,0,0.76,0.097,1.043,0.19c0.285,0.095,0.57,0.284,0.76,0.569
				c0.189,0.189,0.381,0.475,0.477,0.854c0.094,0.284,0.188,0.664,0.188,1.045c0,0.188,0,0.379,0,0.475h-4.365
				c0,0.568,0.283,1.043,0.664,1.425c0.381,0.38,0.855,0.567,1.521,0.567c0.285,0,0.664,0,0.854-0.094
				c0.285-0.096,0.57-0.189,0.762-0.381l0.283,0.57c-0.283,0.189-0.568,0.283-0.947,0.475c-0.381,0.096-0.762,0.189-1.234,0.189
				c-0.381,0-0.76-0.096-1.141-0.189c-0.379-0.095-0.664-0.285-0.949-0.57c-0.283-0.283-0.475-0.567-0.664-0.949
				C364.762,331.546,364.86,331.167,364.86,330.693z M369.321,330.313c0-0.567-0.189-1.044-0.477-1.329
				c-0.285-0.283-0.664-0.477-1.23-0.477c-0.191,0-0.479,0-0.666,0.097c-0.189,0.097-0.379,0.188-0.568,0.38
				s-0.285,0.285-0.381,0.568c-0.094,0.189-0.189,0.476-0.189,0.761H369.321z"/>
			<path fill="#6952A1" d="M372.547,327.94h0.76l0.098,1.329l0,0c0.283-0.477,0.664-0.762,1.045-1.045
				c0.379-0.284,0.854-0.381,1.424-0.381c0.188,0,0.379,0,0.568,0.097c0.188,0,0.381,0.097,0.475,0.188l-0.189,0.854
				c-0.189-0.097-0.379-0.097-0.475-0.188c-0.096,0-0.285,0-0.57,0c-0.379,0-0.854,0.096-1.232,0.379
				c-0.379,0.285-0.76,0.666-1.045,1.234v3.229h-0.949v-5.695L372.547,327.94L372.547,327.94z"/>
			<path fill="#6952A1" d="M378.909,335.059c0.096,0,0.188,0,0.285,0c0.381,0,0.664-0.095,0.947-0.379
				c0.285-0.188,0.477-0.476,0.568-0.854l0.191-0.381l-2.564-5.506h0.949l1.33,3.037c0.094,0.285,0.188,0.475,0.379,0.76
				c0.096,0.285,0.189,0.568,0.381,0.854l0,0c0.094-0.285,0.189-0.567,0.283-0.854c0.096-0.285,0.189-0.568,0.285-0.76l1.232-3.037
				h0.855l-2.469,5.98c-0.098,0.285-0.189,0.57-0.383,0.76c-0.094,0.189-0.281,0.475-0.475,0.57
				c-0.189,0.188-0.379,0.283-0.664,0.379s-0.57,0.188-0.854,0.188c-0.285,0-0.475,0-0.76-0.094l0.189-0.762
				C378.813,334.964,378.909,335.059,378.909,335.059z"/>
			<path d="M392.387,325.947h1.045l1.043,3.133l0.383,1.233l0,0l0.381-1.233l1.043-3.133h1.045v7.5h-0.855v-4.178
				c0-0.189,0-0.285,0-0.568c0-0.285,0-0.381,0-0.664c0-0.191,0-0.381,0-0.57s0-0.379,0-0.569l0,0l-0.475,1.614l-1.043,2.848h-0.381
				l-1.043-2.848l-0.479-1.614l0,0c0,0.19,0,0.285,0,0.569c0,0.189,0,0.379,0,0.57c0,0.188,0,0.379,0,0.664c0,0.283,0,0.379,0,0.568
				v4.178h-0.76v-7.5H392.387z"/>
			<path d="M399.415,335.059c0.094,0,0.188,0,0.283,0c0.381,0,0.666-0.095,0.949-0.379c0.283-0.188,0.475-0.476,0.568-0.854
				l0.189-0.381l-2.562-5.506h0.949l1.328,3.037c0.096,0.285,0.189,0.475,0.379,0.76c0.096,0.285,0.191,0.568,0.381,0.854l0,0
				c0.094-0.285,0.189-0.567,0.285-0.854c0.094-0.285,0.189-0.568,0.283-0.76l1.234-3.037h0.854l-2.469,5.98
				c-0.096,0.285-0.189,0.57-0.379,0.76c-0.096,0.189-0.285,0.475-0.475,0.57c-0.189,0.188-0.381,0.283-0.666,0.379
				c-0.283,0.096-0.568,0.188-0.854,0.188c-0.283,0-0.477,0-0.762-0.094l0.189-0.762
				C399.319,334.964,399.415,335.059,399.415,335.059z"/>
			<path d="M406.249,325.947h2.277c0.381,0,0.76,0,1.141,0.096c0.379,0.096,0.664,0.188,0.854,0.379
				c0.283,0.189,0.381,0.381,0.568,0.666c0.096,0.283,0.191,0.664,0.191,1.043c0,0.381-0.1,0.761-0.191,1.045
				c-0.094,0.285-0.285,0.57-0.568,0.76c-0.285,0.189-0.568,0.285-0.854,0.475c-0.381,0.096-0.76,0.096-1.141,0.096h-1.328v2.943
				h-0.949V325.947z M408.43,329.746c0.664,0,1.143-0.098,1.426-0.381c0.283-0.285,0.475-0.664,0.475-1.141
				c0-0.569-0.189-0.949-0.475-1.141c-0.283-0.188-0.855-0.285-1.426-0.285h-1.23v2.943h1.23V329.746z"/>
			<path d="M413.555,327.94h0.764l0.094,1.329l0,0c0.285-0.477,0.666-0.762,1.045-1.045c0.379-0.284,0.854-0.381,1.424-0.381
				c0.189,0,0.381,0,0.57,0.097c0.188,0,0.379,0.097,0.475,0.188l-0.189,0.854c-0.189-0.097-0.379-0.097-0.475-0.188
				c-0.096,0-0.285,0-0.57,0c-0.381,0-0.854,0.096-1.232,0.379c-0.381,0.285-0.76,0.666-1.045,1.234v3.229h-0.949v-5.695
				L413.555,327.94L413.555,327.94z"/>
			<path d="M419.444,330.693c0-0.477,0.094-0.854,0.188-1.232c0.094-0.381,0.379-0.664,0.568-0.949s0.568-0.475,0.854-0.569
				c0.287-0.094,0.664-0.19,1.045-0.19s0.762,0.097,1.043,0.19c0.285,0.095,0.666,0.284,0.855,0.569
				c0.285,0.285,0.475,0.568,0.568,0.949c0.096,0.379,0.189,0.76,0.189,1.232s-0.094,0.854-0.189,1.232
				c-0.096,0.381-0.379,0.664-0.568,0.949c-0.285,0.285-0.57,0.476-0.855,0.569c-0.281,0.095-0.662,0.188-1.043,0.188
				s-0.76-0.094-1.045-0.188c-0.285-0.096-0.664-0.284-0.854-0.569c-0.285-0.285-0.475-0.568-0.568-0.949
				C419.538,331.546,419.444,331.167,419.444,330.693z M420.391,330.693c0,0.284,0,0.568,0.098,0.854
				c0.096,0.283,0.188,0.476,0.379,0.664c0.188,0.188,0.381,0.285,0.57,0.476c0.188,0.097,0.475,0.188,0.76,0.188
				s0.475-0.096,0.76-0.188c0.188-0.097,0.379-0.285,0.568-0.476c0.188-0.189,0.285-0.381,0.381-0.664
				c0.094-0.285,0.094-0.569,0.094-0.854c0-0.283,0-0.568-0.094-0.854c-0.096-0.285-0.189-0.475-0.381-0.664
				c-0.189-0.189-0.381-0.379-0.568-0.475c-0.191-0.097-0.475-0.189-0.76-0.189s-0.479,0.095-0.76,0.189
				c-0.189,0.096-0.383,0.283-0.57,0.475c-0.189,0.189-0.283,0.379-0.379,0.664C420.487,330.125,420.391,330.41,420.391,330.693z"/>
			<path d="M426.278,330.693c0-0.477,0.096-0.854,0.188-1.232c0.098-0.381,0.285-0.664,0.57-0.949
				c0.188-0.285,0.475-0.475,0.758-0.569c0.285-0.095,0.666-0.19,0.949-0.19c0.381,0,0.666,0.097,0.854,0.19
				c0.285,0.095,0.479,0.284,0.764,0.569v-1.045v-2.088h0.945v8.067h-0.76l-0.094-0.76l0,0c-0.189,0.188-0.477,0.476-0.855,0.567
				c-0.379,0.098-0.664,0.285-0.945,0.285c-0.383,0-0.664-0.095-0.949-0.188c-0.285-0.097-0.57-0.284-0.76-0.569
				c-0.189-0.283-0.383-0.568-0.477-0.947C426.374,331.546,426.278,331.167,426.278,330.693z M427.225,330.693
				c0,0.664,0.098,1.232,0.479,1.52c0.285,0.381,0.664,0.57,1.23,0.57c0.57,0,1.047-0.285,1.521-0.855v-2.656
				c-0.283-0.189-0.475-0.38-0.758-0.475c-0.285-0.096-0.479-0.19-0.764-0.19c-0.281,0-0.475,0.095-0.662,0.19
				c-0.189,0.095-0.381,0.283-0.568,0.475c-0.189,0.189-0.285,0.379-0.381,0.664C427.323,330.125,427.225,330.41,427.225,330.693z"
				/>
			<path d="M438.145,333.447h-0.762l-0.096-0.949l0,0c-0.285,0.285-0.568,0.568-0.949,0.76c-0.285,0.189-0.76,0.285-1.139,0.285
				c-0.664,0-1.141-0.19-1.424-0.569c-0.285-0.38-0.477-0.949-0.477-1.71v-3.418h0.949v3.324c0,0.568,0.096,0.949,0.285,1.139
				c0.188,0.285,0.566,0.38,0.949,0.38c0.283,0,0.566-0.095,0.854-0.284c0.285-0.189,0.57-0.38,0.855-0.76v-3.797h0.945v5.6H438.145
				L438.145,333.447z"/>
			<path d="M440.135,330.693c0-0.477,0.098-0.854,0.285-1.232c0.189-0.381,0.381-0.664,0.664-0.949
				c0.285-0.285,0.57-0.475,0.949-0.569c0.381-0.095,0.76-0.19,1.234-0.19s0.854,0.097,1.139,0.285
				c0.285,0.189,0.57,0.381,0.854,0.569l-0.475,0.569c-0.189-0.189-0.475-0.379-0.758-0.475c-0.285-0.097-0.477-0.189-0.762-0.189
				c-0.283,0-0.568,0.095-0.854,0.189c-0.283,0.096-0.475,0.283-0.664,0.475c-0.189,0.189-0.379,0.379-0.475,0.664
				c-0.098,0.285-0.189,0.57-0.189,0.854c0,0.284,0.094,0.568,0.189,0.854c0.096,0.283,0.281,0.476,0.475,0.664
				c0.189,0.188,0.381,0.285,0.664,0.476c0.285,0.097,0.57,0.188,0.854,0.188c0.381,0,0.664-0.096,0.949-0.188
				s0.57-0.285,0.76-0.476l0.381,0.568c-0.285,0.285-0.664,0.475-1.045,0.665c-0.381,0.188-0.76,0.188-1.139,0.188
				c-0.475,0-0.854-0.094-1.234-0.188c-0.381-0.094-0.664-0.284-0.949-0.569c-0.283-0.285-0.475-0.568-0.664-0.949
				C440.135,331.546,440.135,331.167,440.135,330.693z"/>
			<path d="M448.491,328.701h-1.521v-0.664l1.615-0.097l0.094-1.521h0.762v1.521h2.754v0.761h-2.754v2.656
				c0,0.285,0,0.477,0.096,0.665c0,0.188,0.096,0.379,0.188,0.476c0.098,0.096,0.285,0.188,0.477,0.285
				c0.188,0.094,0.381,0.094,0.664,0.094c0.285,0,0.475,0,0.76-0.094c0.189,0,0.381-0.097,0.57-0.189l0.188,0.664
				c-0.285,0.095-0.475,0.189-0.854,0.189c-0.285,0.096-0.57,0.096-0.949,0.096c-0.381,0-0.76-0.096-1.045-0.19
				s-0.475-0.284-0.664-0.476c-0.189-0.188-0.285-0.476-0.381-0.758c-0.096-0.285-0.096-0.57-0.096-0.949v-2.469H448.491z"/>
			<path d="M462.729,333.634c0-0.188,0-0.381,0-0.568c0-0.189,0-0.38,0-0.568c0-0.189,0-0.379,0-0.57c0-0.188,0-0.379,0-0.568
				c0-0.096,0-0.189-0.096-0.285c0-0.095-0.096-0.189-0.285-0.283c-0.188-0.096-0.281-0.189-0.475-0.189
				c-0.189-0.096-0.475-0.096-0.854-0.096v-0.568c0.379,0,0.568,0,0.854-0.096c0.189-0.096,0.379-0.096,0.475-0.189
				c0.098-0.094,0.189-0.188,0.285-0.283c0-0.096,0.096-0.189,0.096-0.285c0-0.379,0-0.76-0.096-1.043
				c-0.096-0.285-0.096-0.762-0.096-1.142c0-0.284,0-0.567,0.096-0.76c0.096-0.188,0.189-0.38,0.379-0.476
				c0.189-0.095,0.383-0.188,0.664-0.285c0.285-0.094,0.57-0.094,0.949-0.094h0.666v0.568h-0.57c-0.281,0-0.566,0-0.76,0.096
				c-0.188,0-0.285,0.096-0.475,0.189c-0.096,0.095-0.189,0.189-0.189,0.283c0,0.097-0.096,0.285-0.096,0.476
				c0,0.284,0,0.665,0,1.045s0,0.664,0,1.044c0,0.381-0.094,0.664-0.189,0.854c-0.188,0.189-0.379,0.285-0.854,0.382l0,0
				c0.381,0.095,0.664,0.188,0.854,0.379c0.191,0.19,0.189,0.476,0.189,0.854s0,0.76,0,1.045s0,0.664,0,1.045
				c0,0.188,0,0.379,0.096,0.475c0.096,0.094,0.096,0.285,0.189,0.285c0.096,0.094,0.285,0.094,0.475,0.189
				c0.189,0,0.381,0.094,0.76,0.094h0.57v0.568h-0.475c-0.381,0-0.666,0-0.949-0.096c-0.285-0.096-0.477-0.096-0.666-0.283
				c-0.189-0.097-0.283-0.283-0.379-0.477C462.729,334.109,462.729,334.016,462.729,333.634z"/>
			<path fill="#008C9E" d="M366.092,347.589v1.897h-0.949v-7.879h0.762l0.096,0.664l0,0c0.285-0.285,0.568-0.476,0.854-0.567
				c0.381-0.19,0.664-0.285,1.043-0.285c0.381,0,0.666,0.095,0.949,0.188c0.285,0.097,0.57,0.285,0.762,0.569
				c0.188,0.283,0.379,0.568,0.475,0.855c0.094,0.379,0.189,0.76,0.189,1.139c0,0.475-0.096,0.854-0.189,1.234
				c-0.096,0.381-0.285,0.662-0.57,0.947c-0.188,0.285-0.475,0.477-0.76,0.568c-0.283,0.096-0.664,0.189-0.949,0.189
				s-0.566-0.096-0.854-0.189c-0.283-0.096-0.568-0.283-0.854-0.568v1.234h-0.004V347.589z M366.092,345.787
				c0.285,0.189,0.57,0.381,0.762,0.477c0.283,0.094,0.475,0.189,0.662,0.189c0.479,0,0.949-0.189,1.234-0.57
				c0.285-0.379,0.475-0.949,0.475-1.613c0-0.285,0-0.57-0.096-0.855c-0.094-0.283-0.188-0.475-0.285-0.664
				c-0.094-0.188-0.281-0.285-0.475-0.379c-0.189-0.096-0.475-0.188-0.664-0.188c-0.285,0-0.475,0.095-0.76,0.188
				c-0.283,0.094-0.568,0.379-0.854,0.664V345.787L366.092,345.787z"/>
			<path fill="#008C9E" d="M372.547,341.609h0.76l0.098,1.328l0,0c0.283-0.477,0.664-0.76,1.045-1.043
				c0.379-0.285,0.854-0.382,1.424-0.382c0.188,0,0.379,0,0.568,0.097c0.188,0,0.381,0.098,0.475,0.188l-0.189,0.855
				c-0.189-0.096-0.379-0.096-0.475-0.191c-0.096,0-0.285,0-0.57,0c-0.379,0-0.854,0.098-1.232,0.381
				c-0.379,0.285-0.76,0.664-1.045,1.234v3.229h-0.949v-5.695H372.547z"/>
			<path fill="#008C9E" d="M378.432,344.361c0-0.477,0.098-0.854,0.191-1.23c0.094-0.381,0.379-0.666,0.568-0.949
				c0.189-0.285,0.568-0.475,0.854-0.57c0.287-0.095,0.664-0.189,1.045-0.189c0.379,0,0.762,0.096,1.043,0.189
				c0.285,0.096,0.666,0.285,0.855,0.57c0.285,0.283,0.475,0.568,0.568,0.949c0.096,0.379,0.189,0.758,0.189,1.23
				s-0.094,0.854-0.189,1.232c-0.096,0.383-0.379,0.666-0.568,0.949c-0.285,0.285-0.57,0.477-0.855,0.57
				c-0.281,0.096-0.664,0.189-1.043,0.189c-0.381,0-0.76-0.094-1.045-0.189c-0.285-0.095-0.664-0.285-0.854-0.57
				c-0.285-0.283-0.475-0.566-0.568-0.949C378.53,345.216,378.432,344.835,378.432,344.361z M379.381,344.361
				c0,0.285,0,0.57,0.098,0.854c0.096,0.285,0.188,0.477,0.381,0.664c0.188,0.189,0.379,0.285,0.566,0.477
				c0.189,0.098,0.479,0.188,0.762,0.188s0.475-0.094,0.76-0.188c0.188-0.096,0.381-0.285,0.566-0.477
				c0.189-0.188,0.285-0.379,0.383-0.664c0.096-0.283,0.096-0.568,0.096-0.854c0-0.281,0-0.566-0.096-0.854
				c-0.098-0.285-0.189-0.475-0.383-0.664c-0.188-0.188-0.379-0.381-0.566-0.475c-0.189-0.097-0.477-0.189-0.76-0.189
				s-0.477,0.095-0.762,0.189c-0.188,0.094-0.379,0.284-0.566,0.475c-0.189,0.189-0.285,0.379-0.381,0.664
				C379.479,343.792,379.381,344.08,379.381,344.361z"/>
			<path fill="#008C9E" d="M385.27,344.361c0-0.477,0.096-0.854,0.188-1.23c0.096-0.381,0.285-0.666,0.57-0.949
				c0.188-0.285,0.475-0.475,0.758-0.57c0.285-0.096,0.666-0.189,0.949-0.189c0.381,0,0.666,0.096,0.854,0.189
				c0.285,0.096,0.479,0.285,0.76,0.57v-1.045v-2.088h0.949v8.066h-0.76l-0.094-0.76l0,0c-0.189,0.188-0.477,0.477-0.855,0.568
				c-0.379,0.096-0.664,0.285-0.949,0.285c-0.379,0-0.664-0.096-0.945-0.189c-0.285-0.096-0.57-0.283-0.762-0.566
				c-0.188-0.285-0.381-0.57-0.477-0.949C385.364,345.216,385.27,344.835,385.27,344.361z M386.217,344.361
				c0,0.666,0.096,1.232,0.477,1.521c0.285,0.381,0.666,0.57,1.232,0.57c0.568,0,1.043-0.285,1.521-0.855v-2.752
				c-0.285-0.189-0.479-0.381-0.764-0.475c-0.281-0.098-0.475-0.189-0.758-0.189c-0.285,0-0.475,0.094-0.666,0.189
				c-0.188,0.094-0.379,0.283-0.566,0.475c-0.189,0.189-0.283,0.379-0.381,0.664C386.313,343.792,386.217,344.08,386.217,344.361z"
				/>
			<path fill="#008C9E" d="M397.133,347.115h-0.76l-0.094-0.947l0,0c-0.285,0.285-0.57,0.568-0.949,0.76
				c-0.285,0.188-0.76,0.285-1.141,0.285c-0.664,0-1.139-0.191-1.424-0.57c-0.283-0.381-0.475-0.949-0.475-1.709v-3.322h0.949v3.322
				c0,0.57,0.096,0.949,0.285,1.139c0.188,0.285,0.566,0.381,0.945,0.381c0.285,0,0.57-0.096,0.855-0.285
				c0.283-0.188,0.568-0.379,0.854-0.76v-3.797h0.949v5.506h0.004V347.115z"/>
			<path fill="#008C9E" d="M399.127,344.361c0-0.477,0.094-0.854,0.285-1.23c0.188-0.381,0.379-0.666,0.664-0.949
				c0.285-0.285,0.568-0.475,0.949-0.57c0.379-0.095,0.76-0.189,1.232-0.189c0.475,0,0.855,0.096,1.141,0.285
				c0.283,0.189,0.568,0.379,0.854,0.568l-0.475,0.57c-0.189-0.189-0.477-0.381-0.76-0.475c-0.285-0.098-0.475-0.189-0.76-0.189
				s-0.568,0.094-0.854,0.189c-0.285,0.094-0.479,0.283-0.664,0.475c-0.191,0.189-0.381,0.379-0.479,0.664
				c-0.096,0.285-0.188,0.57-0.188,0.854c0,0.285,0.096,0.57,0.188,0.855c0.098,0.285,0.285,0.475,0.479,0.664
				c0.188,0.188,0.379,0.285,0.664,0.475c0.285,0.096,0.566,0.189,0.854,0.189c0.379,0,0.664-0.094,0.949-0.189
				c0.285-0.094,0.568-0.285,0.76-0.475l0.379,0.57c-0.285,0.283-0.664,0.475-1.045,0.664c-0.379,0.188-0.758,0.188-1.139,0.188
				c-0.477,0-0.855-0.096-1.234-0.188c-0.379-0.097-0.664-0.285-0.949-0.57c-0.283-0.283-0.475-0.568-0.662-0.949
				C399.127,345.216,399.127,344.835,399.127,344.361z"/>
			<path fill="#008C9E" d="M407.481,342.371h-1.52v-0.762l1.613-0.097l0.096-1.519h0.758v1.519h2.754v0.761h-2.754v2.657
				c0,0.284,0,0.476,0.1,0.663c0,0.189,0.094,0.383,0.188,0.477c0.096,0.098,0.285,0.189,0.477,0.285
				c0.188,0.098,0.379,0.098,0.662,0.098c0.285,0,0.477,0,0.762-0.098c0.189,0,0.379-0.098,0.568-0.188l0.189,0.664
				c-0.285,0.096-0.475,0.188-0.855,0.188c-0.283,0.096-0.566,0.096-0.947,0.096c-0.379,0-0.762-0.096-1.043-0.188
				c-0.285-0.096-0.479-0.285-0.666-0.475c-0.189-0.191-0.285-0.477-0.381-0.762s-0.096-0.568-0.096-0.947v-2.373H407.481
				L407.481,342.371z"/>
			<path d="M414.221,346.925c-0.475-0.854-0.666-1.805-0.666-2.942s0.191-2.088,0.666-2.942c0.477-0.854,1.043-1.613,1.898-2.185
				l0.475,0.476c-0.76,0.666-1.33,1.33-1.709,2.09c-0.379,0.761-0.566,1.613-0.566,2.562c0,0.949,0.188,1.806,0.566,2.562
				c0.379,0.761,0.949,1.425,1.709,2.09l-0.475,0.476C415.264,348.541,414.698,347.779,414.221,346.925z"/>
			<path fill="#008C9E" d="M419.063,341.609h3.514v5.508h-0.949v-4.746h-2.564V341.609L419.063,341.609z M422.004,340.471
				c-0.188,0-0.379-0.097-0.566-0.188c-0.098-0.097-0.189-0.285-0.189-0.57c0-0.188,0.094-0.381,0.189-0.569
				c0.096-0.095,0.281-0.188,0.566-0.188c0.189,0,0.381,0.096,0.57,0.188c0.188,0.097,0.188,0.284,0.188,0.569
				c0,0.188-0.094,0.379-0.188,0.57C422.385,340.375,422.196,340.471,422.004,340.471z"/>
			<path fill="#008C9E" d="M425.516,344.361c0-0.477,0.1-0.854,0.191-1.23c0.094-0.381,0.283-0.666,0.568-0.949
				c0.189-0.285,0.475-0.475,0.76-0.57c0.285-0.095,0.664-0.189,0.949-0.189c0.381,0,0.664,0.096,0.854,0.189
				c0.285,0.096,0.479,0.285,0.76,0.57v-1.045v-2.088h0.949v8.066h-0.76l-0.094-0.76l0,0c-0.191,0.188-0.477,0.477-0.855,0.568
				c-0.285,0.189-0.664,0.285-0.949,0.285c-0.379,0-0.664-0.096-0.945-0.189c-0.285-0.096-0.57-0.283-0.764-0.566
				c-0.188-0.285-0.379-0.57-0.475-0.949C425.614,345.216,425.516,344.835,425.516,344.361z M426.465,344.361
				c0,0.666,0.098,1.232,0.479,1.521c0.281,0.381,0.664,0.57,1.23,0.57c0.57,0,1.045-0.285,1.521-0.855v-2.752
				c-0.285-0.189-0.477-0.381-0.762-0.475c-0.283-0.098-0.475-0.189-0.76-0.189c-0.283,0-0.475,0.094-0.664,0.189
				c-0.189,0.094-0.379,0.283-0.568,0.475c-0.189,0.189-0.285,0.379-0.381,0.664C426.563,343.792,426.465,344.08,426.465,344.361z"
				/>
			<path d="M434.157,342.273c0-0.285,0.096-0.477,0.285-0.664c0.188-0.188,0.381-0.283,0.664-0.283s0.475,0.096,0.664,0.283
				c0.188,0.188,0.283,0.379,0.283,0.664s-0.096,0.477-0.283,0.664c-0.189,0.189-0.381,0.285-0.664,0.285s-0.477-0.096-0.664-0.285
				C434.25,342.75,434.157,342.559,434.157,342.273z M434.157,346.355c0-0.285,0.096-0.477,0.285-0.664
				c0.188-0.188,0.381-0.283,0.664-0.283s0.475,0.096,0.664,0.283c0.188,0.188,0.283,0.379,0.283,0.664s-0.096,0.477-0.283,0.664
				c-0.189,0.189-0.381,0.285-0.664,0.285s-0.477-0.096-0.664-0.285C434.25,346.832,434.157,346.641,434.157,346.355z"/>
			<path fill="#6952A1" d="M444.336,346.355v0.762h-4.936v-0.762h2.088v-5.314h-1.52v-0.568c0.381-0.096,0.762-0.096,1.045-0.189
				c0.285-0.096,0.57-0.191,0.76-0.285h0.664v6.455h1.898V346.355L444.336,346.355z"/>
			<path fill="#6952A1" d="M446.045,346.544c0.57-0.567,1.143-1.043,1.615-1.519s0.854-0.854,1.232-1.233
				c0.285-0.381,0.57-0.76,0.76-1.045s0.285-0.664,0.285-0.949c0-0.379-0.096-0.76-0.381-1.043
				c-0.283-0.285-0.664-0.381-1.232-0.381c-0.381,0-0.664,0.096-0.949,0.285c-0.285,0.188-0.57,0.379-0.76,0.664l-0.57-0.568
				c0.285-0.381,0.666-0.569,1.045-0.76c0.379-0.189,0.855-0.285,1.328-0.285c0.381,0,0.666,0.097,0.949,0.188
				c0.285,0.097,0.57,0.285,0.76,0.476c0.191,0.189,0.381,0.381,0.477,0.664c0.096,0.285,0.188,0.569,0.188,0.854
				c0,0.379-0.094,0.664-0.283,1.043c-0.188,0.381-0.381,0.666-0.666,1.045c-0.281,0.379-0.664,0.761-1.043,1.14
				c-0.381,0.381-0.854,0.854-1.33,1.233c0.191,0,0.479,0,0.666,0c0.189,0,0.477,0,0.664,0h2.373v0.854h-5.127V346.544
				L446.045,346.544z"/>
			<path fill="#6952A1" d="M453.167,345.596c0.283,0.19,0.568,0.476,0.855,0.569c0.379,0.188,0.76,0.285,1.23,0.285
				c0.285,0,0.477,0,0.666-0.097c0.189-0.095,0.379-0.188,0.568-0.285c0.189-0.094,0.283-0.282,0.381-0.379
				c0.094-0.097,0.094-0.381,0.094-0.569s0-0.379-0.094-0.567c-0.098-0.19-0.285-0.285-0.477-0.476
				c-0.189-0.097-0.475-0.19-0.854-0.285c-0.379-0.096-0.76-0.096-1.234-0.096v-0.761c0.477,0,0.76,0,1.141-0.095
				c0.283-0.096,0.568-0.188,0.76-0.284c0.189-0.097,0.285-0.285,0.379-0.476c0.096-0.189,0.096-0.379,0.096-0.57
				c0-0.379-0.096-0.663-0.381-0.854c-0.283-0.189-0.664-0.285-1.043-0.285c-0.381,0-0.664,0.096-0.949,0.188
				c-0.283,0.097-0.566,0.285-0.854,0.569l-0.477-0.569c0.285-0.283,0.666-0.476,1.045-0.664c0.381-0.188,0.854-0.285,1.328-0.285
				c0.381,0,0.666,0,0.949,0.097c0.285,0.096,0.57,0.188,0.76,0.379s0.381,0.381,0.477,0.57c0.094,0.188,0.188,0.475,0.188,0.76
				c0,0.476-0.188,0.76-0.475,1.043c-0.283,0.285-0.664,0.476-1.139,0.666l0,0c0.285,0.094,0.475,0.094,0.664,0.188
				s0.381,0.188,0.57,0.379s0.283,0.382,0.379,0.57s0.096,0.476,0.096,0.663c0,0.285-0.096,0.57-0.189,0.855
				c-0.096,0.282-0.285,0.475-0.57,0.664c-0.281,0.188-0.475,0.284-0.854,0.379c-0.379,0.096-0.664,0.096-1.043,0.096
				c-0.664,0-1.141-0.096-1.615-0.284c-0.379-0.188-0.758-0.476-1.043-0.761L453.167,345.596z"/>
			<path d="M460.192,348.634c0.76-0.666,1.328-1.329,1.709-2.09c0.379-0.76,0.566-1.612,0.566-2.562
				c0-0.948-0.188-1.803-0.566-2.562c-0.381-0.76-0.949-1.424-1.709-2.09l0.475-0.476c0.76,0.569,1.424,1.33,1.898,2.185
				s0.664,1.805,0.664,2.942s-0.189,2.088-0.664,2.942c-0.477,0.854-1.045,1.613-1.898,2.185L460.192,348.634z"/>
			<path d="M475.379,347.305c0-0.188,0-0.38,0-0.568c0-0.19,0-0.381,0-0.569s0-0.381,0-0.57c0-0.188,0-0.379,0-0.566
				c0-0.097,0-0.191-0.096-0.285c0-0.097-0.094-0.188-0.285-0.285c-0.189-0.096-0.285-0.188-0.475-0.188
				c-0.189-0.097-0.475-0.097-0.854-0.097v-0.567c0.379,0,0.568,0,0.854-0.097c0.189-0.096,0.381-0.096,0.475-0.188
				c0.096-0.097,0.191-0.189,0.285-0.285c0-0.097,0.096-0.189,0.096-0.285c0-0.379,0-0.76-0.096-1.043
				c-0.094-0.285-0.094-0.76-0.094-1.142c0-0.282,0-0.567,0.094-0.76c0.096-0.188,0.189-0.379,0.381-0.476
				c0.189-0.094,0.379-0.188,0.664-0.283c0.285-0.096,0.568-0.096,0.949-0.096h0.664v0.569h-0.57c-0.283,0-0.568,0-0.758,0.095
				c-0.191,0-0.285,0.096-0.477,0.19c-0.094,0.094-0.189,0.188-0.189,0.282c0,0.097-0.094,0.285-0.094,0.476
				c0,0.285,0,0.666,0,1.046c0,0.379,0,0.663,0,1.045c0,0.379-0.096,0.664-0.189,0.854c-0.191,0.188-0.381,0.284-0.854,0.379l0,0
				c0.381,0.097,0.662,0.19,0.854,0.381c0.189,0.188,0.189,0.476,0.189,0.854c0,0.381,0,0.76,0,1.045s0,0.664,0,1.045
				c0,0.189,0,0.379,0.094,0.476c0.096,0.095,0.096,0.283,0.189,0.283c0.096,0.097,0.285,0.097,0.477,0.19
				c0.188,0,0.379,0.094,0.758,0.094h0.57v0.57h-0.664c-0.381,0-0.664,0-0.949-0.097c-0.285-0.094-0.475-0.094-0.664-0.284
				c-0.191-0.095-0.285-0.283-0.381-0.476C475.19,347.779,475.379,347.686,475.379,347.305z"/>
			<path fill="#008C9E" d="M378.813,355.279h0.762l0.094,0.949l0,0c0.285-0.285,0.57-0.568,0.949-0.762
				c0.381-0.188,0.76-0.283,1.139-0.283c0.666,0,1.141,0.188,1.424,0.568c0.285,0.379,0.477,0.949,0.477,1.709v3.416h-0.949v-3.32
				c0-0.568-0.096-0.949-0.285-1.141c-0.188-0.285-0.566-0.379-0.949-0.379c-0.188,0-0.283,0-0.475,0.094
				c-0.189,0.098-0.285,0.098-0.379,0.189c-0.096,0.096-0.285,0.191-0.381,0.285c-0.189,0.096-0.283,0.285-0.475,0.475v3.894h-0.949
				v-5.694H378.813z"/>
			<path fill="#008C9E" d="M385.553,359.362c0-0.284,0.098-0.569,0.189-0.854c0.094-0.283,0.379-0.477,0.664-0.568
				c0.285-0.096,0.76-0.285,1.232-0.381c0.477-0.094,1.141-0.189,1.805-0.285c0-0.189,0-0.379-0.096-0.568
				c-0.094-0.188-0.094-0.285-0.285-0.475c-0.188-0.189-0.283-0.189-0.475-0.285c-0.188-0.096-0.379-0.096-0.664-0.096
				c-0.379,0-0.76,0.096-1.043,0.191c-0.381,0.094-0.666,0.281-0.854,0.475l-0.383-0.666c0.098-0.094,0.283-0.189,0.477-0.283
				c0.188-0.096,0.381-0.191,0.57-0.285c0.188-0.096,0.475-0.096,0.664-0.189c0.188-0.096,0.475-0.096,0.76-0.096
				c0.76,0,1.328,0.189,1.709,0.664c0.379,0.381,0.566,0.949,0.566,1.613v3.418h-0.76l-0.096-0.76l0,0
				c-0.283,0.285-0.664,0.475-1.043,0.666c-0.381,0.189-0.76,0.283-1.141,0.283c-0.283,0-0.475,0-0.76-0.094
				c-0.188-0.099-0.379-0.189-0.568-0.285c-0.189-0.097-0.285-0.285-0.381-0.476C385.551,359.833,385.553,359.647,385.553,359.362z
				 M386.409,359.266c0,0.188,0,0.284,0.096,0.381c0.094,0.095,0.189,0.188,0.283,0.283c0.096,0.096,0.285,0.096,0.381,0.19
				c0.189,0,0.285,0.094,0.475,0.094c0.285,0,0.664-0.094,0.949-0.188s0.664-0.379,0.949-0.569v-1.424
				c-0.57,0-1.045,0.096-1.52,0.188c-0.477,0.097-0.762,0.191-0.949,0.285c-0.189,0.097-0.379,0.285-0.477,0.381
				C386.502,358.981,386.409,359.078,386.409,359.266z"/>
			<path fill="#008C9E" d="M392.104,355.279h0.762l0.094,0.762l0,0c0.096-0.285,0.285-0.477,0.475-0.666s0.477-0.283,0.76-0.283
				c0.57,0,0.949,0.283,1.045,0.949c0.189-0.285,0.379-0.477,0.568-0.666s0.477-0.283,0.762-0.283c0.379,0,0.664,0.188,0.854,0.475
				c0.189,0.283,0.285,0.758,0.285,1.232v3.988h-0.854v-3.894c0-0.664-0.189-0.949-0.568-0.949c-0.189,0-0.379,0.097-0.477,0.188
				c-0.188,0.097-0.283,0.382-0.475,0.664v3.988h-0.76v-3.893c0-0.664-0.189-0.949-0.664-0.949c-0.191,0-0.381,0.096-0.477,0.189
				c-0.094,0.096-0.283,0.381-0.379,0.664v3.988h-0.854v-5.508h-0.098V355.279z"/>
			<path fill="#008C9E" d="M399.034,358.031c0-0.475,0.096-0.854,0.285-1.232c0.188-0.379,0.379-0.664,0.664-0.949
				c0.283-0.283,0.566-0.475,0.854-0.568c0.381-0.096,0.664-0.189,1.045-0.189c0.379,0,0.76,0.096,1.043,0.189
				c0.285,0.094,0.57,0.285,0.76,0.568c0.189,0.191,0.381,0.475,0.477,0.855c0.094,0.283,0.188,0.664,0.188,1.043
				c0,0.189,0,0.381,0,0.475h-4.363c0,0.57,0.285,1.045,0.664,1.426c0.381,0.379,0.854,0.568,1.52,0.568
				c0.285,0,0.664,0,0.854-0.094c0.285-0.097,0.57-0.191,0.76-0.381l0.285,0.567c-0.285,0.188-0.568,0.284-0.949,0.478
				c-0.379,0.094-0.76,0.188-1.234,0.188c-0.379,0-0.76-0.096-1.139-0.188c-0.379-0.097-0.664-0.285-0.949-0.57
				s-0.475-0.568-0.664-0.949C398.938,358.886,399.034,358.505,399.034,358.031z M403.497,357.652c0-0.568-0.191-1.045-0.477-1.33
				c-0.283-0.281-0.664-0.475-1.232-0.475c-0.191,0-0.477,0-0.666,0.096c-0.189,0.098-0.379,0.188-0.568,0.379
				s-0.285,0.285-0.381,0.57c-0.094,0.188-0.188,0.477-0.188,0.76H403.497L403.497,357.652z"/>
			<path d="M365.807,375.358c0.285,0,0.57,0,0.762-0.097c0.188,0,0.285-0.096,0.475-0.188c0.191-0.097,0.191-0.189,0.191-0.283
				c0-0.097,0.094-0.285,0.094-0.476c0-0.383,0-0.666,0-1.047c0-0.283,0-0.664,0-1.045c0-0.38,0.096-0.664,0.188-0.854
				c0.189-0.188,0.381-0.285,0.855-0.379l0,0c-0.379-0.096-0.664-0.191-0.855-0.381c-0.188-0.189-0.188-0.475-0.188-0.854
				c0-0.381,0-0.666,0-1.045s0-0.664,0-1.045c0-0.189,0-0.379-0.094-0.478c-0.098-0.095-0.098-0.28-0.191-0.28
				s-0.283-0.099-0.475-0.191c-0.189-0.094-0.379-0.094-0.762-0.094h-0.566v-0.57h0.664c0.381,0,0.664,0,0.949,0.096
				c0.283,0.094,0.475,0.094,0.662,0.285c0.189,0.189,0.285,0.283,0.381,0.475c0.098,0.189,0.098,0.475,0.098,0.758
				c0,0.381,0,0.76-0.098,1.142c-0.096,0.379-0.096,0.758-0.096,1.043c0,0.098,0,0.19,0.096,0.284c0,0.097,0.098,0.189,0.283,0.285
				c0.098,0.097,0.285,0.189,0.479,0.189c0.188,0.096,0.475,0.096,0.854,0.096v0.568c-0.381,0-0.568,0-0.854,0.096
				c-0.189,0.096-0.381,0.096-0.479,0.189c-0.094,0.096-0.188,0.189-0.283,0.285c0,0.096-0.096,0.189-0.096,0.285
				c0,0.188,0,0.379,0,0.567s0,0.382,0,0.567c0,0.189,0,0.38,0,0.57c0,0.189,0,0.379,0,0.568c0,0.285,0,0.57-0.096,0.76
				c-0.094,0.189-0.189,0.379-0.379,0.475c-0.191,0.099-0.381,0.189-0.664,0.285c-0.285,0.097-0.57,0.097-0.949,0.097h-0.666v-0.567
				h0.76V375.358L365.807,375.358z"/>
			<path d="M352.137,389.028c0.285,0,0.57,0,0.764-0.096c0.188,0,0.281-0.097,0.475-0.188c0.188-0.095,0.188-0.189,0.188-0.283
				c0-0.096,0.096-0.285,0.096-0.476c0-0.383,0-0.666,0-1.045c0-0.284,0-0.664,0-1.047c0-0.379,0.096-0.664,0.189-0.854
				c0.189-0.188,0.381-0.285,0.855-0.381l0,0c-0.381-0.094-0.666-0.189-0.855-0.379s-0.189-0.475-0.189-0.854
				c0-0.381,0-0.666,0-1.045s0-0.664,0-1.045c0-0.189,0-0.379-0.096-0.476c-0.094-0.097-0.094-0.284-0.188-0.284
				s-0.285-0.097-0.475-0.189c-0.191-0.094-0.383-0.094-0.764-0.094h-0.566v-0.57h0.664c0.381,0,0.666,0,0.947,0.096
				c0.285,0.094,0.477,0.094,0.664,0.283c0.189,0.191,0.285,0.285,0.383,0.475c0.096,0.191,0.096,0.475,0.096,0.76
				c0,0.381,0,0.76-0.096,1.142c-0.098,0.379-0.098,0.76-0.098,1.043c0,0.099,0,0.188,0.098,0.284c0,0.099,0.096,0.189,0.281,0.285
				c0.098,0.095,0.285,0.189,0.479,0.189c0.188,0.096,0.475,0.096,0.854,0.096v0.568c-0.381,0-0.568,0-0.854,0.096
				c-0.189,0.094-0.381,0.094-0.479,0.189c-0.094,0.096-0.188,0.189-0.281,0.285c0,0.094-0.098,0.189-0.098,0.285
				c0,0.188,0,0.379,0,0.568c0,0.188,0,0.381,0,0.567c0,0.188,0,0.381,0,0.567c0,0.191,0,0.381,0,0.57c0,0.285,0,0.57-0.096,0.76
				c-0.094,0.191-0.189,0.379-0.379,0.476c-0.189,0.098-0.379,0.188-0.664,0.284c-0.285,0.095-0.57,0.095-0.949,0.095h-0.666v-0.565
				h0.76V389.028L352.137,389.028z"/>
		</g>
		<g>
			<path fill="#008C9E" d="M385.151,305.593h0.945l-2.848,8.924h-0.949L385.151,305.593z"/>
			<path fill="#008C9E" d="M389.042,308.158c1.424,0,1.805,0.854,1.805,0.854l0,0c0,0,0-0.094,0-0.188
				c0-0.382,0.189-0.57,0.664-0.57h1.045v0.949h-0.475c-0.191,0-0.285,0.096-0.285,0.188v4.364c0,1.9-1.424,2.658-2.943,2.658
				c-0.664,0-1.424-0.188-1.992-0.475l0.379-0.854c0,0,0.666,0.379,1.613,0.379c1.045,0,1.805-0.475,1.805-1.612v-0.38
				c0-0.189,0-0.381,0-0.381l0,0c-0.379,0.57-0.854,0.854-1.709,0.854c-1.613,0-2.562-1.328-2.562-2.941
				C386.575,309.391,387.522,308.158,389.042,308.158z M390.844,311.1c0-1.521-0.76-1.897-1.613-1.897
				c-1.043,0-1.611,0.76-1.611,1.897c0,1.231,0.664,1.991,1.709,1.991C390.178,313.091,390.844,312.621,390.844,311.1z"/>
			<path fill="#008C9E" d="M393.881,309.582c0-0.188-0.096-0.283-0.285-0.283h-0.475v-0.949h1.045c0.475,0,0.76,0.189,0.76,0.664
				v0.38c0,0.188,0,0.38,0,0.38l0,0c0.283-0.854,0.949-1.52,1.805-1.52c0.188,0,0.283,0,0.283,0v1.14c0,0-0.188,0-0.283,0
				c-0.664,0-1.328,0.476-1.613,1.329c-0.096,0.283-0.096,0.664-0.096,1.044v2.373h-1.141V309.582L393.881,309.582z"/>
			<path fill="#008C9E" d="M400.909,310.531h0.283v-0.096c0-1.044-0.379-1.426-1.232-1.426c-0.285,0-0.949,0.097-0.949,0.477v0.285
				h-1.045v-0.568c0-0.949,1.424-1.045,1.994-1.045c1.896,0,2.373,0.948,2.373,2.277v2.469c0,0.188,0.094,0.284,0.283,0.284h0.475
				v0.949h-1.043c-0.475,0-0.76-0.284-0.76-0.664c0-0.188,0-0.382,0-0.382l0,0c0,0-0.477,1.141-1.803,1.141
				c-0.949,0-1.994-0.568-1.994-1.708C397.395,310.625,399.864,310.531,400.909,310.531z M399.579,313.376
				c0.949,0,1.52-0.949,1.52-1.803v-0.191h-0.285c-0.854,0-2.373,0-2.373,1.142C398.536,312.904,398.819,313.376,399.579,313.376z"
				/>
			<path fill="#008C9E" d="M404.133,309.582c0-0.188-0.094-0.283-0.285-0.283h-0.475v-0.949h1.045c0.477,0,0.664,0.189,0.664,0.568
				c0,0.188,0,0.285,0,0.285l0,0c0,0,0.475-1.045,1.898-1.045c1.52,0,2.562,1.233,2.562,3.037c0,1.805-1.139,3.037-2.658,3.037
				c-1.232,0-1.803-0.947-1.803-0.947l0,0c0,0,0,0.188,0,0.475v2.562h-1.141v-6.739H404.133z M406.792,313.285
				c0.949,0,1.709-0.761,1.709-2.09c0-1.232-0.664-2.089-1.613-2.089c-0.854,0-1.709,0.569-1.709,2.089
				C405.178,312.24,405.749,313.285,406.792,313.285z"/>
			<path fill="#008C9E" d="M410.875,307.3c0-0.188-0.096-0.282-0.285-0.282h-0.475v-0.949h1.139c0.475,0,0.76,0.188,0.76,0.664
				v2.276c0,0.285,0,0.477,0,0.477l0,0c0.285-0.568,0.949-1.328,2.186-1.328c1.328,0,1.992,0.76,1.992,2.184v2.469
				c0,0.189,0.096,0.285,0.285,0.285h0.475v0.949h-1.045c-0.475,0-0.76-0.189-0.76-0.76v-2.754c0-0.855-0.189-1.425-1.139-1.425
				c-0.854,0-1.613,0.569-1.805,1.425c-0.094,0.188-0.094,0.475-0.094,0.76v2.658h-1.143v-6.646h-0.092V307.3z"/>
			<path fill="#008C9E" d="M420.083,308.158c1.33,0,1.898,0.948,1.898,0.948l0,0c0,0,0-0.097,0-0.282c0-0.382,0.188-0.57,0.664-0.57
				h1.045v0.949h-0.477c-0.188,0-0.285,0.096-0.285,0.283v6.836h-1.139v-2.562c0-0.284,0-0.475,0-0.475l0,0
				c0,0-0.477,0.947-1.898,0.947c-1.52,0-2.561-1.232-2.561-3.037C417.424,309.391,418.563,308.158,420.083,308.158z
				 M421.885,311.195c0-1.044-0.566-2.089-1.611-2.089c-0.949,0-1.709,0.761-1.709,2.089c0,1.232,0.662,2.09,1.611,2.09
				C421.032,313.285,421.885,312.712,421.885,311.195z"/>
			<path fill="#008C9E" d="M424.831,307.3c0-0.188-0.096-0.282-0.285-0.282h-0.475v-0.949h1.139c0.475,0,0.76,0.188,0.76,0.761
				v6.074c0,0.188,0.094,0.284,0.285,0.284h0.475v0.949h-1.141c-0.475,0-0.758-0.188-0.758-0.761V307.3L424.831,307.3z"/>
			<text transform="matrix(1 0 0 1 351.8218 315.0444)" fill="#008C9E" font-family="'MyriadPro-Regular'" font-size="12">POST</text>
		</g>
	</g>
</g>
</svg>
