<?xml version="1.0" encoding="utf-8"?>
<!-- Generator: Adobe Illustrator 16.0.0, SVG Export Plug-In . SVG Version: 6.00 Build 0)  -->
<!DOCTYPE svg PUBLIC "-//W3C//DTD SVG 1.1//EN" "http://www.w3.org/Graphics/SVG/1.1/DTD/svg11.dtd">
<svg version="1.1" id="Layer_1" xmlns="http://www.w3.org/2000/svg" xmlns:xlink="http://www.w3.org/1999/xlink" x="0px" y="0px"
	 width="540.284px" height="371.023px" viewBox="11.453 7.666 540.284 371.023"
	 enable-background="new 11.453 7.666 540.284 371.023" xml:space="preserve">
<g id="Layer_7">
</g>
<g id="Layer_8">
</g>
<g id="Layer_9">
</g>
<g id="Layer_4">
	<path fill="#008C9E" d="M288.553,378.69h-114.75c-6.481,0-11.794-5.312-11.794-11.794V76.302c0-6.479,5.312-11.794,11.794-11.794
		h114.75c6.48,0,11.791,5.312,11.791,11.794v290.594C300.454,373.378,295.141,378.69,288.553,378.69z"/>
	<g>
		<path fill="#008C9E" d="M540.471,130.81h-6.586h-1.914h-64.918c-6.162,0-11.262,4.994-11.262,11.263v12.219v23.906v13.493
			c0,6.163,4.992,11.264,11.262,11.264h64.918h1.914h6.586c6.164,0,11.266-4.994,11.266-11.264v-13.493v-23.906v-12.219
			C551.627,135.909,546.635,130.81,540.471,130.81z"/>
		<g>
			<path fill="#DDF5FF" d="M482.034,158.859c2.125,0,5.738,0.851,5.738,3.294v1.487h-2.021v-0.851c0-1.274-2.229-1.913-3.719-1.913
				c-3.08,0-5.523,2.338-5.523,5.845c0,3.399,2.443,6.057,5.523,6.057c3.082,0,4.889-2.125,4.889-2.125l1.168,1.595
				c0,0-2.229,2.55-6.057,2.55c-4.568,0-7.861-3.506-7.861-8.074C474.278,162.259,477.573,158.859,482.034,158.859z"/>
			<path fill="#DDF5FF" d="M490.641,161.409c0-0.318-0.213-0.531-0.529-0.531h-0.852v-1.806h2.125c0.955,0,1.381,0.425,1.381,1.381
				v11.688c0,0.318,0.213,0.53,0.531,0.53h0.85v1.807h-2.125c-0.955,0-1.381-0.426-1.381-1.381V161.409z"/>
			<path fill="#DDF5FF" d="M496.59,165.766c0-0.318-0.213-0.531-0.531-0.531h-0.85v-1.806h2.125c0.957,0,1.381,0.425,1.381,1.381
				v7.331c0,0.318,0.213,0.53,0.531,0.53h0.85v1.807h-2.125c-0.955,0-1.381-0.426-1.381-1.381V165.766L496.59,165.766z
				 M496.698,159.177h1.912v2.231h-1.912V159.177z"/>
			<path fill="#DDF5FF" d="M507.002,163.216c3.082,0,4.781,2.337,4.781,5.206c0,0.319-0.105,0.851-0.105,0.851h-8.074
				c0.105,2.337,1.807,3.72,3.824,3.72c1.912,0,3.188-1.275,3.188-1.275l0.957,1.487c0,0-1.596,1.594-4.25,1.594
				c-3.506,0-5.846-2.55-5.846-5.736C501.479,165.552,503.815,163.216,507.002,163.216z M509.553,167.784
				c-0.104-1.807-1.273-2.763-2.551-2.763c-1.594,0-2.975,0.956-3.293,2.763H509.553z"/>
			<path fill="#DDF5FF" d="M514.547,165.766c0-0.318-0.213-0.531-0.531-0.531h-0.85v-1.806h2.018c0.957,0,1.383,0.425,1.383,1.274
				v0.425c0,0.319,0,0.639,0,0.639l0,0c0.426-0.956,1.699-2.551,4.145-2.551c2.656,0,3.824,1.382,3.824,4.25v4.781
				c0,0.317,0.213,0.53,0.531,0.53h0.852v1.807h-2.125c-0.957,0-1.383-0.425-1.383-1.381v-5.206c0-1.594-0.318-2.764-2.125-2.764
				c-1.699,0-3.08,1.062-3.506,2.656c-0.105,0.425-0.213,0.956-0.213,1.486v5.207h-2.125v-8.818L514.547,165.766L514.547,165.766z"
				/>
			<path fill="#DDF5FF" d="M528.252,165.234h-1.486v-1.699h1.486v-3.081h2.125v3.081h2.656v1.699h-2.656v5.101
				c0,2.23,1.488,2.443,2.338,2.443c0.318,0,0.531,0,0.531,0v1.912c0,0-0.318,0-0.744,0c-1.381,0-4.25-0.425-4.25-4.145V165.234z"/>
		</g>
	</g>
	<g>
		<g>
			<path fill="none" stroke="#E5A021" stroke-width="7" stroke-linecap="round" stroke-miterlimit="10" d="M507.959,215.916v72.567
				c0,8.605-7.012,15.619-15.619,15.619H354.534"/>
			<g>
				<polygon fill="#E5A021" points="359.954,285.615 327.76,304.104 359.954,322.698 				"/>
			</g>
		</g>
	</g>
	<g>
		<path fill="#008C9E" stroke="#DDF5FF" stroke-miterlimit="10" d="M26.328,260.753v76.5c0,5.95,18.275,10.838,40.8,10.838
			s40.8-4.888,40.8-10.838v-76.5H26.328z"/>
		<ellipse fill="#008C9E" stroke="#DDF5FF" stroke-miterlimit="10" cx="67.022" cy="260.753" rx="40.8" ry="10.837"/>
		<g>
			<path fill="#008C9E" d="M13.685,234.51l-1.488,0.531l-0.744-1.913l6.587-2.337c4.888-1.808,9.244,0,11.156,5.101
				c1.912,5.101-0.319,9.351-5.206,11.05l-3.613,1.274c-1.062,0.426-1.594,0.106-2.019-0.956L13.685,234.51z M20.909,245.771
				l2.125-0.743c3.613-1.274,5.207-4.355,3.719-8.287c-1.487-3.932-4.568-5.206-8.181-3.932l-2.656,0.956l4.25,11.794
				C20.272,245.771,20.591,245.878,20.909,245.771z"/>
			<path fill="#008C9E" d="M39.397,235.253l0.531-0.105v-0.104c-0.319-2.125-1.275-2.763-3.188-2.443
				c-0.531,0.105-2.019,0.53-1.806,1.274l0.106,0.743l-2.231,0.318l-0.213-1.169c-0.318-2.02,2.656-2.764,3.825-2.976
				c3.931-0.639,5.312,1.273,5.844,3.932l0.85,5.205c0.106,0.319,0.319,0.531,0.637,0.427l0.957-0.213l0.319,2.02l-2.231,0.318
				c-1.062,0.212-1.594-0.318-1.7-1.169c-0.106-0.426-0.106-0.744-0.106-0.744l0,0c0,0-0.531,2.551-3.506,3.081
				c-2.125,0.318-4.356-0.53-4.781-2.976C32.065,236.74,37.272,235.573,39.397,235.253z M37.697,241.734
				c2.019-0.317,2.869-2.655,2.656-4.463l-0.106-0.425l-0.638,0.105c-1.806,0.317-4.888,0.956-4.569,3.188
				C35.253,241.097,36.103,241.948,37.697,241.734z"/>
			<path fill="#008C9E" d="M46.409,231.534l-1.594,0.105l-0.212-1.912l1.7-0.105l-0.319-3.399l2.337-0.213l0.319,3.399l2.975-0.318
				l0.212,1.912l-2.975,0.319l0.531,5.631c0.212,2.442,1.913,2.655,2.869,2.55c0.319,0,0.531-0.105,0.531-0.105l0.213,2.125
				c0,0-0.319,0.105-0.85,0.105c-1.594,0.105-4.781,0-5.1-4.145L46.409,231.534z"/>
			<path fill="#008C9E" d="M61.497,233.341h0.531v-0.105c-0.106-2.125-0.957-2.976-2.869-2.868c-0.637,0-2.019,0.213-2.019,1.062
				v0.744l-2.231,0.105v-1.169c-0.106-2.02,2.975-2.442,4.144-2.442c4.038-0.105,5.1,1.912,5.206,4.675l0.212,5.206
				c0,0.318,0.213,0.531,0.531,0.531h0.957l0.106,2.02l-2.231,0.105c-1.062,0-1.594-0.531-1.594-1.381c0-0.427,0-0.744,0-0.744l0,0
				c0,0-0.85,2.442-3.825,2.55c-2.125,0.105-4.25-1.169-4.356-3.611C54.06,233.872,59.372,233.448,61.497,233.341z M58.947,239.503
				c2.019-0.105,3.188-2.23,3.188-4.037v-0.425h-0.637c-1.807,0.104-4.994,0.317-4.888,2.55
				C56.609,238.653,57.353,239.609,58.947,239.503z"/>
			<path fill="#008C9E" d="M68.935,226.222c0-0.318-0.213-0.531-0.531-0.531h-0.957l0.106-2.02l2.337,0.105
				c1.062,0,1.594,0.531,1.487,1.595l-0.106,4.037c0,0.638-0.106,1.062-0.106,1.062l0,0c0,0,1.169-2.02,4.038-1.912
				c3.294,0.105,5.312,2.867,5.206,6.692c-0.106,3.933-2.55,6.375-5.844,6.27c-2.762-0.104-3.825-2.229-3.825-2.229l0,0
				c0,0,0,0.425,0,0.956v0.851l-2.231-0.105L68.935,226.222z M74.247,239.396c1.912,0.105,3.612-1.486,3.719-4.25
				c0.106-2.655-1.275-4.462-3.4-4.567c-1.806-0.105-3.612,1.169-3.719,4.355C70.847,237.06,71.909,239.291,74.247,239.396z"/>
			<path fill="#008C9E" d="M89.759,234.615l0.531,0.105v-0.105c0.212-2.125-0.425-2.976-2.444-3.188
				c-0.531-0.104-2.019-0.104-2.125,0.744l-0.106,0.744l-2.231-0.213l0.106-1.169c0.212-2.02,3.293-2.02,4.462-1.807
				c3.931,0.425,4.781,2.655,4.569,5.312l-0.531,5.206c0,0.317,0.106,0.53,0.425,0.638l0.957,0.104l-0.213,2.021l-2.231-0.213
				c-1.062-0.105-1.488-0.744-1.381-1.594c0-0.426,0.106-0.744,0.106-0.744l0,0c0,0-1.275,2.338-4.144,2.021
				c-2.125-0.213-4.038-1.7-3.719-4.25C82.322,233.979,87.741,234.403,89.759,234.615z M86.359,240.354
				c2.019,0.212,3.506-1.7,3.719-3.507v-0.426l-0.638-0.105c-1.806-0.212-4.994-0.425-5.206,1.808
				C84.234,239.078,84.872,240.141,86.359,240.354z"/>
			<path fill="#008C9E" d="M96.028,239.716c0,0,1.062,2.125,3.293,2.551c1.169,0.213,2.231-0.105,2.444-1.169
				c0.425-2.23-6.269-3.295-5.419-7.226c0.425-2.338,2.763-2.977,5.207-2.444c1.487,0.319,3.825,1.275,3.506,3.188l-0.213,1.169
				l-2.125-0.426l0.106-0.638c0.106-0.743-0.85-1.273-1.594-1.382c-1.381-0.318-2.337,0-2.55,0.956
				c-0.425,2.338,6.269,3.081,5.418,7.226c-0.425,2.125-2.656,3.188-5.206,2.655c-3.188-0.637-4.462-3.08-4.462-3.08L96.028,239.716
				z"/>
			<path fill="#008C9E" d="M114.94,235.146c3.294,1.274,4.038,4.355,2.975,7.332c-0.106,0.317-0.425,0.851-0.425,0.851l-8.394-3.188
				c-0.85,2.55,0.425,4.567,2.55,5.419c2.019,0.742,3.931-0.105,3.931-0.105l0.319,1.912c0,0-2.337,1.062-5.1,0
				c-3.612-1.382-5.206-4.993-3.825-8.395C108.141,235.359,111.647,233.979,114.94,235.146z M115.791,240.885
				c0.638-1.912-0.212-3.399-1.594-3.932c-1.7-0.639-3.4-0.105-4.569,1.699L115.791,240.885z"/>
		</g>
		<path fill="#008C9E" stroke="#DDF5FF" stroke-miterlimit="10" d="M67.022,297.622c-22.525,0-40.8-4.889-40.8-10.838"/>
		<path fill="#008C9E" stroke="#DDF5FF" stroke-miterlimit="10" d="M107.822,286.784c0,5.949-18.275,10.838-40.8,10.838"/>
		<path fill="#008C9E" stroke="#DDF5FF" stroke-miterlimit="10" d="M67.022,323.653c-22.525,0-40.8-4.888-40.8-10.838"/>
		<path fill="#008C9E" stroke="#DDF5FF" stroke-miterlimit="10" d="M107.822,312.815c0,5.95-18.275,10.838-40.8,10.838"/>
	</g>
	<g>
		<g>
			<path fill="none" stroke="#E5A021" stroke-width="7" stroke-linecap="round" stroke-miterlimit="10" d="M66.278,214.641v-32.193
				c0-8.606,7.012-15.619,15.619-15.619h143.331"/>
			<g>
				<polygon fill="#E5A021" points="219.81,185.422 251.897,166.828 219.81,148.341 				"/>
			</g>
		</g>
	</g>
	<g>
		<path fill="#DDF5FF" d="M199.933,105.481h0.436c0.583,0,1.02-0.146,1.166-0.728l7.866-21.267h3.787l7.866,21.267
			c0.145,0.583,0.583,0.728,1.165,0.728h0.583v3.059h-2.041c-1.748,0-2.33-0.438-2.913-2.039l-1.893-5.244h-9.323l-1.893,5.244
			c-0.583,1.603-1.166,2.039-2.914,2.039h-1.893L199.933,105.481L199.933,105.481z M215.082,98.344l-2.768-7.72
			c-0.438-1.312-1.02-3.496-1.02-3.496l0,0c0,0-0.437,2.185-1.021,3.496l-2.768,7.72H215.082z"/>
		<path fill="#DDF5FF" d="M226.152,94.266c0-0.584-0.292-0.729-0.729-0.729h-1.456v-2.913h3.204c1.602,0,2.185,0.729,2.185,1.747
			c0,0.584,0,1.02,0,1.02l0,0c0,0,1.456-3.204,5.972-3.204c4.806,0,8.012,3.789,8.012,9.469c0,5.681-3.497,9.468-8.157,9.468
			c-3.934,0-5.536-2.913-5.536-2.913l0,0c0,0,0,0.583,0,1.603v8.012h-3.496L226.152,94.266L226.152,94.266z M234.6,106.063
			c2.913,0,5.244-2.331,5.244-6.409c0-3.934-2.039-6.408-5.098-6.408c-2.623,0-5.244,1.894-5.244,6.554
			C229.501,102.858,231.25,106.063,234.6,106.063z"/>
		<path fill="#DDF5FF" d="M247.71,94.266c0-0.584-0.291-0.729-0.729-0.729h-1.456v-2.913h3.205c1.602,0,2.186,0.729,2.186,1.747
			c0,0.584,0,1.02,0,1.02l0,0c0,0,1.456-3.204,5.972-3.204c4.806,0,8.011,3.789,8.011,9.469c0,5.681-3.496,9.468-8.157,9.468
			c-3.933,0-5.536-2.913-5.536-2.913l0,0c0,0,0,0.583,0,1.603v8.012h-3.496V94.266L247.71,94.266z M256.158,106.063
			c2.913,0,5.244-2.331,5.244-6.409c0-3.934-2.04-6.408-5.099-6.408c-2.623,0-5.244,1.894-5.244,6.554
			C251.061,102.858,252.807,106.063,256.158,106.063z"/>
	</g>
	<g>
		<line fill="none" x1="251.897" y1="301.552" x2="116.003" y2="301.552"/>
		<g>
			
				<line fill="none" stroke="#E5A021" stroke-width="7" stroke-linecap="round" stroke-miterlimit="10" x1="251.897" y1="301.552" x2="142.778" y2="301.552"/>
			<g>
				<polygon fill="#E5A021" points="148.197,282.959 116.003,301.552 148.197,320.041 				"/>
			</g>
		</g>
	</g>
	<g>
		<line fill="none" x1="327.76" y1="166.828" x2="446.866" y2="166.828"/>
		<g>
			
				<line fill="none" stroke="#E5A021" stroke-width="7" stroke-linecap="round" stroke-miterlimit="10" x1="327.76" y1="166.828" x2="420.198" y2="166.828"/>
			<g>
				<polygon fill="#E5A021" points="414.778,185.422 446.866,166.828 414.778,148.341 				"/>
			</g>
		</g>
	</g>
	<g>
		<path fill="#DDF5FF" d="M532.853,117.103H392.296c-4.104,0-7.899,2.655-10.301,7.226l-13.862,26.244V16.378
			c0-4.78,2.865-8.712,6.351-8.712h158.447c3.485,0,6.351,3.932,6.351,8.712v92.119
			C539.204,113.278,536.337,117.103,532.853,117.103z"/>
		<g>
			<path d="M397.477,28.703c0-0.212,0-0.426,0-0.639c0-0.212,0-0.425,0-0.638c0-0.212,0-0.425,0-0.638s0-0.425,0-0.638
				c0-0.105,0-0.213-0.1-0.318c0-0.105-0.097-0.212-0.295-0.318c-0.199-0.105-0.297-0.213-0.496-0.213
				c-0.198-0.104-0.495-0.104-0.892-0.104V24.56c0.396,0,0.595,0,0.892-0.105c0.199-0.105,0.397-0.105,0.496-0.212
				c0.096-0.107,0.198-0.212,0.295-0.319c0-0.105,0.1-0.212,0.1-0.318c0-0.425,0-0.851-0.1-1.168
				c-0.097-0.318-0.097-0.851-0.097-1.274c0-0.318,0-0.638,0.097-0.851c0.1-0.213,0.198-0.426,0.398-0.53
				c0.198-0.106,0.395-0.214,0.691-0.319s0.596-0.105,0.99-0.105h0.692v0.639h-0.594c-0.297,0-0.596,0-0.794,0.105
				c-0.198,0-0.295,0.105-0.495,0.213c-0.099,0.105-0.198,0.212-0.198,0.317s-0.097,0.319-0.097,0.531c0,0.318,0,0.744,0,1.169
				s0,0.744,0,1.169s-0.1,0.744-0.198,0.956c-0.2,0.212-0.398,0.318-0.893,0.425l0,0c0.397,0.105,0.694,0.213,0.893,0.426
				c0.198,0.212,0.198,0.53,0.198,0.955c0,0.426,0,0.851,0,1.17c0,0.318,0,0.743,0,1.168c0,0.213,0,0.425,0.097,0.53
				c0.099,0.105,0.099,0.319,0.198,0.319c0.099,0.105,0.297,0.105,0.495,0.212c0.198,0,0.396,0.105,0.794,0.105h0.594v0.639h-0.692
				c-0.396,0-0.693,0-0.99-0.106c-0.297-0.105-0.493-0.105-0.691-0.318c-0.2-0.105-0.297-0.318-0.398-0.53
				C397.279,29.236,397.477,29.128,397.477,28.703z"/>
			<path fill="#008299" d="M411.838,35.503c-0.397,0.213-0.693,0.531-0.893,0.851c-0.198,0.318-0.297,0.744-0.396,1.169
				c0.099,0,0.198-0.105,0.297-0.105c0.196,0,0.495,0.105,0.595,0.212c0.097,0.105,0.199,0.425,0.199,0.639
				c0,0.318-0.101,0.53-0.297,0.743c-0.198,0.213-0.397,0.319-0.596,0.319c-0.297,0-0.595-0.105-0.794-0.425
				c-0.198-0.319-0.295-0.639-0.295-1.17c0-0.638,0.198-1.169,0.494-1.699c0.296-0.531,0.693-0.956,1.288-1.168L411.838,35.503z
				 M414.611,35.503c-0.396,0.213-0.693,0.531-0.892,0.851c-0.199,0.318-0.297,0.744-0.396,1.169c0.099,0,0.196-0.105,0.297-0.105
				c0.198,0,0.493,0.105,0.594,0.212c0.1,0.105,0.198,0.425,0.198,0.639c0,0.318-0.099,0.53-0.297,0.743
				c-0.198,0.214-0.396,0.319-0.596,0.319c-0.295,0-0.593-0.105-0.791-0.425c-0.199-0.319-0.297-0.639-0.297-1.17
				c0-0.638,0.198-1.169,0.495-1.699c0.295-0.531,0.693-0.956,1.287-1.168L414.611,35.503z"/>
			<path fill="#008299" d="M416.889,37.628h3.664v6.163h-0.99v-5.312h-2.674V37.628L416.889,37.628z M419.958,36.353
				c-0.197,0-0.396-0.105-0.594-0.212c-0.099-0.105-0.2-0.318-0.2-0.639c0-0.212,0.1-0.425,0.2-0.637
				c0.097-0.106,0.295-0.213,0.594-0.213c0.198,0,0.396,0.105,0.595,0.213c0.199,0.106,0.199,0.318,0.199,0.637
				c0,0.213-0.099,0.425-0.199,0.639C420.355,36.247,420.256,36.353,419.958,36.353z"/>
			<path fill="#008299" d="M423.723,40.709c0-0.531,0.097-0.957,0.197-1.381c0.098-0.425,0.298-0.744,0.595-1.062
				c0.198-0.318,0.495-0.531,0.792-0.639c0.297-0.105,0.693-0.212,0.99-0.212c0.397,0,0.694,0.105,0.893,0.212
				c0.297,0.105,0.495,0.318,0.792,0.639v-1.169V34.76h0.99v9.031h-0.792l-0.1-0.851l0,0c-0.199,0.213-0.496,0.531-0.891,0.639
				c-0.397,0.105-0.693,0.318-0.99,0.318c-0.397,0-0.692-0.105-0.991-0.212c-0.296-0.105-0.593-0.318-0.792-0.639
				c-0.198-0.318-0.398-0.638-0.495-1.062C423.723,41.666,423.723,41.241,423.723,40.709z M424.713,40.709
				c0,0.744,0.099,1.381,0.495,1.7c0.297,0.425,0.692,0.638,1.288,0.638c0.595,0,1.088-0.318,1.584-0.956v-3.082
				c-0.297-0.212-0.496-0.425-0.793-0.53c-0.296-0.105-0.495-0.212-0.793-0.212c-0.299,0-0.495,0.105-0.694,0.212
				c-0.198,0.105-0.396,0.318-0.593,0.53c-0.199,0.213-0.299,0.426-0.397,0.744C424.713,40.073,424.713,40.391,424.713,40.709z"/>
			<path fill="#008299" d="M431.348,38.69c0.396-0.212,0.693-0.53,0.893-0.851c0.198-0.318,0.296-0.743,0.396-1.169
				c-0.099,0-0.198,0.105-0.297,0.105c-0.297,0-0.495-0.105-0.596-0.213c-0.198-0.212-0.198-0.425-0.198-0.638
				c0-0.318,0.101-0.53,0.297-0.743c0.198-0.214,0.397-0.319,0.596-0.319c0.297,0,0.593,0.105,0.792,0.426
				c0.2,0.318,0.297,0.638,0.297,1.169c0,0.637-0.199,1.168-0.496,1.7c-0.295,0.53-0.691,0.85-1.287,1.169L431.348,38.69z
				 M434.023,38.69c0.396-0.212,0.693-0.53,0.892-0.851c0.198-0.318,0.297-0.743,0.396-1.169c-0.099,0-0.197,0.105-0.297,0.105
				c-0.295,0-0.493-0.105-0.594-0.213c-0.198-0.212-0.198-0.425-0.198-0.638c0-0.318,0.099-0.53,0.297-0.743
				c0.198-0.214,0.396-0.319,0.595-0.319c0.297,0,0.594,0.105,0.792,0.426c0.199,0.319,0.297,0.638,0.297,1.169
				c0,0.637-0.198,1.168-0.495,1.7c-0.295,0.53-0.693,0.85-1.287,1.169L434.023,38.69z"/>
			<path d="M439.867,38.372c0-0.319,0.099-0.531,0.297-0.744c0.198-0.212,0.396-0.317,0.693-0.317s0.495,0.105,0.694,0.317
				c0.196,0.213,0.295,0.425,0.295,0.744c0,0.317-0.099,0.53-0.295,0.744c-0.199,0.212-0.397,0.318-0.694,0.318
				s-0.495-0.105-0.693-0.318C439.965,38.903,439.867,38.69,439.867,38.372z M439.867,42.94c0-0.317,0.099-0.53,0.297-0.744
				c0.198-0.212,0.396-0.318,0.693-0.318s0.495,0.105,0.694,0.318c0.196,0.213,0.295,0.426,0.295,0.744s-0.099,0.531-0.295,0.744
				c-0.199,0.212-0.397,0.317-0.694,0.317s-0.495-0.105-0.693-0.317S439.867,43.259,439.867,42.94z"/>
			<path fill="#6952A1" d="M457.792,42.94v0.851h-5.15V42.94h2.182V36.99h-1.584v-0.639c0.395-0.105,0.792-0.105,1.089-0.212
				c0.295-0.105,0.595-0.213,0.791-0.319h0.694v7.119H457.792z"/>
			<path fill="#6952A1" d="M459.477,43.153c0.595-0.638,1.188-1.169,1.686-1.699c0.493-0.531,0.891-0.956,1.287-1.381
				c0.297-0.426,0.594-0.851,0.792-1.169s0.297-0.743,0.297-1.062c0-0.425-0.099-0.85-0.395-1.169
				c-0.299-0.318-0.694-0.425-1.289-0.425c-0.397,0-0.692,0.105-0.991,0.317c-0.296,0.213-0.593,0.426-0.792,0.744l-0.597-0.639
				c0.299-0.425,0.693-0.638,1.091-0.851c0.396-0.212,0.89-0.318,1.385-0.318c0.397,0,0.694,0.105,0.991,0.213
				s0.595,0.318,0.793,0.531c0.197,0.212,0.396,0.425,0.496,0.744c0.096,0.318,0.196,0.637,0.196,0.955
				c0,0.426-0.099,0.744-0.297,1.17c-0.198,0.425-0.396,0.743-0.693,1.168c-0.295,0.425-0.69,0.85-1.089,1.274
				c-0.397,0.425-0.893,0.956-1.386,1.381c0.198,0,0.493,0,0.693,0c0.199,0,0.494,0,0.692,0h2.476v0.957h-5.349v-0.743H459.477z"/>
			<path fill="#6952A1" d="M466.905,42.091c0.295,0.212,0.594,0.531,0.893,0.638c0.395,0.212,0.792,0.318,1.287,0.318
				c0.295,0,0.493,0,0.693-0.105c0.197-0.105,0.396-0.212,0.594-0.317s0.295-0.318,0.396-0.425c0.099-0.106,0.099-0.426,0.099-0.638
				c0-0.213,0-0.426-0.099-0.639c-0.1-0.212-0.298-0.318-0.495-0.53c-0.198-0.105-0.495-0.212-0.892-0.318
				c-0.397-0.106-0.792-0.106-1.287-0.106v-0.85c0.495,0,0.792,0,1.188-0.106c0.295-0.104,0.594-0.212,0.792-0.318
				c0.198-0.105,0.297-0.317,0.396-0.53c0.1-0.212,0.1-0.425,0.1-0.638c0-0.425-0.1-0.743-0.396-0.957
				c-0.297-0.212-0.694-0.317-1.089-0.317c-0.398,0-0.693,0.105-0.99,0.212c-0.297,0.105-0.596,0.319-0.893,0.638l-0.495-0.638
				c0.297-0.318,0.693-0.53,1.091-0.744c0.396-0.213,0.89-0.318,1.386-0.318c0.396,0,0.693,0,0.99,0.105
				c0.295,0.105,0.595,0.213,0.792,0.426c0.198,0.212,0.396,0.425,0.495,0.637c0.099,0.214,0.198,0.531,0.198,0.851
				c0,0.531-0.198,0.851-0.495,1.169c-0.297,0.319-0.693,0.531-1.188,0.744l0,0c0.297,0.105,0.494,0.105,0.692,0.212
				c0.198,0.105,0.398,0.212,0.597,0.425c0.197,0.212,0.295,0.426,0.396,0.638c0.102,0.212,0.099,0.53,0.099,0.744
				c0,0.318-0.099,0.639-0.199,0.957c-0.098,0.318-0.295,0.53-0.595,0.743c-0.297,0.212-0.495,0.319-0.891,0.426
				c-0.396,0.105-0.495,0.53-0.892,0.53c-0.694,0-1.188-0.105-1.685-0.317c-0.395-0.213-0.794-0.53-1.089-0.851L466.905,42.091z"/>
			<path d="M475.225,45.81c0.495-0.213,0.891-0.531,1.089-0.851c0.198-0.318,0.397-0.744,0.397-1.274h-0.101h-0.097
				c-0.297,0-0.495-0.105-0.693-0.213c-0.198-0.105-0.297-0.426-0.297-0.744s0.099-0.53,0.297-0.744
				c0.198-0.212,0.396-0.212,0.693-0.212c0.396,0,0.594,0.105,0.792,0.426c0.198,0.318,0.297,0.743,0.297,1.169
				c0,0.743-0.198,1.381-0.594,1.912c-0.396,0.532-0.892,0.851-1.586,1.169L475.225,45.81z"/>
			<path fill="#008299" d="M411.838,50.802c-0.397,0.213-0.693,0.531-0.893,0.851c-0.198,0.318-0.297,0.744-0.396,1.168
				c0.099,0,0.198-0.105,0.297-0.105c0.196,0,0.495,0.105,0.595,0.212c0.097,0.106,0.199,0.426,0.199,0.638
				c0,0.318-0.101,0.53-0.297,0.744c-0.198,0.212-0.198,0.317-0.397,0.317c-0.297,0-0.593-0.105-0.793-0.425
				c-0.199-0.319-0.296-0.639-0.296-1.169c0-0.638,0.197-1.168,0.496-1.7c0.295-0.531,0.689-0.957,1.287-1.169L411.838,50.802z
				 M414.611,50.802c-0.396,0.213-0.693,0.531-0.892,0.851c-0.199,0.318-0.297,0.744-0.396,1.168c0.099,0,0.196-0.105,0.297-0.105
				c0.198,0,0.493,0.105,0.594,0.212c0.1,0.106,0.198,0.426,0.198,0.638c0,0.318-0.099,0.53-0.297,0.744
				c-0.198,0.212-0.396,0.317-0.596,0.317c-0.295,0-0.593-0.105-0.791-0.425c-0.199-0.319-0.297-0.639-0.297-1.169
				c0-0.638,0.198-1.168,0.495-1.7c0.295-0.531,0.693-0.957,1.287-1.169L414.611,50.802z"/>
			<path fill="#008299" d="M416.492,52.927h0.99l1.287,3.507c0.099,0.317,0.199,0.637,0.297,0.956
				c0.099,0.318,0.198,0.638,0.295,0.851l0,0c0.101-0.319,0.2-0.639,0.299-0.851c0.099-0.319,0.196-0.639,0.297-0.956l1.287-3.507
				h0.892l-2.377,6.163h-1.089L416.492,52.927z"/>
			<path fill="#008299" d="M423.822,56.009c0-0.53,0.099-0.956,0.297-1.381s0.396-0.744,0.693-1.062
				c0.295-0.317,0.594-0.53,0.893-0.637c0.395-0.105,0.691-0.213,1.088-0.213c0.397,0,0.792,0.106,1.089,0.213
				c0.299,0.105,0.596,0.318,0.794,0.637c0.196,0.213,0.397,0.531,0.495,0.957c0.099,0.318,0.197,0.744,0.197,1.168
				c0,0.213,0,0.426,0,0.531h-4.556c0,0.638,0.295,1.169,0.693,1.594c0.396,0.426,0.891,0.639,1.582,0.639
				c0.297,0,0.694,0,0.893-0.105c0.297-0.105,0.596-0.213,0.794-0.426l0.295,0.639c-0.295,0.212-0.594,0.317-0.988,0.53
				c-0.397,0.106-0.794,0.213-1.289,0.213c-0.396,0-0.794-0.105-1.188-0.213c-0.396-0.105-0.693-0.318-0.99-0.638
				s-0.495-0.639-0.693-1.062C423.723,56.966,423.822,56.541,423.822,56.009z M428.477,55.584c0-0.639-0.198-1.169-0.495-1.487
				c-0.295-0.318-0.694-0.531-1.287-0.531c-0.198,0-0.495,0-0.694,0.105c-0.198,0.105-0.396,0.212-0.595,0.426
				c-0.197,0.213-0.297,0.318-0.396,0.638c-0.1,0.213-0.198,0.531-0.198,0.851L428.477,55.584L428.477,55.584z"/>
			<path fill="#008299" d="M431.843,52.927h0.794l0.099,1.487l0,0c0.295-0.531,0.693-0.851,1.088-1.168
				c0.397-0.319,0.893-0.426,1.486-0.426c0.198,0,0.396,0,0.595,0.105c0.199,0,0.397,0.106,0.496,0.213l-0.199,0.956
				c-0.198-0.105-0.396-0.105-0.495-0.213c-0.097,0-0.295,0-0.594,0c-0.396,0-0.892,0.105-1.289,0.426
				c-0.395,0.317-0.793,0.743-1.088,1.381v3.612h-0.991v-6.375L431.843,52.927L431.843,52.927z"/>
			<path fill="#008299" d="M438.58,57.603c0.297,0.212,0.692,0.425,1.089,0.639c0.396,0.105,0.794,0.212,1.388,0.212
				c0.591,0,0.89-0.105,1.187-0.319c0.297-0.212,0.396-0.425,0.396-0.637c0-0.213-0.098-0.425-0.396-0.639
				c-0.297-0.212-0.794-0.425-1.487-0.53c-0.295-0.105-0.594-0.212-0.891-0.319c-0.295-0.105-0.493-0.212-0.691-0.425
				c-0.2-0.105-0.398-0.318-0.495-0.531c-0.099-0.212-0.198-0.425-0.198-0.638s0.098-0.425,0.198-0.744
				c0.097-0.212,0.295-0.425,0.495-0.53c0.198-0.105,0.493-0.318,0.792-0.318c0.297,0,0.693-0.106,1.091-0.106
				c0.395,0,0.89,0.106,1.287,0.212c0.395,0.106,0.794,0.319,1.089,0.531l-0.494,0.638c-0.297-0.213-0.495-0.318-0.89-0.426
				c-0.299-0.105-0.598-0.212-0.991-0.212c-0.298,0-0.495,0-0.693,0.105s-0.295,0.105-0.396,0.213
				c-0.097,0.105-0.199,0.213-0.199,0.318s-0.098,0.213-0.098,0.318c0,0.212,0.2,0.425,0.495,0.638
				c0.297,0.213,0.794,0.319,1.287,0.426c0.794,0.212,1.388,0.425,1.782,0.744c0.397,0.318,0.598,0.638,0.598,1.169
				c0,0.212-0.101,0.53-0.2,0.743c-0.097,0.213-0.295,0.426-0.494,0.639c-0.198,0.212-0.495,0.318-0.794,0.426
				c-0.295,0.104-0.693,0.104-1.09,0.104c-0.594,0-1.089-0.104-1.584-0.318c-0.493-0.213-0.893-0.425-1.287-0.638L438.58,57.603z"/>
			<path fill="#008299" d="M445.413,52.927h3.665v6.163h-0.99v-5.312h-2.673L445.413,52.927L445.413,52.927z M448.484,51.653
				c-0.198,0-0.396-0.105-0.596-0.213c-0.098-0.105-0.198-0.317-0.198-0.638c0-0.212,0.099-0.425,0.198-0.638
				c0.101-0.105,0.297-0.212,0.596-0.212c0.196,0,0.396,0.105,0.594,0.212c0.2,0.105,0.2,0.318,0.2,0.638
				c0,0.213-0.101,0.426-0.2,0.638C448.879,51.547,448.781,51.653,448.484,51.653z"/>
			<path fill="#008299" d="M452.248,56.009c0-0.53,0.098-0.956,0.198-1.381c0.098-0.425,0.395-0.744,0.594-1.062
				c0.2-0.317,0.595-0.53,0.892-0.637c0.297-0.105,0.692-0.213,1.089-0.213c0.398,0,0.794,0.106,1.091,0.213
				c0.297,0.105,0.693,0.318,0.89,0.637c0.297,0.318,0.495,0.639,0.596,1.062c0.099,0.425,0.198,0.851,0.198,1.381
				c0,0.531-0.099,0.957-0.198,1.382c-0.101,0.424-0.396,0.743-0.596,1.062c-0.295,0.318-0.593,0.53-0.89,0.638
				s-0.692,0.212-1.091,0.212c-0.396,0-0.792-0.104-1.089-0.212c-0.297-0.105-0.691-0.318-0.892-0.638
				c-0.295-0.319-0.494-0.639-0.594-1.062C452.345,56.966,452.248,56.541,452.248,56.009z M453.238,56.009
				c0,0.319,0,0.639,0.097,0.957c0.1,0.318,0.198,0.531,0.396,0.744s0.396,0.318,0.596,0.531c0.198,0.105,0.493,0.212,0.792,0.212
				c0.298,0,0.495-0.105,0.793-0.212c0.199-0.106,0.397-0.319,0.596-0.531s0.297-0.425,0.397-0.744
				C457,56.648,457,56.328,457,56.009c0-0.318,0-0.637-0.096-0.956c-0.099-0.318-0.199-0.53-0.397-0.743s-0.396-0.426-0.596-0.531
				c-0.198-0.105-0.493-0.213-0.793-0.213c-0.295,0-0.495,0.105-0.792,0.213c-0.199,0.105-0.396,0.318-0.596,0.531
				c-0.198,0.212-0.295,0.425-0.396,0.743C453.236,55.372,453.238,55.69,453.238,56.009z"/>
			<path fill="#008299" d="M459.774,52.927h0.792l0.1,1.062l0,0c0.297-0.319,0.594-0.639,0.989-0.851
				c0.396-0.213,0.793-0.319,1.188-0.319c0.693,0,1.188,0.213,1.485,0.639c0.297,0.425,0.495,1.062,0.495,1.913v3.824h-0.988v-3.719
				c0-0.638-0.101-1.062-0.299-1.274c-0.196-0.319-0.593-0.426-0.99-0.426c-0.196,0-0.295,0-0.493,0.105s-0.297,0.105-0.397,0.213
				c-0.098,0.105-0.295,0.213-0.396,0.318c-0.198,0.105-0.297,0.318-0.495,0.53v4.355h-0.988L459.774,52.927L459.774,52.927z"/>
			<path fill="#008299" d="M467.003,53.991c0.396-0.213,0.693-0.531,0.892-0.851c0.199-0.318,0.297-0.744,0.397-1.169
				c-0.099,0-0.198,0.105-0.297,0.105c-0.297,0-0.495-0.105-0.596-0.212c-0.198-0.213-0.198-0.426-0.198-0.639
				c0-0.318,0.101-0.531,0.297-0.744c0.198-0.212,0.396-0.318,0.596-0.318c0.297,0,0.593,0.105,0.792,0.425
				c0.2,0.318,0.297,0.638,0.297,1.168c0,0.639-0.199,1.169-0.496,1.7c-0.295,0.53-0.691,0.851-1.287,1.168L467.003,53.991z
				 M469.678,53.991c0.396-0.213,0.693-0.531,0.892-0.851c0.198-0.318,0.297-0.744,0.396-1.169c-0.099,0-0.197,0.105-0.297,0.105
				c-0.295,0-0.493-0.105-0.594-0.212c-0.198-0.213-0.198-0.426-0.198-0.639c0-0.318,0.099-0.531,0.297-0.744
				c0.198-0.212,0.396-0.318,0.595-0.318c0.297,0,0.594,0.105,0.792,0.425c0.199,0.319,0.297,0.638,0.297,1.168
				c0,0.639-0.198,1.169-0.495,1.7c-0.295,0.53-0.693,0.851-1.287,1.168L469.678,53.991z"/>
			<path d="M475.522,53.672c0-0.318,0.099-0.53,0.297-0.744c0.198-0.212,0.396-0.318,0.693-0.318s0.495,0.105,0.694,0.318
				c0.196,0.213,0.295,0.426,0.295,0.744c0,0.319-0.099,0.531-0.295,0.744c-0.199,0.212-0.397,0.318-0.694,0.318
				s-0.495-0.105-0.693-0.318S475.522,53.991,475.522,53.672z M475.522,58.241c0-0.319,0.099-0.531,0.297-0.744
				s0.396-0.319,0.693-0.319s0.495,0.106,0.694,0.319c0.196,0.212,0.295,0.425,0.295,0.744c0,0.318-0.099,0.53-0.295,0.743
				c-0.199,0.213-0.397,0.319-0.694,0.319s-0.495-0.105-0.693-0.319C475.621,58.772,475.522,58.56,475.522,58.241z"/>
			<path fill="#6952A1" d="M493.448,58.241v0.85h-5.15v-0.85h2.182v-5.95h-1.584v-0.638c0.395-0.105,0.792-0.105,1.088-0.213
				c0.295-0.105,0.596-0.212,0.792-0.317h0.694v7.226h1.98L493.448,58.241L493.448,58.241z"/>
			<path d="M496.618,61.109c0.493-0.212,0.893-0.53,1.089-0.851c0.198-0.318,0.396-0.743,0.396-1.274h-0.098h-0.099
				c-0.297,0-0.495-0.105-0.693-0.212c-0.197-0.105-0.297-0.425-0.297-0.744c0-0.318,0.1-0.53,0.297-0.743
				c0.198-0.212,0.396-0.212,0.693-0.212c0.396,0,0.596,0.104,0.792,0.425c0.198,0.317,0.299,0.744,0.299,1.168
				c0,0.744-0.198,1.381-0.598,1.913c-0.395,0.531-0.89,0.85-1.582,1.169L496.618,61.109z"/>
			<path fill="#008299" d="M411.838,66.103c-0.397,0.212-0.693,0.53-0.893,0.851c-0.198,0.318-0.297,0.744-0.396,1.169
				c0.099,0,0.198-0.105,0.297-0.105c0.196,0,0.495,0.105,0.595,0.212c0.097,0.105,0.199,0.425,0.199,0.639
				c0,0.318-0.101,0.53-0.297,0.743c-0.198,0.213-0.397,0.319-0.596,0.319c-0.297,0-0.595-0.105-0.794-0.426
				c-0.198-0.317-0.295-0.637-0.295-1.168c0-0.638,0.198-1.169,0.494-1.7c0.296-0.53,0.693-0.955,1.288-1.168L411.838,66.103z
				 M414.611,66.103c-0.396,0.212-0.693,0.53-0.892,0.851c-0.199,0.318-0.297,0.744-0.396,1.169c0.099,0,0.196-0.105,0.297-0.105
				c0.198,0,0.493,0.105,0.594,0.212c0.1,0.105,0.198,0.425,0.198,0.639c0,0.318-0.099,0.53-0.297,0.743
				c-0.198,0.214-0.396,0.319-0.596,0.319c-0.295,0-0.593-0.105-0.791-0.426c-0.199-0.317-0.297-0.637-0.297-1.168
				c0-0.638,0.198-1.169,0.495-1.7c0.295-0.53,0.693-0.955,1.287-1.168L414.611,66.103z"/>
			<path fill="#008299" d="M416.987,68.228h0.796l0.097,1.062l0,0c0.297-0.318,0.595-0.638,0.99-0.851
				c0.396-0.212,0.792-0.317,1.187-0.317c0.694,0,1.189,0.212,1.488,0.637c0.295,0.426,0.493,1.062,0.493,1.913v3.825h-0.99v-3.72
				c0-0.638-0.099-1.062-0.297-1.274c-0.199-0.317-0.594-0.425-0.989-0.425c-0.198,0-0.298,0-0.495,0.105
				c-0.198,0.105-0.298,0.105-0.396,0.212c-0.099,0.105-0.297,0.212-0.397,0.318c-0.198,0.105-0.296,0.318-0.495,0.531v4.355h-0.99
				V68.228L416.987,68.228z"/>
			<path fill="#008299" d="M423.92,72.797c0-0.318,0.098-0.638,0.198-0.956c0.1-0.318,0.396-0.53,0.693-0.638
				c0.295-0.105,0.792-0.319,1.287-0.426c0.495-0.105,1.188-0.213,1.883-0.318c0-0.212,0-0.425-0.099-0.639
				c-0.098-0.213-0.098-0.318-0.297-0.53c-0.198-0.212-0.295-0.212-0.493-0.318c-0.2-0.105-0.396-0.105-0.693-0.105
				c-0.396,0-0.794,0.105-1.089,0.212c-0.398,0.105-0.693,0.318-0.893,0.53l-0.395-0.743c0.097-0.106,0.295-0.213,0.493-0.319
				s0.396-0.212,0.596-0.318c0.198-0.105,0.493-0.105,0.691-0.212c0.2-0.105,0.495-0.105,0.794-0.105
				c0.792,0,1.388,0.213,1.782,0.743c0.397,0.426,0.596,1.062,0.596,1.807v3.825h-0.792l-0.101-0.851l0,0
				c-0.297,0.317-0.693,0.53-1.089,0.743c-0.396,0.214-0.792,0.319-1.188,0.319c-0.295,0-0.493,0-0.792-0.105
				c-0.198-0.105-0.396-0.213-0.596-0.318c-0.196-0.106-0.297-0.319-0.395-0.531C424.02,73.328,423.92,73.116,423.92,72.797z
				 M424.911,72.69c0,0.213,0,0.318,0.1,0.426c0.097,0.105,0.198,0.212,0.297,0.318c0.097,0.105,0.295,0.105,0.397,0.212
				c0.196,0,0.295,0.105,0.493,0.105c0.297,0,0.691-0.105,0.99-0.212c0.297-0.105,0.691-0.425,0.988-0.638V71.31
				c-0.593,0-1.089,0.105-1.582,0.212c-0.495,0.105-0.795,0.212-0.99,0.318c-0.198,0.105-0.396,0.318-0.495,0.426
				C424.911,72.372,424.911,72.478,424.911,72.69z"/>
			<path fill="#008299" d="M430.853,68.228h0.796l0.096,0.851l0,0c0.099-0.319,0.297-0.531,0.496-0.744
				c0.198-0.212,0.495-0.318,0.793-0.318c0.596,0,0.99,0.318,1.089,1.062c0.198-0.319,0.397-0.531,0.596-0.744
				c0.198-0.212,0.495-0.318,0.792-0.318c0.396,0,0.693,0.212,0.892,0.53c0.199,0.319,0.297,0.851,0.297,1.381v4.463h-0.892v-4.355
				c0-0.744-0.197-1.062-0.594-1.062c-0.198,0-0.398,0.106-0.495,0.214c-0.198,0.105-0.297,0.425-0.495,0.743v4.463h-0.792v-4.355
				c0-0.744-0.2-1.062-0.694-1.062c-0.198,0-0.396,0.106-0.495,0.214c-0.096,0.105-0.296,0.425-0.396,0.743v4.463h-0.891v-6.163
				L430.853,68.228L430.853,68.228z"/>
			<path fill="#008299" d="M438.084,71.31c0-0.531,0.099-0.957,0.297-1.381c0.198-0.426,0.395-0.744,0.693-1.062
				c0.297-0.319,0.594-0.531,0.891-0.639c0.396-0.105,0.693-0.212,1.091-0.212c0.395,0,0.792,0.105,1.088,0.212
				c0.297,0.105,0.594,0.318,0.792,0.639c0.199,0.212,0.399,0.53,0.496,0.956c0.1,0.318,0.198,0.743,0.198,1.169
				c0,0.212,0,0.425,0,0.53h-4.556c0,0.638,0.297,1.168,0.692,1.595c0.396,0.425,0.892,0.637,1.585,0.637
				c0.295,0,0.694,0,0.891-0.105c0.297-0.105,0.596-0.212,0.794-0.425l0.297,0.638c-0.297,0.213-0.598,0.319-0.99,0.531
				c-0.397,0.105-0.792,0.212-1.287,0.212c-0.397,0-0.794-0.105-1.189-0.212c-0.395-0.105-0.691-0.318-0.99-0.639
				c-0.297-0.317-0.495-0.637-0.693-1.062C437.984,72.266,438.084,71.841,438.084,71.31z M442.738,70.884
				c0-0.637-0.196-1.168-0.493-1.486s-0.691-0.53-1.289-0.53c-0.198,0-0.493,0-0.691,0.105c-0.199,0.105-0.397,0.213-0.596,0.425
				s-0.295,0.318-0.396,0.638c-0.099,0.213-0.197,0.53-0.197,0.85L442.738,70.884L442.738,70.884z"/>
			<path fill="#008299" d="M445.611,69.291c0.397-0.212,0.693-0.531,0.893-0.851c0.196-0.317,0.296-0.743,0.395-1.168
				c-0.097,0-0.198,0.105-0.295,0.105c-0.297,0-0.495-0.105-0.595-0.212c-0.199-0.212-0.199-0.425-0.199-0.638
				c0-0.318,0.099-0.53,0.297-0.743c0.198-0.212,0.397-0.318,0.594-0.318c0.299,0,0.598,0.106,0.796,0.426
				c0.196,0.318,0.295,0.639,0.295,1.169c0,0.638-0.198,1.168-0.493,1.7c-0.297,0.531-0.694,0.85-1.289,1.169L445.611,69.291z
				 M448.286,69.291c0.395-0.212,0.693-0.531,0.89-0.851c0.199-0.317,0.299-0.743,0.397-1.168c-0.097,0-0.198,0.105-0.295,0.105
				c-0.297,0-0.495-0.105-0.598-0.212c-0.196-0.212-0.196-0.425-0.196-0.638c0-0.318,0.099-0.53,0.297-0.743
				c0.198-0.212,0.395-0.318,0.594-0.318c0.297,0,0.595,0.106,0.794,0.426c0.198,0.318,0.296,0.639,0.296,1.169
				c0,0.638-0.198,1.168-0.495,1.7c-0.297,0.53-0.691,0.85-1.289,1.169L448.286,69.291z"/>
			<path d="M454.127,68.972c0-0.318,0.099-0.531,0.297-0.744c0.197-0.212,0.396-0.318,0.692-0.318c0.298,0,0.495,0.105,0.693,0.318
				c0.198,0.212,0.297,0.425,0.297,0.744c0,0.318-0.099,0.53-0.297,0.743c-0.198,0.212-0.396,0.318-0.693,0.318
				c-0.297,0-0.495-0.106-0.692-0.318C454.228,69.503,454.127,69.291,454.127,68.972z M454.127,73.541
				c0-0.318,0.099-0.531,0.297-0.744c0.197-0.212,0.396-0.318,0.692-0.318c0.298,0,0.495,0.105,0.693,0.318
				c0.198,0.212,0.297,0.426,0.297,0.744s-0.099,0.531-0.297,0.744s-0.396,0.318-0.693,0.318c-0.297,0-0.495-0.105-0.692-0.318
				C454.226,74.073,454.127,73.859,454.127,73.541z"/>
			<path fill="#008299" d="M468.886,66.103c-0.399,0.212-0.694,0.53-0.893,0.851c-0.196,0.318-0.297,0.744-0.396,1.169
				c0.098,0,0.2-0.105,0.297-0.105c0.198,0,0.495,0.105,0.593,0.212c0.101,0.105,0.199,0.425,0.199,0.639
				c0,0.318-0.097,0.53-0.295,0.743c-0.199,0.213-0.397,0.319-0.594,0.319c-0.299,0-0.598-0.105-0.796-0.426
				c-0.196-0.317-0.297-0.637-0.297-1.168c0-0.638,0.2-1.169,0.495-1.7c0.297-0.53,0.694-0.955,1.287-1.168L468.886,66.103z
				 M471.659,66.103c-0.396,0.212-0.693,0.53-0.891,0.851c-0.198,0.318-0.298,0.744-0.396,1.169c0.097,0,0.198-0.105,0.295-0.105
				c0.2,0,0.495,0.105,0.597,0.212c0.097,0.105,0.197,0.425,0.197,0.639c0,0.318-0.099,0.53-0.297,0.743s-0.396,0.319-0.594,0.319
				c-0.297,0-0.595-0.105-0.792-0.426c-0.2-0.317-0.2-0.637-0.2-1.062c0-0.637,0.2-1.168,0.495-1.699
				c0.297-0.532,0.693-0.957,1.287-1.169L471.659,66.103z"/>
			<path fill="#008299" d="M474.106,70.247c0-0.639,0.1-1.274,0.297-1.808c0.198-0.53,0.396-0.956,0.691-1.381
				c0.297-0.426,0.693-0.639,1.093-0.851c0.395-0.212,0.888-0.318,1.384-0.318c0.495,0,0.892,0.105,1.287,0.318
				c0.398,0.213,0.693,0.425,0.892,0.744l-0.594,0.638c-0.198-0.213-0.396-0.425-0.693-0.53s-0.596-0.213-0.892-0.213
				c-0.396,0-0.694,0.105-0.989,0.213c-0.299,0.105-0.597,0.425-0.796,0.638c-0.196,0.318-0.395,0.638-0.493,1.062
				c-0.098,0.426-0.198,0.851-0.198,1.382c0,0.53,0.099,0.956,0.198,1.381c0.099,0.426,0.297,0.744,0.493,1.062
				c0.199,0.318,0.496,0.531,0.796,0.637c0.295,0.214,0.594,0.214,0.989,0.214c0.395,0,0.693-0.105,0.99-0.214
				c0.295-0.212,0.493-0.425,0.792-0.637l0.595,0.637c-0.295,0.426-0.693,0.639-1.09,0.852c-0.396,0.212-0.792,0.318-1.287,0.318
				c-0.496,0-0.989-0.105-1.386-0.318c-0.397-0.213-0.794-0.531-1.091-0.852c-0.295-0.317-0.594-0.85-0.691-1.381
				C474.304,71.308,474.106,70.884,474.106,70.247z"/>
			<path fill="#008299" d="M481.435,72.797c0-0.318,0.097-0.638,0.199-0.956c0.097-0.318,0.395-0.53,0.691-0.638
				c0.297-0.105,0.794-0.319,1.289-0.426c0.495-0.105,1.186-0.213,1.881-0.318c0-0.212,0-0.425-0.097-0.639
				c-0.1-0.213-0.1-0.318-0.297-0.53c-0.198-0.212-0.299-0.212-0.495-0.318c-0.198-0.105-0.396-0.105-0.693-0.105
				c-0.397,0-0.792,0.105-1.091,0.212c-0.395,0.105-0.689,0.318-0.891,0.53l-0.396-0.743c0.1-0.106,0.297-0.213,0.495-0.319
				c0.198-0.105,0.397-0.212,0.596-0.318c0.196-0.105,0.495-0.105,0.691-0.212c0.198-0.105,0.495-0.105,0.796-0.105
				c0.792,0,1.384,0.213,1.78,0.743c0.397,0.426,0.596,1.062,0.596,1.807v3.825h-0.794l-0.097-0.851l0,0
				c-0.299,0.317-0.693,0.53-1.091,0.743c-0.395,0.214-0.793,0.319-1.188,0.319c-0.295,0-0.493,0-0.792-0.105
				c-0.198-0.105-0.395-0.213-0.596-0.318c-0.198-0.106-0.295-0.319-0.396-0.531C481.534,73.328,481.435,73.116,481.435,72.797z
				 M482.426,72.69c0,0.213,0,0.318,0.098,0.426c0.099,0.105,0.199,0.212,0.295,0.318c0.101,0.105,0.299,0.105,0.399,0.212
				c0.198,0,0.295,0.105,0.493,0.105c0.297,0,0.693-0.105,0.99-0.212c0.295-0.105,0.693-0.425,0.988-0.638V71.31
				c-0.593,0-1.088,0.105-1.584,0.212c-0.493,0.105-0.792,0.212-0.988,0.318c-0.198,0.105-0.396,0.318-0.495,0.426
				C482.426,72.372,482.426,72.478,482.426,72.69z"/>
			<path fill="#008299" d="M488.864,65.359h0.988v6.163l0,0l3.17-3.294h1.089l-2.277,2.443l2.577,3.72h-1.09l-2.079-3.081
				l-1.388,1.381v1.7h-0.988L488.864,65.359L488.864,65.359z"/>
			<path fill="#008299" d="M495.598,71.31c0-0.531,0.099-0.957,0.297-1.381c0.198-0.426,0.396-0.744,0.693-1.062
				c0.295-0.319,0.594-0.531,0.893-0.639c0.395-0.105,0.691-0.212,1.089-0.212c0.396,0,0.792,0.105,1.089,0.212
				c0.296,0.105,0.595,0.318,0.793,0.639c0.197,0.212,0.397,0.53,0.495,0.956c0.097,0.318,0.197,0.743,0.197,1.169
				c0,0.212,0,0.425,0,0.53h-4.556c0,0.638,0.295,1.168,0.694,1.595c0.395,0.425,0.89,0.637,1.582,0.637
				c0.297,0,0.693,0,0.892-0.105c0.297-0.105,0.596-0.212,0.794-0.425l0.295,0.638c-0.295,0.213-0.594,0.319-0.988,0.531
				c-0.397,0.105-0.794,0.212-1.289,0.212c-0.397,0-0.794-0.105-1.188-0.212c-0.395-0.105-0.693-0.318-0.99-0.639
				c-0.297-0.317-0.495-0.637-0.693-1.062C495.5,72.266,495.598,71.841,495.598,71.31z M500.253,70.884
				c0-0.637-0.198-1.168-0.495-1.486c-0.295-0.318-0.693-0.53-1.287-0.53c-0.198,0-0.495,0-0.693,0.105
				c-0.199,0.105-0.397,0.213-0.596,0.425c-0.196,0.212-0.297,0.318-0.396,0.638c-0.1,0.213-0.198,0.53-0.198,0.85L500.253,70.884
				L500.253,70.884z"/>
			<path fill="#008299" d="M503.125,69.291c0.397-0.212,0.694-0.531,0.893-0.851c0.198-0.317,0.297-0.743,0.396-1.168
				c-0.099,0-0.198,0.105-0.297,0.105c-0.297,0-0.495-0.105-0.595-0.212c-0.199-0.212-0.199-0.425-0.199-0.638
				c0-0.318,0.101-0.53,0.297-0.743c0.199-0.212,0.397-0.318,0.596-0.318c0.297,0,0.596,0.106,0.794,0.426
				c0.198,0.318,0.295,0.639,0.295,1.169c0,0.638-0.198,1.168-0.495,1.7c-0.295,0.53-0.692,0.85-1.287,1.169L503.125,69.291z
				 M505.799,69.291c0.396-0.212,0.693-0.531,0.892-0.851c0.199-0.318,0.297-0.743,0.396-1.168c-0.099,0-0.196,0.105-0.297,0.105
				c-0.295,0-0.493-0.105-0.594-0.212c-0.198-0.212-0.198-0.425-0.198-0.638c0-0.318,0.099-0.53,0.297-0.743
				c0.198-0.212,0.396-0.318,0.596-0.318c0.296,0,0.593,0.106,0.792,0.426c0.198,0.318,0.296,0.639,0.296,1.169
				c0,0.638-0.198,1.168-0.495,1.7c-0.295,0.53-0.693,0.85-1.287,1.169L505.799,69.291z"/>
			<path d="M511.346,76.409c0.496-0.212,0.891-0.531,1.089-0.851c0.199-0.318,0.397-0.744,0.397-1.274h-0.099h-0.099
				c-0.297,0-0.495-0.106-0.693-0.212c-0.198-0.106-0.297-0.426-0.297-0.744c0-0.319,0.099-0.531,0.297-0.744
				c0.198-0.212,0.396-0.212,0.693-0.212c0.396,0,0.594,0.105,0.792,0.425c0.199,0.319,0.297,0.744,0.297,1.169
				c0,0.744-0.198,1.382-0.593,1.912c-0.399,0.531-0.893,0.851-1.586,1.169L511.346,76.409z"/>
			<path d="M411.343,88.841c0-0.318,0.098-0.53,0.297-0.743c0.198-0.213,0.395-0.317,0.691-0.317s0.495,0.104,0.692,0.317
				c0.198,0.213,0.298,0.425,0.298,0.743s-0.1,0.531-0.298,0.744c-0.197,0.212-0.396,0.318-0.692,0.318s-0.493-0.105-0.691-0.318
				C411.441,89.372,411.343,89.159,411.343,88.841z"/>
			<path d="M418.472,88.841c0-0.318,0.099-0.53,0.297-0.743c0.197-0.213,0.396-0.317,0.692-0.317c0.299,0,0.495,0.104,0.693,0.317
				s0.297,0.425,0.297,0.743s-0.099,0.531-0.297,0.744c-0.198,0.212-0.395,0.318-0.693,0.318c-0.297,0-0.495-0.105-0.692-0.318
				C418.571,89.372,418.472,89.159,418.472,88.841z"/>
			<path d="M425.604,88.841c0-0.318,0.101-0.53,0.297-0.743c0.198-0.213,0.396-0.317,0.693-0.317c0.295,0,0.493,0.104,0.693,0.317
				c0.199,0.213,0.296,0.425,0.296,0.743s-0.097,0.531-0.296,0.744c-0.2,0.212-0.398,0.318-0.693,0.318
				c-0.297,0-0.495-0.105-0.693-0.318C425.705,89.372,425.604,89.159,425.604,88.841z"/>
			<path d="M396.289,106.372c0.296,0,0.595,0,0.794-0.105c0.198,0,0.295-0.105,0.493-0.212c0.2-0.105,0.2-0.213,0.2-0.319
				s0.097-0.318,0.097-0.53c0-0.425,0-0.744,0-1.169c0-0.318,0-0.744,0-1.168c0-0.426,0.1-0.744,0.198-0.957
				c0.198-0.212,0.396-0.318,0.892-0.426l0,0c-0.396-0.105-0.693-0.212-0.892-0.425s-0.198-0.53-0.198-0.957
				c0-0.426,0-0.744,0-1.168c0-0.426,0-0.744,0-1.169c0-0.212,0-0.426-0.097-0.531c-0.101-0.105-0.101-0.318-0.2-0.318
				c-0.097,0-0.295-0.105-0.493-0.212c-0.199-0.105-0.397-0.105-0.794-0.105h-0.596v-0.638h0.693c0.397,0,0.694,0,0.991,0.105
				c0.296,0.105,0.495,0.105,0.691,0.318c0.198,0.213,0.299,0.319,0.398,0.531c0.097,0.212,0.097,0.531,0.097,0.851
				c0,0.425,0,0.851-0.097,1.274c-0.098,0.425-0.098,0.851-0.098,1.169c0,0.105,0,0.212,0.098,0.319
				c0,0.104,0.097,0.212,0.295,0.317c0.101,0.105,0.297,0.213,0.495,0.213c0.199,0.105,0.495,0.105,0.893,0.105v0.639
				c-0.397,0-0.598,0-0.893,0.105c-0.198,0.105-0.395,0.105-0.495,0.213c-0.097,0.105-0.198,0.212-0.295,0.317
				c0,0.105-0.098,0.213-0.098,0.318c0,0.213,0,0.426,0,0.639s0,0.426,0,0.638c0,0.213,0,0.425,0,0.638c0,0.214,0,0.426,0,0.639
				c0,0.317,0,0.638-0.101,0.851c-0.097,0.213-0.198,0.425-0.396,0.53c-0.198,0.105-0.396,0.214-0.693,0.319
				c-0.295,0.105-0.596,0.105-0.99,0.105h-0.691v-0.639h0.791L396.289,106.372L396.289,106.372z"/>
		</g>
	</g>
	<g>
		<path fill="#E5A021" d="M307.573,339.909h-26.775c-4.676,0-8.395-3.72-8.395-8.395v-192.95c0-4.675,3.719-8.395,8.395-8.395
			h26.775c4.674,0,8.393,3.72,8.393,8.395v192.95C315.965,336.19,312.247,339.909,307.573,339.909z"/>
		<g>
			<path fill="#FFFFFF" d="M284.622,290.078v2.02h-2.656v-9.351c0-3.825,2.338-6.48,6.27-6.48c3.612,0,5.419,2.338,5.737,3.824
				h0.106c0,0,0.318-0.53,0.955-0.956l5.207-2.551c0.637-0.317,0.744-0.743,0.744-1.486v-0.426h2.654v1.487
				c0,1.699-0.213,2.338-1.594,2.977l-5.844,2.975c-0.957,0.531-1.17,0.956-1.17,2.125v2.764h8.605v3.081L284.622,290.078
				L284.622,290.078z M292.377,283.065c0-2.337-1.486-3.719-3.931-3.719s-3.825,1.382-3.825,3.611v4.038h7.756V283.065
				L292.377,283.065z"/>
			<path fill="#FFFFFF" d="M287.81,265.747c0-4.355,3.188-6.694,7.226-6.694c0.424,0,1.168,0.106,1.168,0.106v11.263
				c3.295-0.213,5.207-2.55,5.207-5.312c0-2.655-1.809-4.463-1.809-4.463l2.125-1.273c0,0,2.23,2.337,2.23,5.95
				c0,4.887-3.506,8.181-8.074,8.181C290.997,273.503,287.81,270.104,287.81,265.747z M294.079,262.135
				c-2.551,0.105-3.932,1.699-3.932,3.612c0,2.23,1.381,4.037,3.932,4.567V262.135z"/>
			<path fill="#FFFFFF" d="M299.284,255.334c0,0,2.338-1.807,2.338-4.675c0-1.382-0.637-2.656-2.02-2.656
				c-2.764,0-2.443,8.395-7.438,8.395c-2.976,0-4.356-2.55-4.356-5.736c0-1.912,0.637-5.101,2.976-5.101h1.487v2.655h-0.744
				c-0.956,0-1.274,1.382-1.274,2.337c0,1.7,0.638,2.869,1.807,2.869c2.975,0,2.337-8.395,7.438-8.395
				c2.764,0,4.463,2.443,4.463,5.632c0,4.144-2.762,6.163-2.762,6.163L299.284,255.334z"/>
			<path fill="#FFFFFF" d="M290.465,241.203v2.02h-2.338v-2.125h-4.25v-2.868h4.25v-3.72h2.338v3.72h7.119
				c3.082,0,3.506-2.125,3.506-3.294c0-0.426-0.104-0.744-0.104-0.744h2.654c0,0,0.105,0.426,0.105,1.062
				c0,1.913-0.637,5.845-5.736,5.845h-7.545V241.203L290.465,241.203z"/>
			<path fill="#FFFFFF" d="M300.985,224.628v-0.425c0-0.531-0.107-0.851-0.641-0.956l-18.274-6.694v-3.188l18.274-6.693
				c0.531-0.213,0.641-0.53,0.641-0.956v-0.425h2.654v1.699c0,1.487-0.316,2.02-1.807,2.551l-4.463,1.594v7.97l4.463,1.595
				c1.381,0.53,1.807,0.956,1.807,2.55v1.7h-2.654V224.628z M294.822,211.56l-6.587,2.337c-1.169,0.427-2.975,0.852-2.975,0.852
				v0.105c0,0,1.912,0.425,2.975,0.851l6.587,2.338V211.56z"/>
			<path fill="#FFFFFF" d="M284.622,201.573v2.019h-2.656v-9.456c0-3.932,2.656-6.693,6.693-6.693c4.038,0,6.801,2.764,6.801,6.693
				v4.463h7.967v3.08h-18.805V201.573L284.622,201.573z M293.016,194.56c0-2.551-1.594-4.038-4.25-4.038
				c-2.551,0-4.145,1.594-4.145,4.038v4.037h8.287v-4.037H293.016z"/>
			<path fill="#FFFFFF" d="M300.985,185.315v-2.125h-16.257v2.125h-2.656v-7.119h2.656v2.125h16.257v-2.125h2.654v7.119H300.985z"/>
		</g>
	</g>
	<g>
		<path fill="#DDF5FF" d="M522.27,335.607H387.333c-2.441,0-4.781-1.169-6.27-3.188l-8.5-11.688V367.8
			c0,2.125,1.701,3.823,3.826,3.823h145.773c2.125,0,3.824-1.698,3.824-3.823v-28.264
			C526.094,337.414,524.395,335.607,522.27,335.607z"/>
		<g>
			<path fill="#008C9E" d="M397.958,348.57c2.125,0,3.188,1.062,3.188,1.062l-0.742,0.956c0,0-0.957-0.852-2.445-0.852
				c-1.805,0-3.188,1.487-3.188,3.399c0,2.125,1.486,3.507,3.295,3.507c1.594,0,2.549-1.169,2.549-1.169v-0.956
				c0-0.213-0.104-0.318-0.318-0.318h-0.529v-1.062h1.17c0.529,0,0.85,0.213,0.85,0.851v3.612h-1.17v-0.531c0-0.213,0-0.425,0-0.425
				l0,0c0,0-0.955,1.062-2.762,1.062c-2.443,0-4.355-1.912-4.355-4.676C393.389,350.695,395.301,348.57,397.958,348.57z"/>
			<path fill="#008C9E" d="M403.588,349.844h-0.85v-1.062h5.312c0.529,0,0.85,0.213,0.85,0.852v1.169h-1.168v-0.531
				c0-0.213-0.107-0.318-0.318-0.318h-2.551v2.868h3.188v1.062h-3.188v2.655c0,0.212,0.105,0.317,0.318,0.317h2.654
				c0.215,0,0.318-0.105,0.318-0.317v-0.53h1.17v1.169c0,0.53-0.213,0.85-0.85,0.85h-4.039c-0.531,0-0.852-0.213-0.852-0.85v-7.333
				L403.588,349.844L403.588,349.844z"/>
			<path fill="#008C9E" d="M412.833,349.844h-1.807c-0.213,0-0.318,0.105-0.318,0.318v0.53h-1.168v-1.169
				c0-0.53,0.211-0.743,0.742-0.743h6.164c0.531,0,0.742,0.213,0.742,0.743v1.169h-0.955v-0.53c0-0.213-0.107-0.318-0.318-0.318
				h-1.807v7.862h-1.275V349.844L412.833,349.844z"/>
			<path fill="#008C9E" d="M423.989,348.251h1.062l-3.189,9.988h-1.061L423.989,348.251z"/>
			<path fill="#008C9E" d="M426.219,352.715c0-0.214-0.105-0.318-0.318-0.318h-0.531v-1.062h1.17c0.531,0,0.742,0.213,0.742,0.638
				c0,0.213,0,0.318,0,0.318l0,0c0,0,0.531-1.169,2.125-1.169c1.701,0,2.869,1.381,2.869,3.399c0,2.02-1.275,3.398-2.977,3.398
				c-1.381,0-2.02-1.062-2.02-1.062l0,0c0,0,0,0.213,0,0.531v2.869h-1.273v-7.544L426.219,352.715L426.219,352.715z
				 M429.196,356.857c1.061,0,1.912-0.85,1.912-2.337c0-1.382-0.744-2.338-1.809-2.338c-0.955,0-1.91,0.638-1.91,2.338
				C427.389,355.688,428.026,356.857,429.196,356.857z"/>
			<path fill="#008C9E" d="M433.87,352.715c0-0.214-0.104-0.318-0.318-0.318h-0.529v-1.062h1.168c0.531,0,0.852,0.213,0.852,0.743
				v0.425c0,0.214,0,0.427,0,0.427l0,0c0.318-0.957,1.062-1.7,2.02-1.7c0.213,0,0.316,0,0.316,0v1.273c0,0-0.211,0-0.316,0
				c-0.744,0-1.486,0.531-1.809,1.488c-0.104,0.317-0.104,0.742-0.104,1.168v2.655h-1.275v-5.1H433.87z"/>
			<path fill="#008C9E" d="M441.415,351.12c1.912,0,3.506,1.381,3.506,3.399c0,1.912-1.594,3.398-3.506,3.398
				c-1.914,0-3.508-1.381-3.508-3.398C437.907,352.607,439.5,351.12,441.415,351.12z M441.415,356.857
				c1.273,0,2.23-0.956,2.23-2.337c0-1.382-0.957-2.338-2.23-2.338c-1.17,0-2.23,0.956-2.23,2.338
				C439.182,355.901,440.245,356.857,441.415,356.857z"/>
			<path fill="#008C9E" d="M448.745,351.12c1.488,0,2.021,0.956,2.021,0.956l0,0c0,0,0-0.212,0-0.426v-1.594
				c0-0.213-0.107-0.317-0.318-0.317h-0.531v-1.062h1.273c0.531,0,0.852,0.212,0.852,0.85v6.801c0,0.213,0.105,0.318,0.318,0.318
				h0.531v1.062h-1.17c-0.531,0-0.742-0.213-0.742-0.639c0-0.213,0-0.318,0-0.318l0,0c0,0-0.531,1.17-2.125,1.17
				c-1.701,0-2.869-1.382-2.869-3.399C445.77,352.501,447.045,351.12,448.745,351.12z M450.764,354.52
				c0-1.169-0.641-2.338-1.809-2.338c-0.957,0-1.807,0.851-1.807,2.338c0,1.381,0.744,2.337,1.807,2.337
				C449.807,356.857,450.764,356.219,450.764,354.52z"/>
			<path fill="#008C9E" d="M454.165,352.715c0-0.214-0.105-0.318-0.318-0.318h-0.531v-1.062h1.17c0.637,0,0.85,0.213,0.85,0.743
				v3.081c0,0.852,0.213,1.594,1.168,1.594c1.275,0,2.125-1.168,2.125-2.442v-2.976h1.275v5.101c0,0.213,0.107,0.317,0.318,0.317
				h0.529v1.062h-1.168c-0.529,0-0.85-0.212-0.85-0.742v-0.214c0-0.212,0-0.317,0-0.317l0,0c-0.318,0.639-1.062,1.486-2.338,1.486
				c-1.488,0-2.23-0.743-2.23-2.442V352.715L454.165,352.715z"/>
			<path fill="#008C9E" d="M464.895,351.12c0.744,0,2.338,0.317,2.338,1.381v0.639h-1.17v-0.317c0-0.426-0.742-0.639-1.168-0.639
				c-1.275,0-2.23,0.956-2.23,2.338c0,1.487,1.062,2.337,2.23,2.337s2.02-0.85,2.02-0.85l0.531,0.85c0,0-0.957,1.062-2.656,1.062
				c-2.02,0-3.398-1.487-3.398-3.399C461.389,352.607,462.875,351.12,464.895,351.12z"/>
			<path fill="#008C9E" d="M468.932,352.289h-0.852v-0.956h0.852v-1.808h1.17v1.808h1.594v0.956h-1.594v2.976
				c0,1.274,0.85,1.486,1.381,1.486c0.213,0,0.318,0,0.318,0v1.062c0,0-0.215,0-0.428,0c-0.85,0-2.441-0.212-2.441-2.442V352.289z"
				/>
			<path fill="#008C9E" d="M473.29,356.009c0,0,0.742,0.956,1.912,0.956c0.637,0,1.168-0.318,1.168-0.851
				c0-1.17-3.506-1.062-3.506-3.082c0-1.273,1.062-1.807,2.443-1.807c0.742,0,2.125,0.317,2.125,1.273v0.639h-1.062v-0.318
				c0-0.425-0.531-0.53-0.955-0.53c-0.744,0-1.17,0.212-1.17,0.743c0,1.274,3.506,0.957,3.506,3.082
				c0,1.168-1.061,1.911-2.336,1.911c-1.701,0-2.551-1.169-2.551-1.169L473.29,356.009z"/>
			<path fill="#008C9E" d="M481.258,348.251h1.062l-3.189,9.988h-1.061L481.258,348.251z"/>
			<path fill="#008C9E" d="M483.276,356.645h2.02v-5.844c0-0.319,0-0.531,0-0.531l0,0c0,0-0.105,0.212-0.426,0.531l-0.85,0.85
				l-0.744-0.743l2.125-2.125h1.17v7.862h1.912v1.062h-5.207V356.645L483.276,356.645z"/>
			<path fill="#008C9E" d="M493.901,351.226c0-0.852-0.637-1.382-1.594-1.382c-0.852,0-1.381,0.426-1.381,0.852v0.425h-1.17v-0.743
				c0-1.169,1.596-1.699,2.656-1.699c1.594,0,2.867,1.062,2.867,2.55c0,3.081-4.568,3.188-4.568,5.206
				c0,0.213,0.107,0.213,0.318,0.213h3.189c0.213,0,0.318-0.105,0.318-0.318v-0.53h1.168v1.169c0,0.53-0.213,0.85-0.85,0.85h-4.568
				c-0.744,0-0.852-0.317-0.852-1.062C489.333,353.458,493.901,353.671,493.901,351.226z"/>
			<path fill="#008C9E" d="M497.196,355.688c0,0,0.85,1.062,2.229,1.062c0.957,0,1.809-0.637,1.809-1.594
				c0-0.956-0.852-1.595-1.912-1.595h-0.639l-0.318-0.637l1.912-2.338c0.318-0.426,0.531-0.639,0.531-0.639l0,0c0,0-0.318,0-0.744,0
				h-1.699c-0.213,0-0.318,0.105-0.318,0.318v0.531h-1.17v-1.169c0-0.531,0.215-0.853,0.744-0.853h4.781v0.853l-2.338,2.867
				c1.17,0.105,2.551,0.957,2.551,2.655c0,1.488-1.168,2.869-3.082,2.869c-1.912,0-2.975-1.274-2.975-1.274L497.196,355.688z"/>
		</g>
	</g>
</g>
</svg>
